#N canvas 222 257 852 284 10;
#X obj 376 192 sendOSC;
#X obj 63 72 print osc;
#X text 470 206 Use osc address of control. OSC messages are constructed
like this: /pagenumber/controlname;
#X msg 376 94 connect 192.168.0.16 9000;
#X obj 43 35 dumpOSC 8001;
#X obj 45 191 vsl 30 40 1 127 0 0 empty empty empty 0 -9 0 10 -4032
-1 -1 3016 1;
#X text 127 34 recibiendo datos de off;
#X floatatom 45 241 5 0 0 0 - - -;
#X obj 96 190 vsl 30 40 1 127 0 0 empty empty empty 0 -9 0 10 -4032
-1 -1 3900 1;
#X floatatom 96 240 5 0 0 0 - - -;
#X obj 147 190 vsl 30 40 1 127 0 0 empty empty empty 0 -9 0 10 -4032
-1 -1 2102 1;
#X floatatom 147 240 5 0 0 0 - - -;
#X text 127 72 Imprime los mensajes osc;
#X obj 198 189 vsl 30 40 1 127 0 0 empty empty empty 0 -9 0 10 -4032
-1 -1 2045 1;
#X floatatom 198 239 5 0 0 0 - - -;
#X obj 244 187 vsl 30 40 1 127 0 0 empty empty empty 0 -9 0 10 -4032
-1 -1 1308 1;
#X floatatom 244 237 5 0 0 0 - - -;
#X obj 45 161 OSCroute /osc0 /osc1 /osc2 /osc3 /osc4;
#X msg 412 123 send /1/osc1 1;
#X text 375 47 Envia valores a processing a traves del puerto 9000
10.10.10.10 con el ip-address del ordenador;
#X connect 3 0 0 0;
#X connect 4 0 1 0;
#X connect 4 0 17 0;
#X connect 5 0 7 0;
#X connect 8 0 9 0;
#X connect 10 0 11 0;
#X connect 13 0 14 0;
#X connect 15 0 16 0;
#X connect 17 0 5 0;
#X connect 17 1 8 0;
#X connect 17 2 10 0;
#X connect 17 3 13 0;
#X connect 17 4 15 0;
#X connect 18 0 0 0;
