#N canvas 86 22 1040 674 10;
#N canvas 279 415 688 345 (subpatch) 0;
#X obj 13 -97 openpanel;
#X obj 11 5 bng 15 250 50 0 empty empty empty 17 7 0 10 -1 -258113
-1;
#X obj 13 -38 soundfiler;
#X msg 13 -67 read -resize \$1 sample1;
#X floatatom 11 24 10 0 0 0 - - -;
#N canvas 0 22 450 300 (subpatch) 0;
#X array sample1 1.85357e+06 float 2;
#X coords 0 1 1.85357e+06 -1 100 100 1;
#X restore 10 55 graph;
#X text 31 3 <<carga audio;
#X obj 91 57 bng 15 250 50 0 empty empty empty 17 7 0 10 -262144 -1
-1;
#X obj 209 108 tabplay~ sample1;
#X obj 209 132 hip~ 5;
#X obj 205 164 dac~;
#X floatatom 83 24 5 0 201 0 - - -;
#X obj 83 -38 inlet;
#X msg 156 153 stop;
#X obj 93 138 bng 15 250 50 0 empty empty empty 17 7 0 10 -262144 -1
-1;
#X obj 132 -34 sig~;
#X obj 231 -71 threshold~ 100 0 200 0;
#X obj 233 -46 bng 15 250 50 0 empty empty empty 17 7 0 10 -262144
-1 -1;
#X msg 217 -20 bang;
#X obj 420 -36 bng 15 250 50 0 empty empty empty 17 7 0 10 -262144
-1 -1;
#X msg 414 -14 bang;
#X obj 418 -61 threshold~ 201 0 300 0;
#X connect 0 0 3 0;
#X connect 1 0 0 0;
#X connect 2 0 4 0;
#X connect 3 0 2 0;
#X connect 7 0 8 0;
#X connect 8 0 9 0;
#X connect 9 0 10 0;
#X connect 9 0 10 1;
#X connect 11 0 15 0;
#X connect 12 0 11 0;
#X connect 13 0 8 0;
#X connect 14 0 13 0;
#X connect 15 0 16 0;
#X connect 15 0 21 0;
#X connect 16 0 17 0;
#X connect 17 0 18 0;
#X connect 18 0 7 0;
#X connect 19 0 20 0;
#X connect 20 0 14 0;
#X connect 21 0 19 0;
#X coords 0 1 100 -1 120 160 1 0 0;
#X restore -25 -490 graph;
#X floatatom -25 -509 5 0 0 0 - - -;
#X floatatom 109 -509 5 0 0 0 - - -;
#N canvas 84 101 571 297 (subpatch) 0;
#X obj 8 -97 openpanel;
#X obj 6 5 bng 15 250 50 0 empty empty empty 17 7 0 10 -1 -1 -1;
#X obj 8 -38 soundfiler;
#X floatatom 6 24 10 0 0 0 - - -;
#N canvas 0 22 450 300 (subpatch) 0;
#X array sample3 1.41235e+06 float 2;
#X coords 0 1 1.41235e+06 -1 100 100 1;
#X restore 5 55 graph;
#X text 26 3 <<carga audio;
#X obj 86 57 bng 15 250 50 0 empty empty empty 17 7 0 10 -262144 -1
-1;
#X obj 204 132 hip~ 5;
#X obj 200 164 dac~;
#X floatatom 78 24 5 0 201 0 - - -;
#X obj 78 -38 inlet;
#X msg 151 153 stop;
#X obj 88 138 bng 15 250 50 0 empty empty empty 17 7 0 10 -262144 -1
-1;
#X obj 127 -34 sig~;
#X obj 228 -46 bng 15 250 50 0 empty empty empty 17 7 0 10 -262144
-1 -1;
#X msg 212 -20 bang;
#X obj 415 -36 bng 15 250 50 0 empty empty empty 17 7 0 10 -262144
-1 -1;
#X msg 409 -14 bang;
#X obj 226 -71 threshold~ 300 0 400 0;
#X obj 413 -61 threshold~ 401 0 500 0;
#X obj 204 108 tabplay~ sample3;
#X msg 8 -67 read -resize \$1 sample3;
#X connect 0 0 21 0;
#X connect 1 0 0 0;
#X connect 2 0 3 0;
#X connect 6 0 20 0;
#X connect 7 0 8 0;
#X connect 7 0 8 1;
#X connect 9 0 13 0;
#X connect 10 0 9 0;
#X connect 11 0 20 0;
#X connect 12 0 11 0;
#X connect 13 0 18 0;
#X connect 13 0 19 0;
#X connect 14 0 15 0;
#X connect 15 0 6 0;
#X connect 16 0 17 0;
#X connect 17 0 12 0;
#X connect 18 0 14 0;
#X connect 19 0 16 0;
#X connect 20 0 7 0;
#X connect 21 0 2 0;
#X coords 0 1 100 -1 120 160 1 0 0;
#X restore 241 -490 graph;
#X floatatom 241 -509 5 0 0 0 - - -;
#N canvas 626 145 590 322 (subpatch) 0;
#X obj 11 -94 openpanel;
#X obj 9 8 bng 15 250 50 0 empty empty empty 17 7 0 10 -1 -1 -1;
#X obj 11 -35 soundfiler;
#X floatatom 9 27 10 0 0 0 - - -;
#N canvas 0 22 450 300 (subpatch) 0;
#X array sample4 1.85357e+06 float 2;
#X coords 0 1 1.85357e+06 -1 100 100 1;
#X restore 8 58 graph;
#X text 29 6 <<carga audio;
#X obj 89 60 bng 15 250 50 0 empty empty empty 17 7 0 10 -262144 -1
-1;
#X obj 207 135 hip~ 5;
#X obj 203 167 dac~;
#X floatatom 81 27 5 0 201 0 - - -;
#X obj 81 -35 inlet;
#X msg 154 156 stop;
#X obj 91 141 bng 15 250 50 0 empty empty empty 17 7 0 10 -262144 -1
-1;
#X obj 130 -31 sig~;
#X obj 231 -43 bng 15 250 50 0 empty empty empty 17 7 0 10 -262144
-1 -1;
#X msg 215 -17 bang;
#X obj 418 -33 bng 15 250 50 0 empty empty empty 17 7 0 10 -262144
-1 -1;
#X msg 412 -11 bang;
#X msg 11 -64 read -resize \$1 sample4;
#X obj 207 111 tabplay~ sample4;
#X obj 229 -68 threshold~ 400 0 500 0;
#X obj 416 -58 threshold~ 501 0 600 0;
#X connect 0 0 18 0;
#X connect 1 0 0 0;
#X connect 2 0 3 0;
#X connect 6 0 19 0;
#X connect 7 0 8 0;
#X connect 7 0 8 1;
#X connect 9 0 13 0;
#X connect 10 0 9 0;
#X connect 11 0 19 0;
#X connect 12 0 11 0;
#X connect 13 0 20 0;
#X connect 13 0 21 0;
#X connect 14 0 15 0;
#X connect 15 0 6 0;
#X connect 16 0 17 0;
#X connect 17 0 12 0;
#X connect 18 0 2 0;
#X connect 19 0 7 0;
#X connect 20 0 14 0;
#X connect 21 0 16 0;
#X coords 0 1 100 -1 120 160 1 0 0;
#X restore 377 -489 graph;
#X floatatom 377 -509 5 0 0 0 - - -;
#N canvas 124 46 566 343 (subpatch) 0;
#X obj 9 -96 openpanel;
#X obj 7 6 bng 15 250 50 0 empty empty empty 17 7 0 10 -1 -1 -1;
#X obj 9 -37 soundfiler;
#X floatatom 7 25 10 0 0 0 - - -;
#N canvas 0 22 450 300 (subpatch) 0;
#X array sample5 1.2361e+06 float 2;
#X coords 0 1 1.2361e+06 -1 100 100 1;
#X restore 6 56 graph;
#X text 27 4 <<carga audio;
#X obj 87 58 bng 15 250 50 0 empty empty empty 17 7 0 10 -262144 -1
-1;
#X obj 205 133 hip~ 5;
#X obj 201 165 dac~;
#X floatatom 79 25 5 0 201 0 - - -;
#X obj 79 -37 inlet;
#X msg 152 154 stop;
#X obj 89 139 bng 15 250 50 0 empty empty empty 17 7 0 10 -262144 -1
-1;
#X obj 128 -33 sig~;
#X obj 229 -45 bng 15 250 50 0 empty empty empty 17 7 0 10 -262144
-1 -1;
#X msg 213 -19 bang;
#X obj 416 -35 bng 15 250 50 0 empty empty empty 17 7 0 10 -262144
-1 -1;
#X msg 410 -13 bang;
#X msg 9 -66 read -resize \$1 sample5;
#X obj 205 109 tabplay~ sample5;
#X obj 227 -70 threshold~ 500 0 600 0;
#X obj 414 -60 threshold~ 601 0 700 0;
#X connect 0 0 18 0;
#X connect 1 0 0 0;
#X connect 2 0 3 0;
#X connect 6 0 19 0;
#X connect 7 0 8 0;
#X connect 7 0 8 1;
#X connect 9 0 13 0;
#X connect 10 0 9 0;
#X connect 11 0 19 0;
#X connect 12 0 11 0;
#X connect 13 0 20 0;
#X connect 13 0 21 0;
#X connect 14 0 15 0;
#X connect 15 0 6 0;
#X connect 16 0 17 0;
#X connect 17 0 12 0;
#X connect 18 0 2 0;
#X connect 19 0 7 0;
#X connect 20 0 14 0;
#X connect 21 0 16 0;
#X coords 0 1 100 -1 120 160 1 0 0;
#X restore 506 -490 graph;
#X floatatom 506 -509 5 0 0 0 - - -;
#N canvas 698 299 582 329 (subpatch) 0;
#X obj 9 -94 openpanel;
#X obj 7 8 bng 15 250 50 0 empty empty empty 17 7 0 10 -1 -1 -1;
#X obj 9 -35 soundfiler;
#X floatatom 7 27 10 0 0 0 - - -;
#N canvas 0 22 450 300 (subpatch) 0;
#X array sample6 707328 float 2;
#X coords 0 1 707328 -1 100 100 1;
#X restore 6 58 graph;
#X text 27 6 <<carga audio;
#X obj 87 60 bng 15 250 50 0 empty empty empty 17 7 0 10 -262144 -1
-1;
#X obj 205 135 hip~ 5;
#X obj 201 167 dac~;
#X floatatom 79 27 5 0 201 0 - - -;
#X obj 79 -35 inlet;
#X msg 152 156 stop;
#X obj 89 141 bng 15 250 50 0 empty empty empty 17 7 0 10 -262144 -1
-1;
#X obj 128 -31 sig~;
#X obj 229 -43 bng 15 250 50 0 empty empty empty 17 7 0 10 -262144
-1 -1;
#X msg 213 -17 bang;
#X obj 416 -33 bng 15 250 50 0 empty empty empty 17 7 0 10 -262144
-1 -1;
#X msg 410 -11 bang;
#X msg 9 -64 read -resize \$1 sample6;
#X obj 205 111 tabplay~ sample6;
#X obj 414 -58 threshold~ 701 0 800 0;
#X obj 227 -68 threshold~ 600 0 700 0;
#X connect 0 0 18 0;
#X connect 1 0 0 0;
#X connect 2 0 3 0;
#X connect 6 0 19 0;
#X connect 7 0 8 0;
#X connect 7 0 8 1;
#X connect 9 0 13 0;
#X connect 10 0 9 0;
#X connect 11 0 19 0;
#X connect 12 0 11 0;
#X connect 13 0 20 0;
#X connect 13 0 21 0;
#X connect 14 0 15 0;
#X connect 15 0 6 0;
#X connect 16 0 17 0;
#X connect 17 0 12 0;
#X connect 18 0 2 0;
#X connect 19 0 7 0;
#X connect 20 0 16 0;
#X connect 21 0 14 0;
#X coords 0 1 100 -1 120 160 1 0 0;
#X restore 637 -490 graph;
#X floatatom 637 -509 5 0 0 0 - - -;
#X obj -6 -725 print osc;
#X obj -25 -657 vsl 30 40 1 127 0 0 empty empty empty 0 -9 0 10 -262144
-1 -1 0 1;
#X text 58 -748 recibiendo datos de off;
#X floatatom -25 -609 5 0 0 0 - - -;
#X obj 26 -657 vsl 30 40 1 127 0 0 empty empty empty 0 -9 0 10 -262144
-1 -1 0 1;
#X obj 77 -657 vsl 30 40 1 127 0 0 empty empty empty 0 -9 0 10 -262144
-1 -1 0 1;
#X floatatom 77 -609 5 0 0 0 - - -;
#X text 58 -725 Imprime los mensajes osc;
#X obj 128 -657 vsl 30 40 1 127 0 0 empty empty empty 0 -9 0 10 -262144
-1 -1 0 1;
#X floatatom 128 -609 5 0 0 0 - - -;
#X obj 174 -657 vsl 30 40 1 127 0 0 empty empty empty 0 -9 0 10 -262144
-1 -1 0 1;
#X floatatom 174 -608 5 0 0 0 - - -;
#X obj -25 -682 OSCroute /osc0 /osc1 /osc2 /osc3 /osc4;
#X floatatom 26 -609 5 0 0 0 - - -;
#X obj -26 -747 dumpOSC 8001;
#X text 24 -510;
#X obj -25 -550 * 6;
#X obj 377 -542 * 6;
#N canvas 279 415 688 345 (subpatch) 0;
#X obj 13 -97 openpanel;
#X obj 11 5 bng 15 250 50 0 empty empty empty 17 7 0 10 -1 -1 -1;
#X obj 13 -38 soundfiler;
#X floatatom 11 24 10 0 0 0 - - -;
#N canvas 0 22 450 300 (subpatch) 0;
#X array sample7 1.85357e+06 float 2;
#X coords 0 1 1.85357e+06 -1 100 100 1;
#X restore 10 55 graph;
#X text 31 3 <<carga audio;
#X obj 91 57 bng 15 250 50 0 empty empty empty 17 7 0 10 -262144 -1
-1;
#X obj 209 132 hip~ 5;
#X obj 205 164 dac~;
#X floatatom 83 24 5 0 201 0 - - -;
#X obj 83 -38 inlet;
#X msg 156 153 stop;
#X obj 93 138 bng 15 250 50 0 empty empty empty 17 7 0 10 -262144 -1
-1;
#X obj 132 -34 sig~;
#X obj 231 -71 threshold~ 100 0 200 0;
#X obj 233 -46 bng 15 250 50 0 empty empty empty 17 7 0 10 -262144
-1 -1;
#X msg 217 -20 bang;
#X obj 420 -36 bng 15 250 50 0 empty empty empty 17 7 0 10 -262144
-1 -1;
#X msg 414 -14 bang;
#X obj 418 -61 threshold~ 201 0 300 0;
#X msg 13 -67 read -resize \$1 sample7;
#X obj 209 108 tabplay~ sample7;
#X connect 0 0 20 0;
#X connect 1 0 0 0;
#X connect 2 0 3 0;
#X connect 6 0 21 0;
#X connect 7 0 8 0;
#X connect 7 0 8 1;
#X connect 9 0 13 0;
#X connect 10 0 9 0;
#X connect 11 0 21 0;
#X connect 12 0 11 0;
#X connect 13 0 14 0;
#X connect 13 0 19 0;
#X connect 14 0 15 0;
#X connect 15 0 16 0;
#X connect 16 0 6 0;
#X connect 17 0 18 0;
#X connect 18 0 12 0;
#X connect 19 0 17 0;
#X connect 20 0 2 0;
#X connect 21 0 7 0;
#X coords 0 1 100 -1 120 160 1 0 0;
#X restore -25 -267 graph;
#X floatatom -25 -286 5 0 0 0 - - -;
#N canvas 663 164 617 324 (subpatch) 0;
#X obj 12 -97 openpanel;
#X obj 10 5 bng 15 250 50 0 empty empty empty 17 7 0 10 -1 -1 -1;
#X obj 12 -38 soundfiler;
#X floatatom 10 24 10 0 0 0 - - -;
#N canvas 0 22 450 300 (subpatch) 0;
#X array sample8 2.20723e+06 float 2;
#X coords 0 1 2.20723e+06 -1 100 100 1;
#X restore 9 55 graph;
#X text 30 3 <<carga audio;
#X obj 90 57 bng 15 250 50 0 empty empty empty 17 7 0 10 -262144 -1
-1;
#X obj 208 132 hip~ 5;
#X obj 204 164 dac~;
#X floatatom 82 24 5 0 201 0 - - -;
#X obj 82 -38 inlet;
#X msg 155 153 stop;
#X obj 92 138 bng 15 250 50 0 empty empty empty 17 7 0 10 -262144 -1
-1;
#X obj 131 -34 sig~;
#X obj 232 -46 bng 15 250 50 0 empty empty empty 17 7 0 10 -262144
-1 -1;
#X msg 216 -20 bang;
#X obj 419 -36 bng 15 250 50 0 empty empty empty 17 7 0 10 -262144
-1 -1;
#X msg 413 -14 bang;
#X obj 230 -71 threshold~ 200 0 300 0;
#X obj 417 -61 threshold~ 301 0 400 0;
#X msg 12 -67 read -resize \$1 sample8;
#X obj 208 108 tabplay~ sample8;
#X connect 0 0 20 0;
#X connect 1 0 0 0;
#X connect 2 0 3 0;
#X connect 6 0 21 0;
#X connect 7 0 8 0;
#X connect 7 0 8 1;
#X connect 9 0 13 0;
#X connect 10 0 9 0;
#X connect 11 0 21 0;
#X connect 12 0 11 0;
#X connect 13 0 18 0;
#X connect 13 0 19 0;
#X connect 14 0 15 0;
#X connect 15 0 6 0;
#X connect 16 0 17 0;
#X connect 17 0 12 0;
#X connect 18 0 14 0;
#X connect 19 0 16 0;
#X connect 20 0 2 0;
#X connect 21 0 7 0;
#X coords 0 1 100 -1 120 160 1 0 0;
#X restore 109 -267 graph;
#X floatatom 109 -286 5 0 0 0 - - -;
#N canvas 84 101 571 297 (subpatch) 0;
#X obj 8 -97 openpanel;
#X obj 6 5 bng 15 250 50 0 empty empty empty 17 7 0 10 -1 -1 -1;
#X obj 8 -38 soundfiler;
#X floatatom 6 24 10 0 0 0 - - -;
#N canvas 0 22 450 300 (subpatch) 0;
#X array sample9 1.41235e+06 float 2;
#X coords 0 1 1.41235e+06 -1 100 100 1;
#X restore 5 55 graph;
#X text 26 3 <<carga audio;
#X obj 86 57 bng 15 250 50 0 empty empty empty 17 7 0 10 -262144 -1
-1;
#X obj 204 132 hip~ 5;
#X obj 200 164 dac~;
#X floatatom 78 24 5 0 201 0 - - -;
#X obj 78 -38 inlet;
#X msg 151 153 stop;
#X obj 88 138 bng 15 250 50 0 empty empty empty 17 7 0 10 -262144 -1
-1;
#X obj 127 -34 sig~;
#X obj 228 -46 bng 15 250 50 0 empty empty empty 17 7 0 10 -262144
-1 -1;
#X msg 212 -20 bang;
#X obj 415 -36 bng 15 250 50 0 empty empty empty 17 7 0 10 -262144
-1 -1;
#X msg 409 -14 bang;
#X obj 226 -71 threshold~ 300 0 400 0;
#X obj 413 -61 threshold~ 401 0 500 0;
#X msg 8 -67 read -resize \$1 sample9;
#X obj 204 108 tabplay~ sample9;
#X connect 0 0 20 0;
#X connect 1 0 0 0;
#X connect 2 0 3 0;
#X connect 6 0 21 0;
#X connect 7 0 8 0;
#X connect 7 0 8 1;
#X connect 9 0 13 0;
#X connect 10 0 9 0;
#X connect 11 0 21 0;
#X connect 12 0 11 0;
#X connect 13 0 18 0;
#X connect 13 0 19 0;
#X connect 14 0 15 0;
#X connect 15 0 6 0;
#X connect 16 0 17 0;
#X connect 17 0 12 0;
#X connect 18 0 14 0;
#X connect 19 0 16 0;
#X connect 20 0 2 0;
#X connect 21 0 7 0;
#X coords 0 1 100 -1 120 160 1 0 0;
#X restore 241 -267 graph;
#X floatatom 241 -286 5 0 0 0 - - -;
#N canvas 626 145 590 322 (subpatch) 0;
#X obj 11 -94 openpanel;
#X obj 9 8 bng 15 250 50 0 empty empty empty 17 7 0 10 -1 -1 -1;
#X obj 11 -35 soundfiler;
#X floatatom 9 27 10 0 0 0 - - -;
#N canvas 0 22 450 300 (subpatch) 0;
#X array sample10 1.85357e+06 float 2;
#X coords 0 1 1.85357e+06 -1 100 100 1;
#X restore 8 58 graph;
#X text 29 6 <<carga audio;
#X obj 89 60 bng 15 250 50 0 empty empty empty 17 7 0 10 -262144 -1
-1;
#X obj 207 135 hip~ 5;
#X obj 203 167 dac~;
#X floatatom 81 27 5 0 201 0 - - -;
#X obj 81 -35 inlet;
#X msg 154 156 stop;
#X obj 91 141 bng 15 250 50 0 empty empty empty 17 7 0 10 -262144 -1
-1;
#X obj 130 -31 sig~;
#X obj 231 -43 bng 15 250 50 0 empty empty empty 17 7 0 10 -262144
-1 -1;
#X msg 215 -17 bang;
#X obj 418 -33 bng 15 250 50 0 empty empty empty 17 7 0 10 -262144
-1 -1;
#X msg 412 -11 bang;
#X obj 229 -68 threshold~ 400 0 500 0;
#X obj 416 -58 threshold~ 501 0 600 0;
#X msg 13 -63 read -resize \$1 sample10;
#X obj 207 111 tabplay~ sample10;
#X connect 0 0 20 0;
#X connect 1 0 0 0;
#X connect 2 0 3 0;
#X connect 6 0 21 0;
#X connect 7 0 8 0;
#X connect 7 0 8 1;
#X connect 9 0 13 0;
#X connect 10 0 9 0;
#X connect 11 0 21 0;
#X connect 12 0 11 0;
#X connect 13 0 18 0;
#X connect 13 0 19 0;
#X connect 14 0 15 0;
#X connect 15 0 6 0;
#X connect 16 0 17 0;
#X connect 17 0 12 0;
#X connect 18 0 14 0;
#X connect 19 0 16 0;
#X connect 20 0 2 0;
#X connect 21 0 7 0;
#X coords 0 1 100 -1 120 160 1 0 0;
#X restore 379 -266 graph;
#X floatatom 379 -286 5 0 0 0 - - -;
#N canvas 124 46 566 343 (subpatch) 0;
#X obj 9 -96 openpanel;
#X obj 7 6 bng 15 250 50 0 empty empty empty 17 7 0 10 -1 -1 -1;
#X obj 9 -37 soundfiler;
#X floatatom 7 25 10 0 0 0 - - -;
#N canvas 0 22 450 300 (subpatch) 0;
#X array sample11 1.2361e+06 float 2;
#X coords 0 1 1.2361e+06 -1 100 100 1;
#X restore 6 56 graph;
#X text 27 4 <<carga audio;
#X obj 87 58 bng 15 250 50 0 empty empty empty 17 7 0 10 -262144 -1
-1;
#X obj 205 133 hip~ 5;
#X obj 201 165 dac~;
#X floatatom 79 25 5 0 201 0 - - -;
#X obj 79 -37 inlet;
#X msg 152 154 stop;
#X obj 89 139 bng 15 250 50 0 empty empty empty 17 7 0 10 -262144 -1
-1;
#X obj 128 -33 sig~;
#X obj 229 -45 bng 15 250 50 0 empty empty empty 17 7 0 10 -262144
-1 -1;
#X msg 213 -19 bang;
#X obj 416 -35 bng 15 250 50 0 empty empty empty 17 7 0 10 -262144
-1 -1;
#X msg 410 -13 bang;
#X obj 227 -70 threshold~ 500 0 600 0;
#X obj 414 -60 threshold~ 601 0 700 0;
#X msg 9 -66 read -resize \$1 sample11;
#X obj 205 109 tabplay~ sample11;
#X connect 0 0 20 0;
#X connect 1 0 0 0;
#X connect 2 0 3 0;
#X connect 6 0 21 0;
#X connect 7 0 8 0;
#X connect 7 0 8 1;
#X connect 9 0 13 0;
#X connect 10 0 9 0;
#X connect 11 0 21 0;
#X connect 12 0 11 0;
#X connect 13 0 18 0;
#X connect 13 0 19 0;
#X connect 14 0 15 0;
#X connect 15 0 6 0;
#X connect 16 0 17 0;
#X connect 17 0 12 0;
#X connect 18 0 14 0;
#X connect 19 0 16 0;
#X connect 20 0 2 0;
#X connect 21 0 7 0;
#X coords 0 1 100 -1 120 160 1 0 0;
#X restore 508 -267 graph;
#X floatatom 508 -286 5 0 0 0 - - -;
#N canvas 538 379 582 329 (subpatch) 0;
#X obj 9 -94 openpanel;
#X obj 7 8 bng 15 250 50 0 empty empty empty 17 7 0 10 -1 -1 -1;
#X obj 9 -35 soundfiler;
#X floatatom 7 27 10 0 0 0 - - -;
#N canvas 0 22 450 300 (subpatch) 0;
#X array sample12 707328 float 2;
#X coords 0 1 707328 -1 100 100 1;
#X restore 6 58 graph;
#X text 27 6 <<carga audio;
#X obj 87 60 bng 15 250 50 0 empty empty empty 17 7 0 10 -262144 -1
-1;
#X obj 205 135 hip~ 5;
#X obj 201 167 dac~;
#X floatatom 79 27 5 0 201 0 - - -;
#X obj 79 -35 inlet;
#X msg 152 156 stop;
#X obj 89 141 bng 15 250 50 0 empty empty empty 17 7 0 10 -262144 -1
-1;
#X obj 128 -31 sig~;
#X obj 229 -43 bng 15 250 50 0 empty empty empty 17 7 0 10 -262144
-1 -1;
#X msg 213 -17 bang;
#X obj 416 -33 bng 15 250 50 0 empty empty empty 17 7 0 10 -262144
-1 -1;
#X msg 410 -11 bang;
#X obj 414 -58 threshold~ 701 0 800 0;
#X obj 227 -68 threshold~ 600 0 700 0;
#X msg 9 -64 read -resize \$1 sample12;
#X obj 205 111 tabplay~ sample12;
#X connect 0 0 20 0;
#X connect 1 0 0 0;
#X connect 2 0 3 0;
#X connect 6 0 21 0;
#X connect 7 0 8 0;
#X connect 7 0 8 1;
#X connect 9 0 13 0;
#X connect 10 0 9 0;
#X connect 11 0 21 0;
#X connect 12 0 11 0;
#X connect 13 0 18 0;
#X connect 13 0 19 0;
#X connect 14 0 15 0;
#X connect 15 0 6 0;
#X connect 16 0 17 0;
#X connect 17 0 12 0;
#X connect 18 0 16 0;
#X connect 19 0 14 0;
#X connect 20 0 2 0;
#X connect 21 0 7 0;
#X coords 0 1 100 -1 120 160 1 0 0;
#X restore 639 -267 graph;
#X floatatom 639 -286 5 0 0 0 - - -;
#X obj -25 -315 * 6;
#X obj 379 -310 * 6;
#N canvas 663 164 617 324 (subpatch) 0;
#X obj 12 -97 openpanel;
#X obj 10 5 bng 15 250 50 0 empty empty empty 17 7 0 10 -1 -1 -1;
#X obj 12 -38 soundfiler;
#X floatatom 10 24 10 0 0 0 - - -;
#N canvas 0 22 450 300 (subpatch) 0;
#X array sample2 2.20723e+06 float 2;
#X coords 0 1 2.20723e+06 -1 100 100 1;
#X restore 9 55 graph;
#X text 30 3 <<carga audio;
#X obj 90 57 bng 15 250 50 0 empty empty empty 17 7 0 10 -262144 -1
-1;
#X obj 208 132 hip~ 5;
#X obj 204 164 dac~;
#X floatatom 82 24 5 0 201 0 - - -;
#X obj 82 -38 inlet;
#X msg 155 153 stop;
#X obj 92 138 bng 15 250 50 0 empty empty empty 17 7 0 10 -262144 -1
-1;
#X obj 131 -34 sig~;
#X obj 232 -46 bng 15 250 50 0 empty empty empty 17 7 0 10 -262144
-1 -1;
#X msg 216 -20 bang;
#X obj 419 -36 bng 15 250 50 0 empty empty empty 17 7 0 10 -262144
-1 -1;
#X msg 413 -14 bang;
#X obj 208 108 tabplay~ sample2;
#X msg 12 -67 read -resize \$1 sample2;
#X obj 230 -71 threshold~ 200 0 300 0;
#X obj 417 -61 threshold~ 301 0 400 0;
#X connect 0 0 19 0;
#X connect 1 0 0 0;
#X connect 2 0 3 0;
#X connect 6 0 18 0;
#X connect 7 0 8 0;
#X connect 7 0 8 1;
#X connect 9 0 13 0;
#X connect 10 0 9 0;
#X connect 11 0 18 0;
#X connect 12 0 11 0;
#X connect 13 0 20 0;
#X connect 13 0 21 0;
#X connect 14 0 15 0;
#X connect 15 0 6 0;
#X connect 16 0 17 0;
#X connect 17 0 12 0;
#X connect 18 0 7 0;
#X connect 19 0 2 0;
#X connect 20 0 14 0;
#X connect 21 0 16 0;
#X coords 0 1 100 -1 120 160 1 0 0;
#X restore 109 -487 graph;
#X text 24 -287;
#X connect 1 0 0 0;
#X connect 2 0 43 0;
#X connect 4 0 3 0;
#X connect 6 0 5 0;
#X connect 8 0 7 0;
#X connect 10 0 9 0;
#X connect 12 0 14 0;
#X connect 14 0 27 0;
#X connect 15 0 24 0;
#X connect 16 0 17 0;
#X connect 17 0 41 0;
#X connect 19 0 20 0;
#X connect 20 0 42 0;
#X connect 21 0 22 0;
#X connect 23 0 12 0;
#X connect 23 1 15 0;
#X connect 23 2 16 0;
#X connect 23 3 19 0;
#X connect 23 4 21 0;
#X connect 24 0 28 0;
#X connect 25 0 11 0;
#X connect 25 0 23 0;
#X connect 27 0 1 0;
#X connect 27 0 2 0;
#X connect 27 0 4 0;
#X connect 28 0 6 0;
#X connect 28 0 8 0;
#X connect 28 0 10 0;
#X connect 30 0 29 0;
#X connect 32 0 31 0;
#X connect 34 0 33 0;
#X connect 36 0 35 0;
#X connect 38 0 37 0;
#X connect 40 0 39 0;
#X connect 41 0 30 0;
#X connect 41 0 32 0;
#X connect 41 0 34 0;
#X connect 42 0 36 0;
#X connect 42 0 38 0;
#X connect 42 0 40 0;
