#N canvas 514 112 700 600 10;
#X declare -lib mrpeach;
#X obj 730 100 * 127;
#X obj 730 130 ctlout 9 1;
#X obj 820 100 * 127;
#X obj 820 130 ctlout 10 1;
#X obj 910 100 * 127;
#X obj 910 130 ctlout 11 1;
#X obj 1000 100 * 127;
#X obj 1000 130 ctlout 12 1;
#X obj 1090 100 * 127;
#X obj 1090 130 ctlout 13 1;
#X obj 1180 100 * 127;
#X obj 1180 130 ctlout 14 1;
#X obj 1270 100 * 127;
#X obj 1270 130 ctlout 15 1;
#X obj 1360 100 * 127;
#X obj 1360 130 ctlout 16 1;
#X obj 1450 100 * 127;
#X obj 1450 130 ctlout 17 1;
#X obj 1540 100 * 127;
#X obj 1540 130 ctlout 18 1;
#X obj 1630 100 * 127;
#X obj 1630 130 ctlout 19 1;
#X obj 1720 100 * 127;
#X obj 1720 130 ctlout 20 1;
#X obj 10 -323 import mrpeach;
#X obj 239 -255 unpackOSC;
#X obj 248 -227 print unpacked;
#X floatatom 240 -162 5 0 0 0 - - -;
#X obj 240 -197 routeOSC /osc1/crudo;
#X obj 239 -281 udpreceive 8000;
#X connect 0 0 1 0;
#X connect 2 0 3 0;
#X connect 4 0 5 0;
#X connect 6 0 7 0;
#X connect 8 0 9 0;
#X connect 10 0 11 0;
#X connect 12 0 13 0;
#X connect 14 0 15 0;
#X connect 16 0 17 0;
#X connect 18 0 19 0;
#X connect 20 0 21 0;
#X connect 22 0 23 0;
#X connect 25 0 26 0;
#X connect 25 0 28 0;
#X connect 28 0 27 0;
#X connect 29 0 25 0;
