#N canvas 365 27 827 638 12;
#X obj 90 186 gemhead;
#X floatatom 220 155 5 0 0 0 - - -;
#X msg 150 156 auto \$1;
#X obj 150 137 tgl 15 0 empty empty empty 20 8 0 8 -262144 -1 -1 1
1;
#X floatatom 124 261 5 0 0 0 - - -;
#X obj 90 467 pix_convolve 3 3;
#X text 472 233 load and play-back a movie;
#X text 368 28 win32:;
#X text 212 134 frame;
#N canvas 243 65 604 505 README 0;
#X text 49 38 the pix_film is the same as pix_movie but does not texture
the movie immediately onto a Geo.;
#X text 50 77 therefore it is possible to manipulate the frames;
#X text 48 106 the pix_film object will return the movie in it's (more
or less) native color-space. most of the times \, this will probably
be not RGBA but RGB or BGR (on windows machines).;
#X text 48 153 do not worry about this. however \, most of the pix-manips
will only work correctly on RGBA-pixes. if this is the case and you
send it a non-RGBA pixture it will say something like "pix_object cannot
handle gray image".;
#X text 49 226 to avoid this \, you can convert your pix-buff to RGBA
using "pix_rgba". this will be a no-cost operation if the pix_buf already
is in RGBA.;
#X text 36 334 you might notice a significant performance-enhancement
by just turning the [pix_rgba] off (via the toggle). however \, not
[pix_rgba] is expensive but actually the [pix_convolve] (which appears
to do nothing when initialized with "0 0 0 0 1 0 0 0 0". When [pix_rgba]
is "off" \, the [pix_convolve] will be bypassed \, and therefore be
very fast.;
#X restore 635 187 pd README;
#X obj 90 573 square 4;
#X obj 90 233 pix_film;
#X floatatom 149 547 5 0 0 0 - - -;
#X msg 393 48 open ../data/homer.avi;
#X msg 386 111 open ../data/anim-1.mov;
#X msg 391 156 open ../data/alea.mpg;
#X text 247 502 you have to texture the movie by hand;
#X text 256 466 manipulate the movie (expensive!);
#X text 26 10 load \, play and manipulate digital videos;
#X text 715 422 smoothing;
#X obj 289 252 t f;
#X text 178 299 transform the movie into RGBA-space (if turned off
\, [pix_convolve] will be by-passed and therefore much speed will be
"gained");
#X obj 110 439 tgl 15 0 empty empty empty 20 8 0 8 -262144 -1 -1 0
1;
#X obj 90 500 pix_texture;
#X obj 20 49 cnv 15 220 70 empty empty empty 20 12 0 14 -195568 -66577
0;
#N canvas 0 22 454 304 gemwin 0;
#X obj 132 136 gemwin;
#X obj 67 89 outlet;
#X obj 67 10 inlet;
#X obj 67 41 route create;
#X msg 67 70 set destroy;
#X msg 182 68 set create;
#X msg 132 112 create \, 1;
#X msg 238 112 destroy;
#N canvas 87 154 247 179 Gem.init 0;
#X obj 118 46 loadbang;
#X msg 118 81 reset;
#X obj 118 113 outlet;
#X connect 0 0 1 0;
#X connect 1 0 2 0;
#X restore 289 80 pd Gem.init;
#X connect 2 0 3 0;
#X connect 3 0 4 0;
#X connect 3 0 6 0;
#X connect 3 1 5 0;
#X connect 3 1 7 0;
#X connect 4 0 1 0;
#X connect 5 0 1 0;
#X connect 6 0 0 0;
#X connect 7 0 0 0;
#X connect 8 0 0 0;
#X restore 25 93 pd gemwin;
#X msg 25 69 destroy;
#X text 21 49 Create window and render;
#X text 358 91 linux \, os-X:;
#X text 363 140 linux \, ??:;
#X obj 345 181 t a;
#X msg 55 309 thread 0;
#X msg 410 207 open \$1;
#X obj 410 185 symbol;
#X obj 471 185 openpanel;
#X obj 563 185 bng 15 250 50 0 empty empty empty 17 7 0 10 -262144
-1 -1;
#X obj -228 302 pix_texture;
#X obj -228 278 pix_threshold;
#X floatatom -93 241 5 0 100 2 threshold - -;
#X obj -90 206 hsl 128 15 0 1 0 0 empty empty empty -2 -6 0 10 -228856
-1 -1 5900 1;
#X obj -102 265 hsl 128 15 0 1 0 1 empty empty R 12 8 1 12 -261689
-1 -1 11600 1;
#X obj -102 285 hsl 128 15 0 1 0 1 empty empty G 12 8 1 12 -225271
-1 -1 944 1;
#X obj -102 305 hsl 128 15 0 1 0 1 empty empty B 12 8 1 12 -228992
-1 -1 0 1;
#X obj -102 325 hsl 128 15 0 1 0 1 empty empty A 12 8 1 12 -195568
-1 -1 4300 1;
#X obj -228 354 colorRGB 1 1 1 0.15;
#X obj -217 230 tgl 15 0 empty empty empty 20 8 0 8 -262144 -1 -1 0
1;
#N canvas 900 65 490 408 arduino 1;
#X obj 21 52 cnv 15 60 22 empty empty empty 20 12 0 14 -253938 -66577
0;
#N canvas 146 163 525 433 serin 0;
#X obj 180 61 cnv 15 15 15 empty \$0-number-canvas 6 4 8 0 14 -233017
-1 0;
#X obj 200 225 s \$0-number-canvas;
#X obj 60 61 hradio 15 1 1 8 empty empty empty 0 -6 0 8 -225271 -1
-1 6;
#X obj 60 13 inlet;
#X msg 200 202 label \$1;
#X obj 200 180 makefilename %d;
#X obj 59 108 int;
#X msg 59 206 open \$1;
#X obj 59 377 outlet;
#X msg 201 306 set \$1 \$2;
#X obj 59 266 trigger bang anything;
#X obj 201 286 list;
#X obj 383 383 outlet;
#X obj 384 22 netreceive 34567;
#X obj 477 43 tgl 15 0 empty empty empty 0 -6 0 10 -262144 -1 -1 0
1;
#X obj 384 41 bng 15 250 50 0 empty empty empty 0 -6 0 10 -262144 -1
-1;
#X obj 187 24 delay 15000;
#X text 345 379 close;
#X text 209 4 for open/close automation in Makefile;
#X obj 184 95 bang;
#X obj 184 137 send ARDUINO_TEST_RESET;
#X msg 184 116 set 0;
#X connect 2 0 6 0;
#X connect 2 0 19 0;
#X connect 3 0 2 0;
#X connect 4 0 1 0;
#X connect 5 0 4 0;
#X connect 6 0 5 0;
#X connect 6 0 7 0;
#X connect 7 0 10 0;
#X connect 9 0 8 0;
#X connect 10 0 8 0;
#X connect 10 1 11 0;
#X connect 11 0 9 0;
#X connect 13 0 15 0;
#X connect 13 1 14 0;
#X connect 15 0 16 0;
#X connect 15 0 12 0;
#X connect 16 0 2 0;
#X connect 19 0 21 0;
#X connect 21 0 20 0;
#X coords 0 -1 1 1 136 17 1 60 60;
#X restore 27 31 pd serin;
#X msg 87 54 close;
#X floatatom 21 334 5 0 0 3 a0 - -;
#X floatatom 67 334 5 0 0 3 a1 - -;
#X floatatom 113 334 5 0 0 3 a2 - -;
#X floatatom 159 334 5 0 0 3 a3 - -;
#X floatatom 205 334 5 0 0 3 a4 - -;
#X floatatom 251 334 5 0 0 3 a5 - -;
#X msg 120 94 info;
#X msg 120 114 version;
#X floatatom 297 334 5 0 0 3 a6 - -;
#X floatatom 343 334 5 0 0 3 a7 - -;
#X obj 120 277 route 0 1 2 3 4 5 6 7;
#N canvas 981 48 499 396 display 0;
#X obj 6 7 inlet;
#X obj 6 28 mapping/resample 100;
#X obj 6 50 outlet;
#X obj 54 50 inlet;
#X obj 54 71 mapping/resample 100;
#X obj 54 93 outlet;
#X obj 103 93 inlet;
#X obj 103 114 mapping/resample 100;
#X obj 103 136 outlet;
#X obj 151 136 inlet;
#X obj 151 157 mapping/resample 100;
#X obj 151 179 outlet;
#X obj 200 179 inlet;
#X obj 200 200 mapping/resample 100;
#X obj 200 222 outlet;
#X obj 247 222 inlet;
#X obj 247 243 mapping/resample 100;
#X obj 247 265 outlet;
#X obj 295 265 inlet;
#X obj 295 286 mapping/resample 100;
#X obj 295 308 outlet;
#X obj 345 308 inlet;
#X obj 345 329 mapping/resample 100;
#X obj 345 351 outlet;
#X obj 60 290 receive ARDUINO_TEST_RESET;
#X connect 0 0 1 0;
#X connect 1 0 2 0;
#X connect 3 0 4 0;
#X connect 4 0 5 0;
#X connect 6 0 7 0;
#X connect 7 0 8 0;
#X connect 9 0 10 0;
#X connect 10 0 11 0;
#X connect 12 0 13 0;
#X connect 13 0 14 0;
#X connect 15 0 16 0;
#X connect 16 0 17 0;
#X connect 18 0 19 0;
#X connect 19 0 20 0;
#X connect 21 0 22 0;
#X connect 22 0 23 0;
#X connect 24 0 22 0;
#X connect 24 0 19 0;
#X connect 24 0 16 0;
#X connect 24 0 13 0;
#X connect 24 0 10 0;
#X connect 24 0 7 0;
#X connect 24 0 4 0;
#X connect 24 0 1 0;
#X restore 44 308 pd display values without pegging the CPU;
#N canvas 3 48 451 224 ver 0;
#X obj 23 7 inlet;
#X obj 250 100 cnv 15 145 17 empty \$0-version_cnv Firmata-2.3 4 10
0 12 -203904 -1 0;
#X obj 23 157 send \$0-version_cnv;
#X msg 23 132 label \$1;
#X obj 48 103 symbol;
#X obj 38 77 loadbang;
#X msg 96 78 bang;
#X obj 309 163 outlet;
#X obj 23 52 zexy/makesymbol Firmata-%s.%s;
#X obj 23 29 route version bang;
#X connect 0 0 9 0;
#X connect 3 0 2 0;
#X connect 4 0 3 0;
#X connect 5 0 4 0;
#X connect 6 0 4 0;
#X connect 8 0 3 0;
#X connect 9 0 8 0;
#X connect 9 1 7 0;
#X connect 9 1 6 0;
#X connect 9 2 7 0;
#X coords 0 -1 1 1 145 17 1 250 100;
#X restore 176 51 pd ver;
#X obj 120 225 arduino 1;
#N canvas 649 518 411 212 firmware 0;
#X obj 123 2 inlet;
#X obj 250 100 cnv 15 145 17 empty \$0-firmware_cnv StandardFirmata.ino-2.3
4 10 0 12 -232576 -66577 0;
#X msg 123 156 label \$1;
#X obj 148 127 symbol;
#X obj 138 101 loadbang;
#X msg 196 102 bang;
#X obj 123 181 send \$0-firmware_cnv;
#X obj 123 24 route firmware;
#X obj 18 181 print Firmware;
#X obj 123 49 list;
#X obj 123 80 zexy/makesymbol %s-%s.%s;
#X obj 18 151 list trim;
#X obj 204 45 route bang;
#X connect 0 0 7 0;
#X connect 2 0 6 0;
#X connect 3 0 2 0;
#X connect 4 0 3 0;
#X connect 5 0 3 0;
#X connect 7 0 9 0;
#X connect 7 1 12 0;
#X connect 9 0 10 0;
#X connect 10 0 2 0;
#X connect 10 0 11 0;
#X connect 11 0 8 0;
#X connect 12 0 5 0;
#X coords 0 -1 1 1 145 17 1 250 100;
#X restore 176 71 pd firmware;
#X msg 120 154 devices;
#X msg 120 134 firmware;
#N canvas 205 22 593 390 strings 0;
#X obj -178 287 outlet;
#X obj -142 101 moocow/any2string;
#X symbolatom -92 48 10 0 0 0 - - -;
#X obj -119 179 pddp/print;
#X obj -92 68 list trim;
#X msg -175 39 test;
#X msg -139 40 TEST;
#X obj -142 130 cyclone/prepend string;
#X obj -313 102 moocow/any2string;
#X symbolatom -263 49 10 0 0 0 - - -;
#X obj -314 202 pddp/print;
#X obj -263 69 list trim;
#X msg -346 40 test;
#X msg -310 41 TEST;
#X obj -313 153 cyclone/prepend sysex;
#X obj -313 131 cyclone/prepend 40;
#X msg 66 117 samplingInterval \$1;
#X obj 69 93 hsl 128 15 0 127 0 0 empty empty empty -2 -8 0 10 -262144
-1 -1 0 1;
#X floatatom 27 117 5 0 0 0 - - -;
#X connect 1 0 7 0;
#X connect 2 0 4 0;
#X connect 4 0 1 0;
#X connect 5 0 1 0;
#X connect 6 0 1 0;
#X connect 7 0 3 0;
#X connect 7 0 0 0;
#X connect 8 0 15 0;
#X connect 9 0 11 0;
#X connect 11 0 8 0;
#X connect 12 0 8 0;
#X connect 13 0 8 0;
#X connect 14 0 0 0;
#X connect 14 0 10 0;
#X connect 15 0 14 0;
#X connect 16 0 0 0;
#X connect 17 0 16 0;
#X connect 17 0 18 0;
#X restore 182 207 pd strings and special messages;
#N canvas 626 98 404 287 device 0;
#X obj 35 60 inlet;
#X obj 35 118 route open port ports;
#X obj 35 169 tgl 15 0 empty empty open -3 20 0 10 -262144 -1 -1 0
1;
#X floatatom 76 170 5 0 0 3 port - -;
#X obj 117 170 print comport_ports;
#X obj 252 170 outlet;
#X obj 235 74 receive ARDUINO_TEST_RESET;
#X obj 235 97 bang;
#X connect 0 0 1 0;
#X connect 1 0 2 0;
#X connect 1 1 3 0;
#X connect 1 2 4 0;
#X connect 1 3 5 0;
#X connect 6 0 7 0;
#X connect 7 0 5 0;
#X restore 176 29 pd device info;
#X text 268 29 <- open to see info;
#N canvas 0 22 450 300 old 1;
#X msg 95 138 digitalIns 0 0;
#X msg 88 77 analogIns 0 1;
#N canvas 162 133 610 460 serin 0;
#X obj 59 337 outlet;
#X obj 59 266 trigger bang anything;
#X obj 201 286 list;
#X obj 60 61 tgl 15 0 junk_to_hide_inlet ARDUINO_TEST_RESET 0 5 9 1
12 -262130 -1 -1 1 1;
#X obj 75 61 tgl 15 0 junk_to_hide_inlet ARDUINO_TEST_RESET 1 5 9 1
12 -262130 -1 -1 0 1;
#X obj 90 61 tgl 15 0 junk_to_hide_inlet ARDUINO_TEST_RESET 2 5 9 1
12 -262130 -1 -1 0 1;
#X obj 105 61 tgl 15 0 junk_to_hide_inlet ARDUINO_TEST_RESET 3 5 9
1 12 -262130 -1 -1 0 1;
#X obj 120 61 tgl 15 0 junk_to_hide_inlet ARDUINO_TEST_RESET 4 5 9
1 12 -262130 -1 -1 0 1;
#X obj 135 61 tgl 15 0 junk_to_hide_inlet ARDUINO_TEST_RESET 5 5 9
1 12 -262130 -1 -1 0 1;
#X obj 150 61 tgl 15 0 junk_to_hide_inlet ARDUINO_TEST_RESET 6 5 9
1 12 -262130 -1 -1 0 1;
#X obj 165 61 tgl 15 0 junk_to_hide_inlet ARDUINO_TEST_RESET 7 5 9
1 12 -262130 -1 -1 0 1;
#X msg 59 210 analogIns \$1 \$2;
#X msg 35 106 0 \$1;
#X msg 70 106 1 \$1;
#X msg 105 106 2 \$1;
#X msg 140 106 3 \$1;
#X msg 175 106 4 \$1;
#X msg 210 106 5 \$1;
#X msg 245 106 6 \$1;
#X msg 280 106 7 \$1;
#X msg 202 307 set \$1 \$2 \$3;
#X connect 1 0 0 0;
#X connect 1 1 2 0;
#X connect 2 0 20 0;
#X connect 3 0 12 0;
#X connect 4 0 13 0;
#X connect 5 0 14 0;
#X connect 6 0 15 0;
#X connect 7 0 16 0;
#X connect 8 0 17 0;
#X connect 9 0 18 0;
#X connect 10 0 19 0;
#X connect 11 0 1 0;
#X connect 12 0 11 0;
#X connect 13 0 11 0;
#X connect 14 0 11 0;
#X connect 15 0 11 0;
#X connect 16 0 11 0;
#X connect 17 0 11 0;
#X connect 18 0 11 0;
#X connect 19 0 11 0;
#X connect 20 0 0 0;
#X coords 0 -1 1 1 120 16 1 60 60;
#X restore 88 55 pd serin;
#X text 87 38 which analogIns to enable:;
#X text 94 101 which digital ports to enable:;
#N canvas 162 133 610 460 seri 0;
#X obj 59 337 outlet;
#X obj 59 266 trigger bang anything;
#X obj 201 286 list;
#X obj 60 61 tgl 15 0 junk_to_hide_inlet ARDUINO_TEST_RESET 0 5 9 1
12 -260736 -1 -1 0 1;
#X obj 75 61 tgl 15 0 junk_to_hide_inlet ARDUINO_TEST_RESET 1 5 9 1
12 -260736 -1 -1 0 1;
#X obj 90 61 tgl 15 0 junk_to_hide_inlet ARDUINO_TEST_RESET 2 5 9 1
12 -260736 -1 -1 0 1;
#X msg 35 106 0 \$1;
#X msg 70 106 1 \$1;
#X msg 105 106 2 \$1;
#X msg 202 307 set \$1 \$2 \$3;
#X msg 59 210 digitalIns \$1 \$2;
#X connect 1 0 0 0;
#X connect 1 1 2 0;
#X connect 2 0 9 0;
#X connect 3 0 6 0;
#X connect 4 0 7 0;
#X connect 5 0 8 0;
#X connect 6 0 10 0;
#X connect 7 0 10 0;
#X connect 8 0 10 0;
#X connect 9 0 0 0;
#X connect 10 0 1 0;
#X coords 0 -1 1 1 45 16 1 60 60;
#X restore 95 118 pd seri;
#X obj 42 179 outlet;
#X connect 0 0 6 0;
#X connect 1 0 6 0;
#X connect 2 0 1 0;
#X connect 5 0 0 0;
#X restore 182 184 pd old analog/digital controls;
#X text 184 112 <-- get protocol version;
#X text 184 132 <-- get firmware name and version;
#X text 184 93 <-- get connection info;
#X text 180 224 <-- argument sets port #;
#X text 184 152 <-- list available serial devices;
#X text 202 365 digital inputs show up here -->;
#X text 8 277 analog inputs:;
#X obj 120 257 route analog digital string sysex;
#X msg 27 54 open 6;
#X floatatom 20 381 5 0 0 0 - - -;
#X obj 18 424 s val1;
#X floatatom 69 374 5 0 0 0 - - -;
#X obj 69 425 s val2;
#X floatatom 125 381 5 0 0 0 - - -;
#X obj 123 424 s val3;
#X obj -10 398 * 1;
#X connect 1 0 32 0;
#X connect 1 1 2 0;
#X connect 2 0 16 0;
#X connect 3 0 33 0;
#X connect 3 0 35 0;
#X connect 3 0 37 0;
#X connect 9 0 16 0;
#X connect 10 0 16 0;
#X connect 13 0 14 0;
#X connect 13 1 14 1;
#X connect 13 2 14 2;
#X connect 13 3 14 3;
#X connect 13 4 14 4;
#X connect 13 5 14 5;
#X connect 13 6 14 6;
#X connect 13 7 14 7;
#X connect 14 0 3 0;
#X connect 14 1 4 0;
#X connect 14 2 5 0;
#X connect 14 3 6 0;
#X connect 14 4 7 0;
#X connect 14 5 8 0;
#X connect 14 6 11 0;
#X connect 14 7 12 0;
#X connect 15 0 17 0;
#X connect 16 0 31 0;
#X connect 16 1 21 0;
#X connect 18 0 16 0;
#X connect 19 0 16 0;
#X connect 20 0 16 0;
#X connect 21 0 15 0;
#X connect 23 0 16 0;
#X connect 31 0 13 0;
#X connect 32 0 16 0;
#X connect 33 0 39 0;
#X connect 35 0 36 0;
#X connect 37 0 38 0;
#X connect 39 0 34 0;
#X restore -135 56 pd arduino;
#X obj -194 126 r val1;
#X obj -134 126 r val2;
#X obj -74 126 r val3;
#X connect 0 0 11 0;
#X connect 1 0 11 1;
#X connect 2 0 11 0;
#X connect 3 0 2 0;
#X connect 5 0 23 0;
#X connect 11 0 5 0;
#X connect 11 0 37 0;
#X connect 11 1 4 0;
#X connect 11 2 20 0;
#X connect 12 0 10 1;
#X connect 13 0 30 0;
#X connect 14 0 30 0;
#X connect 15 0 30 0;
#X connect 20 0 11 1;
#X connect 22 0 5 0;
#X connect 23 0 10 0;
#X connect 25 0 26 0;
#X connect 26 0 25 0;
#X connect 30 0 11 0;
#X connect 31 0 11 0;
#X connect 32 0 30 0;
#X connect 33 0 32 0;
#X connect 34 0 33 0;
#X connect 35 0 34 0;
#X connect 36 0 44 0;
#X connect 37 0 36 0;
#X connect 38 0 37 1;
#X connect 39 0 38 0;
#X connect 40 0 44 1;
#X connect 41 0 44 2;
#X connect 42 0 44 3;
#X connect 43 0 44 4;
#X connect 44 0 10 0;
#X connect 45 0 37 0;
