#N canvas 41 22 1108 751 10;
#N canvas 0 22 450 300 (subpatch) 0;
#X array table21 22272 float 0;
#X coords 0 1.02 22271 -1.02 100 130 1 0 0;
#X restore 275 459 graph;
#X obj 46 393 hip~ 5;
#X floatatom 12 112 0 0 0 0 - - -;
#X obj 12 166 * 441;
#X obj 12 265 +~ 1;
#X obj 269 345 adc~ 1;
#X obj 269 370 hip~ 5;
#X msg 284 392 bang;
#X obj 46 371 *~;
#X obj 130 246 line~;
#X obj 130 206 * 441;
#X floatatom 130 186 0 0 0 0 - - -;
#X obj 130 226 pack 0 100;
#X obj 46 322 +~;
#X obj 130 267 samphold~;
#X obj 12 205 samphold~;
#X obj 12 186 sig~;
#X obj 12 246 *~;
#X obj 182 297 r~ phase;
#X obj 12 57 s~ phase;
#X obj 70 184 r~ phase;
#X obj 28 226 r~ phase;
#X obj 188 247 r~ phase;
#X obj 62 159 s chunk-size;
#X floatatom 12 -76 0 0 0 0 - - -;
#X obj 62 139 * 0.01;
#X obj 23 -26 r chunk-size;
#X obj 23 -6 t b f;
#X obj 12 18 /;
#X obj 272 298 soundfiler;
#X obj 12 -96 loadbang;
#X obj 182 316 -~ 0.5;
#X obj 182 335 *~ 0.5;
#X obj 182 354 cos~;
#X obj 46 347 tabread4~ table21;
#X obj 12 -57 expr pow(2 \, $f1/120);
#X obj 12 38 phasor~;
#X obj 269 419 tabwrite~ table21;
#X text 46 -80 cambio de velocidad;
#X text 325 392 <-- grabar;
#X obj 272 220 openpanel;
#X obj 272 189 bng 30 250 50 0 empty empty empty 0 -6 0 8 -262144 -1
-1;
#X obj 272 272 soundfiler;
#X text 310 193 first load sound file;
#X msg 272 246 read -resize \$1 table21;
#X obj 227 10 vsl 60 128 1 1000 0 0 empty empty empty 0 -9 0 10 -257985
-1 -1 3059 1;
#X obj 287 10 vsl 60 128 0 200 0 0 empty empty empty 0 -9 0 10 -4034
-1 -1 1788 1;
#X obj 347 10 vsl 60 128 0 50 0 0 empty empty empty 0 -9 0 10 -4032
-1 -1 0 1;
#X obj 227 -42 r val1;
#X obj 287 -42 r val2;
#X obj 347 -42 r val3;
#X obj 43 438 output~;
#X obj 227 146 s val1a;
#X obj 287 146 s val2a;
#X obj 347 145 s val3a;
#X obj 71 -95 r val1a;
#X obj 12 92 r val2a;
#X obj 158 164 r val3a;
#X obj 317 357 bng 30 250 50 0 empty empty empty 0 -6 0 8 -262144 -1
-1;
#N canvas 474 102 493 495 arduino 0;
#X obj 21 52 cnv 15 60 22 empty empty empty 20 12 0 14 -253938 -66577
0;
#N canvas 146 163 525 433 serin 0;
#X obj 180 61 cnv 15 15 15 empty \$0-number-canvas 3 4 8 0 14 -233017
-1 0;
#X obj 200 225 s \$0-number-canvas;
#X obj 60 61 hradio 15 1 1 8 empty empty empty 0 -6 0 8 -225271 -1
-1 3;
#X obj 60 13 inlet;
#X msg 200 202 label \$1;
#X obj 200 180 makefilename %d;
#X obj 59 108 int;
#X msg 59 206 open \$1;
#X obj 59 377 outlet;
#X msg 201 306 set \$1 \$2;
#X obj 59 266 trigger bang anything;
#X obj 201 286 list;
#X obj 383 383 outlet;
#X obj 384 22 netreceive 34567;
#X obj 477 43 tgl 15 0 empty empty empty 0 -6 0 10 -262144 -1 -1 0
1;
#X obj 384 41 bng 15 250 50 0 empty empty empty 0 -6 0 10 -262144 -1
-1;
#X obj 187 24 delay 15000;
#X text 345 379 close;
#X text 209 4 for open/close automation in Makefile;
#X obj 184 95 bang;
#X obj 184 137 send ARDUINO_TEST_RESET;
#X msg 184 116 set 0;
#X connect 2 0 6 0;
#X connect 2 0 19 0;
#X connect 3 0 2 0;
#X connect 4 0 1 0;
#X connect 5 0 4 0;
#X connect 6 0 5 0;
#X connect 6 0 7 0;
#X connect 7 0 10 0;
#X connect 9 0 8 0;
#X connect 10 0 8 0;
#X connect 10 1 11 0;
#X connect 11 0 9 0;
#X connect 13 0 15 0;
#X connect 13 1 14 0;
#X connect 15 0 16 0;
#X connect 15 0 12 0;
#X connect 16 0 2 0;
#X connect 19 0 21 0;
#X connect 21 0 20 0;
#X coords 0 -1 1 1 136 17 1 60 60;
#X restore 27 31 pd serin;
#X msg 87 54 close;
#X floatatom 21 334 5 0 0 3 a0 - -;
#X floatatom 67 334 5 0 0 3 a1 - -;
#X floatatom 113 334 5 0 0 3 a2 - -;
#X floatatom 159 334 5 0 0 3 a3 - -;
#X floatatom 205 334 5 0 0 3 a4 - -;
#X floatatom 251 334 5 0 0 3 a5 - -;
#X msg 120 94 info;
#X msg 120 114 version;
#X floatatom 297 334 5 0 0 3 a6 - -;
#X floatatom 343 334 5 0 0 3 a7 - -;
#X obj 120 277 route 0 1 2 3 4 5 6 7;
#N canvas 981 48 499 396 display 0;
#X obj 6 7 inlet;
#X obj 6 28 mapping/resample 100;
#X obj 6 50 outlet;
#X obj 54 50 inlet;
#X obj 54 71 mapping/resample 100;
#X obj 54 93 outlet;
#X obj 103 93 inlet;
#X obj 103 114 mapping/resample 100;
#X obj 103 136 outlet;
#X obj 151 136 inlet;
#X obj 151 157 mapping/resample 100;
#X obj 151 179 outlet;
#X obj 200 179 inlet;
#X obj 200 200 mapping/resample 100;
#X obj 200 222 outlet;
#X obj 247 222 inlet;
#X obj 247 243 mapping/resample 100;
#X obj 247 265 outlet;
#X obj 295 265 inlet;
#X obj 295 286 mapping/resample 100;
#X obj 295 308 outlet;
#X obj 345 308 inlet;
#X obj 345 329 mapping/resample 100;
#X obj 345 351 outlet;
#X obj 60 290 receive ARDUINO_TEST_RESET;
#X connect 0 0 1 0;
#X connect 1 0 2 0;
#X connect 3 0 4 0;
#X connect 4 0 5 0;
#X connect 6 0 7 0;
#X connect 7 0 8 0;
#X connect 9 0 10 0;
#X connect 10 0 11 0;
#X connect 12 0 13 0;
#X connect 13 0 14 0;
#X connect 15 0 16 0;
#X connect 16 0 17 0;
#X connect 18 0 19 0;
#X connect 19 0 20 0;
#X connect 21 0 22 0;
#X connect 22 0 23 0;
#X connect 24 0 22 0;
#X connect 24 0 19 0;
#X connect 24 0 16 0;
#X connect 24 0 13 0;
#X connect 24 0 10 0;
#X connect 24 0 7 0;
#X connect 24 0 4 0;
#X connect 24 0 1 0;
#X restore 44 308 pd display values without pegging the CPU;
#N canvas 3 48 451 224 ver 0;
#X obj 23 7 inlet;
#X obj 250 100 cnv 15 145 17 empty \$0-version_cnv Firmata-2.3 4 10
0 12 -203904 -1 0;
#X obj 23 157 send \$0-version_cnv;
#X msg 23 132 label \$1;
#X obj 48 103 symbol;
#X obj 38 77 loadbang;
#X msg 96 78 bang;
#X obj 309 163 outlet;
#X obj 23 52 zexy/makesymbol Firmata-%s.%s;
#X obj 23 29 route version bang;
#X connect 0 0 9 0;
#X connect 3 0 2 0;
#X connect 4 0 3 0;
#X connect 5 0 4 0;
#X connect 6 0 4 0;
#X connect 8 0 3 0;
#X connect 9 0 8 0;
#X connect 9 1 7 0;
#X connect 9 1 6 0;
#X connect 9 2 7 0;
#X coords 0 -1 1 1 145 17 1 250 100;
#X restore 176 51 pd ver;
#X obj 120 225 arduino 1;
#N canvas 649 518 411 212 firmware 0;
#X obj 123 2 inlet;
#X obj 250 100 cnv 15 145 17 empty \$0-firmware_cnv StandardFirmata.ino-2.3
4 10 0 12 -232576 -66577 0;
#X msg 123 156 label \$1;
#X obj 148 127 symbol;
#X obj 138 101 loadbang;
#X msg 196 102 bang;
#X obj 123 181 send \$0-firmware_cnv;
#X obj 123 24 route firmware;
#X obj 18 181 print Firmware;
#X obj 123 49 list;
#X obj 123 80 zexy/makesymbol %s-%s.%s;
#X obj 18 151 list trim;
#X obj 204 45 route bang;
#X connect 0 0 7 0;
#X connect 2 0 6 0;
#X connect 3 0 2 0;
#X connect 4 0 3 0;
#X connect 5 0 3 0;
#X connect 7 0 9 0;
#X connect 7 1 12 0;
#X connect 9 0 10 0;
#X connect 10 0 2 0;
#X connect 10 0 11 0;
#X connect 11 0 8 0;
#X connect 12 0 5 0;
#X coords 0 -1 1 1 145 17 1 250 100;
#X restore 176 71 pd firmware;
#X msg 120 154 devices;
#X msg 120 134 firmware;
#N canvas 205 22 593 390 strings 0;
#X obj -178 287 outlet;
#X obj -142 101 moocow/any2string;
#X symbolatom -92 48 10 0 0 0 - - -;
#X obj -119 179 pddp/print;
#X obj -92 68 list trim;
#X msg -175 39 test;
#X msg -139 40 TEST;
#X obj -142 130 cyclone/prepend string;
#X obj -313 102 moocow/any2string;
#X symbolatom -263 49 10 0 0 0 - - -;
#X obj -314 202 pddp/print;
#X obj -263 69 list trim;
#X msg -346 40 test;
#X msg -310 41 TEST;
#X obj -313 153 cyclone/prepend sysex;
#X obj -313 131 cyclone/prepend 40;
#X msg 66 117 samplingInterval \$1;
#X obj 69 93 hsl 128 15 0 127 0 0 empty empty empty -2 -8 0 10 -262144
-1 -1 0 1;
#X floatatom 27 117 5 0 0 0 - - -;
#X connect 1 0 7 0;
#X connect 2 0 4 0;
#X connect 4 0 1 0;
#X connect 5 0 1 0;
#X connect 6 0 1 0;
#X connect 7 0 3 0;
#X connect 7 0 0 0;
#X connect 8 0 15 0;
#X connect 9 0 11 0;
#X connect 11 0 8 0;
#X connect 12 0 8 0;
#X connect 13 0 8 0;
#X connect 14 0 0 0;
#X connect 14 0 10 0;
#X connect 15 0 14 0;
#X connect 16 0 0 0;
#X connect 17 0 16 0;
#X connect 17 0 18 0;
#X restore 182 207 pd strings and special messages;
#N canvas 626 98 404 287 device 0;
#X obj 35 60 inlet;
#X obj 35 118 route open port ports;
#X obj 35 169 tgl 15 0 empty empty open -3 20 0 10 -262144 -1 -1 0
1;
#X floatatom 76 170 5 0 0 3 port - -;
#X obj 117 170 print comport_ports;
#X obj 252 170 outlet;
#X obj 235 74 receive ARDUINO_TEST_RESET;
#X obj 235 97 bang;
#X connect 0 0 1 0;
#X connect 1 0 2 0;
#X connect 1 1 3 0;
#X connect 1 2 4 0;
#X connect 1 3 5 0;
#X connect 6 0 7 0;
#X connect 7 0 5 0;
#X restore 176 29 pd device info;
#X text 268 29 <- open to see info;
#N canvas 176 285 450 300 old 0;
#X msg 95 138 digitalIns 0 0;
#X msg 88 77 analogIns 0 1;
#N canvas 162 133 610 460 serin 0;
#X obj 59 337 outlet;
#X obj 59 266 trigger bang anything;
#X obj 201 286 list;
#X obj 60 61 tgl 15 0 junk_to_hide_inlet ARDUINO_TEST_RESET 0 5 9 1
12 -262130 -1 -1 1 1;
#X obj 75 61 tgl 15 0 junk_to_hide_inlet ARDUINO_TEST_RESET 1 5 9 1
12 -262130 -1 -1 1 1;
#X obj 90 61 tgl 15 0 junk_to_hide_inlet ARDUINO_TEST_RESET 2 5 9 1
12 -262130 -1 -1 1 1;
#X obj 105 61 tgl 15 0 junk_to_hide_inlet ARDUINO_TEST_RESET 3 5 9
1 12 -262130 -1 -1 0 1;
#X obj 120 61 tgl 15 0 junk_to_hide_inlet ARDUINO_TEST_RESET 4 5 9
1 12 -262130 -1 -1 0 1;
#X obj 135 61 tgl 15 0 junk_to_hide_inlet ARDUINO_TEST_RESET 5 5 9
1 12 -262130 -1 -1 0 1;
#X obj 150 61 tgl 15 0 junk_to_hide_inlet ARDUINO_TEST_RESET 6 5 9
1 12 -262130 -1 -1 0 1;
#X obj 165 61 tgl 15 0 junk_to_hide_inlet ARDUINO_TEST_RESET 7 5 9
1 12 -262130 -1 -1 0 1;
#X msg 59 210 analogIns \$1 \$2;
#X msg 35 106 0 \$1;
#X msg 70 106 1 \$1;
#X msg 105 106 2 \$1;
#X msg 140 106 3 \$1;
#X msg 175 106 4 \$1;
#X msg 210 106 5 \$1;
#X msg 245 106 6 \$1;
#X msg 280 106 7 \$1;
#X msg 202 307 set \$1 \$2 \$3;
#X connect 1 0 0 0;
#X connect 1 1 2 0;
#X connect 2 0 20 0;
#X connect 3 0 12 0;
#X connect 4 0 13 0;
#X connect 5 0 14 0;
#X connect 6 0 15 0;
#X connect 7 0 16 0;
#X connect 8 0 17 0;
#X connect 9 0 18 0;
#X connect 10 0 19 0;
#X connect 11 0 1 0;
#X connect 12 0 11 0;
#X connect 13 0 11 0;
#X connect 14 0 11 0;
#X connect 15 0 11 0;
#X connect 16 0 11 0;
#X connect 17 0 11 0;
#X connect 18 0 11 0;
#X connect 19 0 11 0;
#X connect 20 0 0 0;
#X coords 0 -1 1 1 120 16 1 60 60;
#X restore 88 55 pd serin;
#X text 87 38 which analogIns to enable:;
#X text 94 101 which digital ports to enable:;
#N canvas 162 133 610 460 seri 0;
#X obj 59 337 outlet;
#X obj 59 266 trigger bang anything;
#X obj 201 286 list;
#X obj 60 61 tgl 15 0 junk_to_hide_inlet ARDUINO_TEST_RESET 0 5 9 1
12 -260736 -1 -1 0 1;
#X obj 75 61 tgl 15 0 junk_to_hide_inlet ARDUINO_TEST_RESET 1 5 9 1
12 -260736 -1 -1 0 1;
#X obj 90 61 tgl 15 0 junk_to_hide_inlet ARDUINO_TEST_RESET 2 5 9 1
12 -260736 -1 -1 0 1;
#X msg 35 106 0 \$1;
#X msg 70 106 1 \$1;
#X msg 105 106 2 \$1;
#X msg 202 307 set \$1 \$2 \$3;
#X msg 59 210 digitalIns \$1 \$2;
#X connect 1 0 0 0;
#X connect 1 1 2 0;
#X connect 2 0 9 0;
#X connect 3 0 6 0;
#X connect 4 0 7 0;
#X connect 5 0 8 0;
#X connect 6 0 10 0;
#X connect 7 0 10 0;
#X connect 8 0 10 0;
#X connect 9 0 0 0;
#X connect 10 0 1 0;
#X coords 0 -1 1 1 45 16 1 60 60;
#X restore 95 118 pd seri;
#X obj 42 179 outlet;
#X connect 0 0 6 0;
#X connect 1 0 6 0;
#X connect 2 0 1 0;
#X connect 5 0 0 0;
#X restore 182 184 pd old analog/digital controls;
#X text 184 112 <-- get protocol version;
#X text 184 132 <-- get firmware name and version;
#X text 184 93 <-- get connection info;
#X text 180 224 <-- argument sets port #;
#X text 184 152 <-- list available serial devices;
#X text 202 365 digital inputs show up here -->;
#X text 8 277 analog inputs:;
#X obj 120 257 route analog digital string sysex;
#X msg 27 54 open 3;
#X floatatom 20 381 5 0 0 0 - - -;
#X obj 18 424 s val1;
#X obj 19 401 * 800;
#X floatatom 71 382 5 0 0 0 - - -;
#X obj 69 425 s val2;
#X floatatom 125 381 5 0 0 0 - - -;
#X obj 123 424 s val3;
#X obj 70 402 * 900;
#X obj 124 401 * 1000;
#X floatatom 181 379 5 0 0 0 - - -;
#X obj 180 399 * 800;
#X floatatom 232 380 5 0 0 0 - - -;
#X floatatom 286 379 5 0 0 0 - - -;
#X obj 231 400 * 900;
#X obj 285 399 * 1000;
#X obj 179 422 s val4;
#X obj 230 423 s val5;
#X obj 284 422 s val6;
#X connect 1 0 32 0;
#X connect 1 1 2 0;
#X connect 2 0 16 0;
#X connect 3 0 33 0;
#X connect 4 0 36 0;
#X connect 5 0 38 0;
#X connect 6 0 42 0;
#X connect 7 0 44 0;
#X connect 8 0 45 0;
#X connect 9 0 16 0;
#X connect 10 0 16 0;
#X connect 13 0 14 0;
#X connect 13 1 14 1;
#X connect 13 2 14 2;
#X connect 13 3 14 3;
#X connect 13 4 14 4;
#X connect 13 5 14 5;
#X connect 13 6 14 6;
#X connect 13 7 14 7;
#X connect 14 0 3 0;
#X connect 14 1 4 0;
#X connect 14 2 5 0;
#X connect 14 3 6 0;
#X connect 14 4 7 0;
#X connect 14 5 8 0;
#X connect 14 6 11 0;
#X connect 14 7 12 0;
#X connect 15 0 17 0;
#X connect 16 0 31 0;
#X connect 16 1 21 0;
#X connect 18 0 16 0;
#X connect 19 0 16 0;
#X connect 20 0 16 0;
#X connect 21 0 15 0;
#X connect 23 0 16 0;
#X connect 31 0 13 0;
#X connect 32 0 16 0;
#X connect 33 0 35 0;
#X connect 35 0 34 0;
#X connect 36 0 40 0;
#X connect 38 0 41 0;
#X connect 40 0 37 0;
#X connect 41 0 39 0;
#X connect 42 0 43 0;
#X connect 43 0 48 0;
#X connect 44 0 46 0;
#X connect 45 0 47 0;
#X connect 46 0 49 0;
#X connect 47 0 50 0;
#X restore 540 -120 pd arduino;
#N canvas 0 22 450 300 (subpatch) 0;
#X array table22 54144 float 0;
#X coords 0 1.02 54143 -1.02 100 130 1 0 0;
#X restore 723 464 graph;
#X obj 494 398 hip~ 5;
#X floatatom 460 117 0 0 0 0 - - -;
#X obj 460 171 * 441;
#X obj 460 270 +~ 1;
#X obj 717 350 adc~ 1;
#X obj 717 375 hip~ 5;
#X msg 732 397 bang;
#X obj 494 376 *~;
#X obj 578 251 line~;
#X obj 578 211 * 441;
#X floatatom 578 191 0 0 0 0 - - -;
#X obj 578 231 pack 0 100;
#X obj 494 327 +~;
#X obj 578 272 samphold~;
#X obj 460 210 samphold~;
#X obj 460 191 sig~;
#X obj 460 251 *~;
#X obj 630 302 r~ phase;
#X obj 460 62 s~ phase;
#X obj 518 189 r~ phase;
#X obj 476 231 r~ phase;
#X obj 636 252 r~ phase;
#X obj 510 164 s chunk-size;
#X floatatom 460 -71 0 0 0 0 - - -;
#X obj 510 144 * 0.01;
#X obj 471 -21 r chunk-size;
#X obj 471 -1 t b f;
#X obj 460 23 /;
#X obj 720 303 soundfiler;
#X obj 460 -91 loadbang;
#X obj 630 321 -~ 0.5;
#X obj 630 340 *~ 0.5;
#X obj 630 359 cos~;
#X obj 460 -52 expr pow(2 \, $f1/120);
#X obj 460 43 phasor~;
#X obj 717 424 tabwrite~ table21;
#X text 516 -74 cambio de velocidad;
#X text 773 397 <-- grabar;
#X obj 720 225 openpanel;
#X obj 720 194 bng 30 250 50 0 empty empty empty 0 -6 0 8 -262144 -1
-1;
#X obj 720 277 soundfiler;
#X text 758 198 first load sound file;
#X obj 675 15 vsl 60 128 1 1000 0 0 empty empty empty 0 -9 0 10 -257985
-1 -1 0 1;
#X obj 735 15 vsl 60 128 0 200 0 0 empty empty empty 0 -9 0 10 -4034
-1 -1 0 1;
#X obj 795 15 vsl 60 128 0 50 0 0 empty empty empty 0 -9 0 10 -4032
-1 -1 0 1;
#X obj 491 443 output~;
#X obj 765 362 bng 30 250 50 0 empty empty empty 0 -6 0 8 -262144 -1
-1;
#X obj 675 -37 r val4;
#X obj 735 -37 r val5;
#X obj 795 -37 r val6;
#X obj 675 151 s val4a;
#X obj 735 151 s val5a;
#X obj 795 150 s val6a;
#X obj 519 -90 r val4a;
#X obj 460 97 r val5a;
#X obj 606 169 r val6a;
#X obj 494 352 tabread4~ table22;
#X msg 720 251 read -resize \$1 table22;
#X connect 1 0 51 0;
#X connect 1 0 51 1;
#X connect 2 0 3 0;
#X connect 2 0 25 0;
#X connect 3 0 16 0;
#X connect 4 0 13 0;
#X connect 5 0 6 0;
#X connect 6 0 37 0;
#X connect 7 0 37 0;
#X connect 8 0 1 0;
#X connect 9 0 14 0;
#X connect 10 0 12 0;
#X connect 11 0 10 0;
#X connect 12 0 9 0;
#X connect 13 0 34 0;
#X connect 14 0 13 1;
#X connect 15 0 17 0;
#X connect 16 0 15 0;
#X connect 17 0 4 0;
#X connect 18 0 31 0;
#X connect 20 0 15 1;
#X connect 21 0 17 1;
#X connect 22 0 14 1;
#X connect 24 0 35 0;
#X connect 25 0 23 0;
#X connect 26 0 27 0;
#X connect 27 0 28 0;
#X connect 27 1 28 1;
#X connect 28 0 36 0;
#X connect 30 0 24 0;
#X connect 31 0 32 0;
#X connect 32 0 33 0;
#X connect 33 0 8 1;
#X connect 34 0 8 0;
#X connect 35 0 28 0;
#X connect 36 0 19 0;
#X connect 40 0 44 0;
#X connect 41 0 40 0;
#X connect 42 0 29 0;
#X connect 44 0 42 0;
#X connect 45 0 52 0;
#X connect 46 0 53 0;
#X connect 47 0 54 0;
#X connect 48 0 45 0;
#X connect 49 0 46 0;
#X connect 50 0 47 0;
#X connect 55 0 24 0;
#X connect 56 0 2 0;
#X connect 57 0 11 0;
#X connect 58 0 7 0;
#X connect 61 0 106 0;
#X connect 61 0 106 1;
#X connect 62 0 63 0;
#X connect 62 0 85 0;
#X connect 63 0 76 0;
#X connect 64 0 73 0;
#X connect 65 0 66 0;
#X connect 66 0 96 0;
#X connect 67 0 96 0;
#X connect 68 0 61 0;
#X connect 69 0 74 0;
#X connect 70 0 72 0;
#X connect 71 0 70 0;
#X connect 72 0 69 0;
#X connect 73 0 117 0;
#X connect 74 0 73 1;
#X connect 75 0 77 0;
#X connect 76 0 75 0;
#X connect 77 0 64 0;
#X connect 78 0 91 0;
#X connect 80 0 75 1;
#X connect 81 0 77 1;
#X connect 82 0 74 1;
#X connect 84 0 94 0;
#X connect 85 0 83 0;
#X connect 86 0 87 0;
#X connect 87 0 88 0;
#X connect 87 1 88 1;
#X connect 88 0 95 0;
#X connect 90 0 84 0;
#X connect 91 0 92 0;
#X connect 92 0 93 0;
#X connect 93 0 68 1;
#X connect 94 0 88 0;
#X connect 95 0 79 0;
#X connect 99 0 118 0;
#X connect 100 0 99 0;
#X connect 101 0 89 0;
#X connect 103 0 111 0;
#X connect 104 0 112 0;
#X connect 105 0 113 0;
#X connect 107 0 67 0;
#X connect 108 0 103 0;
#X connect 109 0 104 0;
#X connect 110 0 105 0;
#X connect 114 0 84 0;
#X connect 115 0 62 0;
#X connect 116 0 71 0;
#X connect 117 0 68 0;
#X connect 118 0 101 0;
