#N canvas 456 22 1043 752 10;
#N canvas 0 22 450 300 (subpatch) 0;
#X array table21 2.36285e+06 float 0;
#X coords 0 1.02 2.36285e+06 -1.02 400 430 1 0 0;
#X restore 461 -91 graph;
#X obj 46 393 hip~ 5;
#X floatatom 12 112 0 0 0 0 - - -;
#X obj 12 166 * 441;
#X obj 12 265 +~ 1;
#X obj 642 353 adc~ 1;
#X obj 642 378 hip~ 5;
#X msg 657 400 bang;
#X obj 46 371 *~;
#X obj 130 246 line~;
#X obj 130 206 * 441;
#X floatatom 130 186 0 0 0 0 - - -;
#X obj 130 226 pack 0 100;
#X obj 46 322 +~;
#X obj 130 267 samphold~;
#X obj 12 205 samphold~;
#X obj 12 186 sig~;
#X obj 12 246 *~;
#X obj 182 297 r~ phase;
#X obj 12 57 s~ phase;
#X obj 70 184 r~ phase;
#X obj 28 226 r~ phase;
#X obj 188 247 r~ phase;
#X obj 62 159 s chunk-size;
#X floatatom 12 -76 0 0 0 0 - - -;
#X obj 62 139 * 0.01;
#X obj 23 -26 r chunk-size;
#X obj 23 -6 t b f;
#X obj 12 18 /;
#X obj 469 455 soundfiler;
#X obj 12 -96 loadbang;
#X obj 182 316 -~ 0.5;
#X obj 182 335 *~ 0.5;
#X obj 182 354 cos~;
#X obj 46 347 tabread4~ table21;
#X obj 12 -57 expr pow(2 \, $f1/120);
#X obj 12 38 phasor~;
#X obj 642 427 tabwrite~ table21;
#X text 46 -80 cambio de velocidad;
#X text 698 400 <-- grabar;
#X obj 469 377 openpanel;
#X obj 469 346 bng 30 250 50 0 empty empty empty 0 -6 0 8 -262144 -1
-1;
#X obj 469 429 soundfiler;
#X text 506 350 first load sound file;
#X msg 469 403 read -resize \$1 table21;
#X obj 178 -98 gemhead;
#X obj 177 104 pix_texture;
#X floatatom 358 129 5 0 0 0 - - -;
#X floatatom 313 129 5 0 0 0 - - -;
#X obj 178 -19 pix_grey;
#X floatatom 265 129 5 0 0 0 - - -;
#X obj 177 6 pix_blob 4;
#X obj 262 223 vsl 60 128 1 1000 0 0 empty empty empty 0 -9 0 10 -257985
-1 -1 3262 1;
#X obj 322 223 vsl 60 128 0 200 0 0 empty empty empty 0 -9 0 10 -4034
-1 -1 5886 1;
#X obj 382 223 vsl 60 128 0 300 0 0 empty empty empty 0 -9 0 10 -4032
-1 -1 2315 1;
#X obj 263 172 s val1;
#X obj 262 202 r val1;
#X obj 313 172 s val2;
#X obj 322 202 r val2;
#X obj 382 202 r val3;
#X obj 358 171 s val3;
#X msg 357 -60 destroy;
#X msg 356 -37 reset;
#X obj 357 33 gemwin;
#X obj 371 12 tgl 15 0 empty empty empty 17 7 0 10 -262144 -1 -1 1
1;
#X msg 356 -83 create;
#X obj 177 130 square 5;
#X obj 414 -86 bng 30 250 50 0 empty empty ON 9 15 0 10 -4034 -1 -1
;
#X obj 414 -50 bng 30 250 50 0 empty empty OFF 7 15 0 10 -4032 -1 -1
;
#X obj 43 438 output~;
#X obj 262 359 s val1a;
#X obj 322 359 s val2a;
#X obj 382 358 s val3a;
#X obj 71 -95 r val1a;
#X obj 12 92 r val2a;
#X obj 158 164 r val3a;
#X obj 178 -40 pix_video;
#X obj 693 353 bng 30 250 50 0 empty empty empty 0 -6 0 8 -262144 -1
-1;
#X obj 264 149 * 100;
#X obj 359 149 * 100;
#X obj 313 149 * 50;
#X msg 178 -77 enumerate;
#X msg 178 -59 dialog;
#X msg 642 454 \; table21 const 0 \;;
#X connect 1 0 69 0;
#X connect 1 0 69 1;
#X connect 2 0 3 0;
#X connect 2 0 25 0;
#X connect 3 0 16 0;
#X connect 4 0 13 0;
#X connect 5 0 6 0;
#X connect 6 0 37 0;
#X connect 7 0 37 0;
#X connect 8 0 1 0;
#X connect 9 0 14 0;
#X connect 10 0 12 0;
#X connect 11 0 10 0;
#X connect 12 0 9 0;
#X connect 13 0 34 0;
#X connect 14 0 13 1;
#X connect 15 0 17 0;
#X connect 16 0 15 0;
#X connect 17 0 4 0;
#X connect 18 0 31 0;
#X connect 20 0 15 1;
#X connect 21 0 17 1;
#X connect 22 0 14 1;
#X connect 24 0 35 0;
#X connect 25 0 23 0;
#X connect 26 0 27 0;
#X connect 27 0 28 0;
#X connect 27 1 28 1;
#X connect 28 0 36 0;
#X connect 30 0 24 0;
#X connect 31 0 32 0;
#X connect 32 0 33 0;
#X connect 33 0 8 1;
#X connect 34 0 8 0;
#X connect 35 0 28 0;
#X connect 36 0 19 0;
#X connect 40 0 44 0;
#X connect 41 0 40 0;
#X connect 42 0 29 0;
#X connect 44 0 42 0;
#X connect 45 0 76 0;
#X connect 46 0 66 0;
#X connect 47 0 79 0;
#X connect 48 0 80 0;
#X connect 49 0 51 0;
#X connect 50 0 78 0;
#X connect 51 0 46 0;
#X connect 51 1 50 0;
#X connect 51 2 48 0;
#X connect 51 3 47 0;
#X connect 52 0 70 0;
#X connect 53 0 71 0;
#X connect 54 0 72 0;
#X connect 56 0 52 0;
#X connect 58 0 53 0;
#X connect 59 0 54 0;
#X connect 61 0 63 0;
#X connect 62 0 63 0;
#X connect 64 0 63 0;
#X connect 65 0 63 0;
#X connect 67 0 65 0;
#X connect 68 0 61 0;
#X connect 73 0 24 0;
#X connect 74 0 2 0;
#X connect 75 0 11 0;
#X connect 76 0 49 0;
#X connect 77 0 7 0;
#X connect 78 0 55 0;
#X connect 79 0 60 0;
#X connect 80 0 57 0;
#X connect 81 0 76 0;
#X connect 82 0 76 0;
