#N canvas 567 170 903 507 10;
#X obj 17 16 tgl 15 0 empty empty empty 17 7 0 10 -262144 -1 -1 1 1
;
#X msg 17 47 \; pd dsp \$1;
#X obj 146 14 bng 15 250 50 0 empty empty empty 17 7 0 10 -262144 -1
-1;
#X obj 146 40 openpanel;
#X obj 146 93 soundfiler;
#X floatatom 158 126 15 0 0 0 - - -;
#X obj 158 152 s samplesSize;
#X obj 147 179 expr 44100 / $f1;
#X floatatom 157 208 15 0 0 0 - - -;
#X obj 147 236 phasor~;
#X obj 147 274 *~;
#X obj 179 258 r sampleSize;
#N canvas 0 0 450 300 (subpatch) 0;
#X array channelL 352800 float 2;
#X coords 0 1 352800 -1 100 100 1;
#X restore 402 16 graph;
#N canvas 0 22 450 300 (subpatch) 0;
#X array channelR 352800 float 2;
#X coords 0 1 352800 -1 100 100 1;
#X restore 404 141 graph;
#X text 257 128 < Tamano del sample;
#X text 170 12 < Carga el archivo;
#X text 38 14 < audio On/Off;
#X obj 147 376 *~;
#X obj 191 376 *~;
#X obj 147 409 dac~ 1 2;
#X obj 320 343 vsl 15 30 0 1 0 0 empty empty empty 0 -9 0 10 -262144
-1 -1 0 1;
#X msg 146 66 read -resize \$1 channelL channelR;
#X obj 168 302 tabread4~ channelL;
#X obj 147 332 tabread4~ channelR;
#X connect 0 0 1 0;
#X connect 2 0 3 0;
#X connect 3 0 21 0;
#X connect 4 0 5 0;
#X connect 4 0 7 0;
#X connect 5 0 6 0;
#X connect 7 0 8 0;
#X connect 7 0 9 0;
#X connect 9 0 10 0;
#X connect 10 0 22 0;
#X connect 10 0 23 0;
#X connect 11 0 10 1;
#X connect 17 0 19 0;
#X connect 18 0 19 1;
#X connect 20 0 18 1;
#X connect 20 0 17 1;
#X connect 21 0 4 0;
#X connect 22 0 18 0;
#X connect 23 0 17 0;
