#N canvas 24 22 1239 747 10;
#N canvas 677 112 450 300 (subpatch) 0;
#X obj 13 -97 openpanel;
#X obj 11 5 bng 15 250 50 0 empty empty empty 17 7 0 10 -4032 -1 -1
;
#X obj 13 -38 soundfiler;
#X msg 13 -67 read -resize \$1 sample1;
#X floatatom 11 24 10 0 0 0 - - -;
#N canvas 0 22 450 300 (subpatch) 0;
#X array sample1 352800 float 2;
#X coords 0 1 352800 -1 100 100 1;
#X restore 9 56 graph;
#X text 31 3 <<carga audio;
#X obj 209 80 bng 15 250 50 0 empty empty empty 17 7 0 10 -262144 -1
-1;
#X obj 209 108 tabplay~ sample1;
#X obj 209 132 hip~ 5;
#X obj 205 164 dac~;
#X floatatom 83 24 5 0 201 0 - - -;
#X floatatom 261 4 5 0 0 0 - - -;
#X obj 217 4 > 200;
#X obj 244 31 spigot;
#X floatatom 210 56 5 0 0 0 - - -;
#X msg 269 79 bang;
#X obj 247 56 bng 15 250 50 0 empty empty empty 17 7 0 10 -262144 -1
-1;
#X obj 269 55 t b;
#X obj 83 -38 inlet;
#X connect 0 0 3 0;
#X connect 1 0 0 0;
#X connect 2 0 4 0;
#X connect 3 0 2 0;
#X connect 7 0 8 0;
#X connect 8 0 9 0;
#X connect 9 0 10 0;
#X connect 9 0 10 1;
#X connect 11 0 13 0;
#X connect 12 0 14 0;
#X connect 12 0 14 1;
#X connect 13 0 12 0;
#X connect 14 0 15 0;
#X connect 14 0 17 0;
#X connect 16 0 7 0;
#X connect 17 0 18 0;
#X connect 18 0 16 0;
#X connect 19 0 11 0;
#X coords 0 1 100 -1 120 160 1 0 0;
#X restore -13 -209 graph;
#X floatatom -13 -232 5 0 0 0 - - -;
#X text 24 -233 <<conecta arduino;
#N canvas 677 112 450 300 (subpatch) 0;
#X obj 13 -97 openpanel;
#X obj 11 5 bng 15 250 50 0 empty empty empty 17 7 0 10 -4032 -1 -1
;
#X obj 13 -38 soundfiler;
#X floatatom 11 24 10 0 0 0 - - -;
#N canvas 0 22 450 300 (subpatch) 0;
#X array sample2 352800 float 2;
#X coords 0 1 352800 -1 100 100 1;
#X restore 9 56 graph;
#X text 31 3 <<carga audio;
#X obj 209 80 bng 15 250 50 0 empty empty empty 17 7 0 10 -262144 -1
-1;
#X obj 209 132 hip~ 5;
#X obj 205 164 dac~;
#X floatatom 83 24 5 0 201 0 - - -;
#X floatatom 261 4 5 0 0 0 - - -;
#X obj 217 4 > 200;
#X obj 244 31 spigot;
#X floatatom 210 56 5 0 0 0 - - -;
#X msg 269 79 bang;
#X obj 247 56 bng 15 250 50 0 empty empty empty 17 7 0 10 -262144 -1
-1;
#X obj 269 55 t b;
#X obj 83 -38 inlet;
#X msg 13 -67 read -resize \$1 sample2;
#X obj 209 108 tabplay~ sample2;
#X connect 0 0 18 0;
#X connect 1 0 0 0;
#X connect 2 0 3 0;
#X connect 6 0 19 0;
#X connect 7 0 8 0;
#X connect 7 0 8 1;
#X connect 9 0 11 0;
#X connect 10 0 12 0;
#X connect 10 0 12 1;
#X connect 11 0 10 0;
#X connect 12 0 13 0;
#X connect 12 0 15 0;
#X connect 14 0 6 0;
#X connect 15 0 16 0;
#X connect 16 0 14 0;
#X connect 17 0 9 0;
#X connect 18 0 2 0;
#X connect 19 0 7 0;
#X coords 0 1 100 -1 120 160 1 0 0;
#X restore 144 -209 graph;
#X floatatom 144 -232 5 0 0 0 - - -;
#X text 181 -233 <<conecta arduino;
#N canvas 677 112 450 300 (subpatch) 0;
#X obj 13 -97 openpanel;
#X obj 11 5 bng 15 250 50 0 empty empty empty 17 7 0 10 -4032 -1 -1
;
#X obj 13 -38 soundfiler;
#X floatatom 11 24 10 0 0 0 - - -;
#N canvas 0 22 450 300 (subpatch) 0;
#X array sample3 352800 float 2;
#X coords 0 1 352800 -1 100 100 1;
#X restore 9 56 graph;
#X text 31 3 <<carga audio;
#X obj 209 80 bng 15 250 50 0 empty empty empty 17 7 0 10 -262144 -1
-1;
#X obj 209 132 hip~ 5;
#X obj 205 164 dac~;
#X floatatom 83 24 5 0 201 0 - - -;
#X floatatom 261 4 5 0 0 0 - - -;
#X obj 217 4 > 200;
#X obj 244 31 spigot;
#X floatatom 210 56 5 0 0 0 - - -;
#X msg 269 79 bang;
#X obj 247 56 bng 15 250 50 0 empty empty empty 17 7 0 10 -262144 -1
-1;
#X obj 269 55 t b;
#X obj 83 -38 inlet;
#X msg 13 -67 read -resize \$1 sample3;
#X obj 209 108 tabplay~ sample3;
#X connect 0 0 18 0;
#X connect 1 0 0 0;
#X connect 2 0 3 0;
#X connect 6 0 19 0;
#X connect 7 0 8 0;
#X connect 7 0 8 1;
#X connect 9 0 11 0;
#X connect 10 0 12 0;
#X connect 10 0 12 1;
#X connect 11 0 10 0;
#X connect 12 0 13 0;
#X connect 12 0 15 0;
#X connect 14 0 6 0;
#X connect 15 0 16 0;
#X connect 16 0 14 0;
#X connect 17 0 9 0;
#X connect 18 0 2 0;
#X connect 19 0 7 0;
#X coords 0 1 100 -1 120 160 1 0 0;
#X restore 303 -209 graph;
#X floatatom 303 -232 5 0 0 0 - - -;
#X text 340 -233 <<conecta arduino;
#N canvas 677 112 450 300 (subpatch) 0;
#X obj 13 -97 openpanel;
#X obj 11 5 bng 15 250 50 0 empty empty empty 17 7 0 10 -4032 -1 -1
;
#X obj 13 -38 soundfiler;
#X floatatom 11 24 10 0 0 0 - - -;
#N canvas 0 22 450 300 (subpatch) 0;
#X array sample4 352800 float 2;
#X coords 0 1 352800 -1 100 100 1;
#X restore 9 56 graph;
#X text 31 3 <<carga audio;
#X obj 209 80 bng 15 250 50 0 empty empty empty 17 7 0 10 -262144 -1
-1;
#X obj 209 132 hip~ 5;
#X obj 205 164 dac~;
#X floatatom 83 24 5 0 201 0 - - -;
#X floatatom 261 4 5 0 0 0 - - -;
#X obj 217 4 > 200;
#X obj 244 31 spigot;
#X floatatom 210 56 5 0 0 0 - - -;
#X msg 269 79 bang;
#X obj 247 56 bng 15 250 50 0 empty empty empty 17 7 0 10 -262144 -1
-1;
#X obj 269 55 t b;
#X obj 83 -38 inlet;
#X msg 13 -67 read -resize \$1 sample4;
#X obj 209 108 tabplay~ sample4;
#X connect 0 0 18 0;
#X connect 1 0 0 0;
#X connect 2 0 3 0;
#X connect 6 0 19 0;
#X connect 7 0 8 0;
#X connect 7 0 8 1;
#X connect 9 0 11 0;
#X connect 10 0 12 0;
#X connect 10 0 12 1;
#X connect 11 0 10 0;
#X connect 12 0 13 0;
#X connect 12 0 15 0;
#X connect 14 0 6 0;
#X connect 15 0 16 0;
#X connect 16 0 14 0;
#X connect 17 0 9 0;
#X connect 18 0 2 0;
#X connect 19 0 7 0;
#X coords 0 1 100 -1 120 160 1 0 0;
#X restore 461 -210 graph;
#X floatatom 461 -233 5 0 0 0 - - -;
#X text 498 -234 <<conecta arduino;
#N canvas 677 112 450 300 (subpatch) 0;
#X obj 13 -97 openpanel;
#X obj 11 5 bng 15 250 50 0 empty empty empty 17 7 0 10 -4032 -1 -1
;
#X obj 13 -38 soundfiler;
#X floatatom 11 24 10 0 0 0 - - -;
#N canvas 0 22 450 300 (subpatch) 0;
#X array sample5 352800 float 2;
#X coords 0 1 352800 -1 100 100 1;
#X restore 9 56 graph;
#X text 31 3 <<carga audio;
#X obj 209 80 bng 15 250 50 0 empty empty empty 17 7 0 10 -262144 -1
-1;
#X obj 209 132 hip~ 5;
#X obj 205 164 dac~;
#X floatatom 83 24 5 0 201 0 - - -;
#X floatatom 261 4 5 0 0 0 - - -;
#X obj 217 4 > 200;
#X obj 244 31 spigot;
#X floatatom 210 56 5 0 0 0 - - -;
#X msg 269 79 bang;
#X obj 247 56 bng 15 250 50 0 empty empty empty 17 7 0 10 -262144 -1
-1;
#X obj 269 55 t b;
#X obj 83 -38 inlet;
#X msg 13 -67 read -resize \$1 sample5;
#X obj 209 108 tabplay~ sample5;
#X connect 0 0 18 0;
#X connect 1 0 0 0;
#X connect 2 0 3 0;
#X connect 6 0 19 0;
#X connect 7 0 8 0;
#X connect 7 0 8 1;
#X connect 9 0 11 0;
#X connect 10 0 12 0;
#X connect 10 0 12 1;
#X connect 11 0 10 0;
#X connect 12 0 13 0;
#X connect 12 0 15 0;
#X connect 14 0 6 0;
#X connect 15 0 16 0;
#X connect 16 0 14 0;
#X connect 17 0 9 0;
#X connect 18 0 2 0;
#X connect 19 0 7 0;
#X coords 0 1 100 -1 120 160 1 0 0;
#X restore 615 -211 graph;
#X floatatom 615 -234 5 0 0 0 - - -;
#X text 652 -235 <<conecta arduino;
#X text -14 -280 ____________________________________________________________Potenciometro
-1;
#X connect 1 0 0 0;
#X connect 4 0 3 0;
#X connect 7 0 6 0;
#X connect 10 0 9 0;
#X connect 13 0 12 0;
