#N canvas 3 22 1275 752 10;
#N canvas 475 79 450 300 (subpatch) 0;
#X obj 13 -97 openpanel;
#X obj 11 5 bng 15 250 50 0 empty empty empty 17 7 0 10 -4032 -1 -1
;
#X obj 13 -38 soundfiler;
#X msg 13 -67 read -resize \$1 sample1;
#X floatatom 11 24 10 0 0 0 - - -;
#N canvas 0 22 450 300 (subpatch) 0;
#X array sample1 352800 float 2;
#X coords 0 1 352800 -1 100 100 1;
#X restore 9 56 graph;
#X text 31 3 <<carga audio;
#X obj 209 80 bng 15 250 50 0 empty empty empty 17 7 0 10 -262144 -1
-1;
#X obj 209 108 tabplay~ sample1;
#X obj 209 132 hip~ 5;
#X obj 205 164 dac~;
#X floatatom 83 24 5 0 201 0 - - -;
#X floatatom 261 4 5 0 0 0 - - -;
#X obj 217 4 > 200;
#X obj 244 31 spigot;
#X floatatom 210 56 5 0 0 0 - - -;
#X msg 269 79 bang;
#X obj 92 58 bng 15 250 50 0 empty empty empty 17 7 0 10 -262144 -1
-1;
#X obj 269 55 t b;
#X obj 83 -38 inlet;
#X connect 0 0 3 0;
#X connect 1 0 0 0;
#X connect 2 0 4 0;
#X connect 3 0 2 0;
#X connect 7 0 8 0;
#X connect 8 0 9 0;
#X connect 9 0 10 0;
#X connect 9 0 10 1;
#X connect 11 0 13 0;
#X connect 12 0 14 0;
#X connect 12 0 14 1;
#X connect 13 0 12 0;
#X connect 14 0 15 0;
#X connect 14 0 17 0;
#X connect 16 0 7 0;
#X connect 17 0 18 0;
#X connect 18 0 16 0;
#X connect 19 0 11 0;
#X coords 0 1 100 -1 120 160 1 0 0;
#X restore -24 -468 graph;
#X floatatom -24 -486 5 0 0 0 - - -;
#N canvas 677 112 450 300 (subpatch) 0;
#X obj 13 -97 openpanel;
#X obj 11 5 bng 15 250 50 0 empty empty empty 17 7 0 10 -4032 -1 -1
;
#X obj 13 -38 soundfiler;
#X floatatom 11 24 10 0 0 0 - - -;
#N canvas 0 22 450 300 (subpatch) 0;
#X array sample2 352800 float 2;
#X coords 0 1 352800 -1 100 100 1;
#X restore 9 56 graph;
#X text 31 3 <<carga audio;
#X obj 209 80 bng 15 250 50 0 empty empty empty 17 7 0 10 -262144 -1
-1;
#X obj 209 132 hip~ 5;
#X obj 205 164 dac~;
#X floatatom 83 24 5 0 450 0 - - -;
#X floatatom 261 4 5 0 0 0 - - -;
#X obj 244 31 spigot;
#X floatatom 210 56 5 0 0 0 - - -;
#X msg 269 79 bang;
#X obj 91 59 bng 15 250 50 0 empty empty empty 17 7 0 10 -262144 -1
-1;
#X obj 269 55 t b;
#X obj 83 -38 inlet;
#X msg 13 -67 read -resize \$1 sample2;
#X obj 209 108 tabplay~ sample2;
#X obj 217 4 > 450;
#X connect 0 0 17 0;
#X connect 1 0 0 0;
#X connect 2 0 3 0;
#X connect 6 0 18 0;
#X connect 7 0 8 0;
#X connect 7 0 8 1;
#X connect 9 0 19 0;
#X connect 10 0 11 0;
#X connect 10 0 11 1;
#X connect 11 0 12 0;
#X connect 11 0 14 0;
#X connect 13 0 6 0;
#X connect 14 0 15 0;
#X connect 15 0 13 0;
#X connect 16 0 9 0;
#X connect 17 0 2 0;
#X connect 18 0 7 0;
#X connect 19 0 10 0;
#X coords 0 1 100 -1 120 160 1 0 0;
#X restore 99 -468 graph;
#X floatatom 99 -486 5 0 0 0 - - -;
#N canvas 677 112 450 300 (subpatch) 0;
#X obj 13 -97 openpanel;
#X obj 11 5 bng 15 250 50 0 empty empty empty 17 7 0 10 -4032 -1 -1
;
#X obj 13 -38 soundfiler;
#X floatatom 11 24 10 0 0 0 - - -;
#N canvas 0 22 450 300 (subpatch) 0;
#X array sample3 352800 float 2;
#X coords 0 1 352800 -1 100 100 1;
#X restore 9 56 graph;
#X text 31 3 <<carga audio;
#X obj 209 80 bng 15 250 50 0 empty empty empty 17 7 0 10 -262144 -1
-1;
#X obj 209 132 hip~ 5;
#X obj 205 164 dac~;
#X floatatom 83 24 5 0 600 0 - - -;
#X floatatom 261 4 5 0 0 0 - - -;
#X obj 244 31 spigot;
#X floatatom 210 56 5 0 0 0 - - -;
#X msg 269 79 bang;
#X obj 90 59 bng 15 250 50 0 empty empty empty 17 7 0 10 -262144 -1
-1;
#X obj 269 55 t b;
#X obj 83 -38 inlet;
#X msg 13 -67 read -resize \$1 sample3;
#X obj 209 108 tabplay~ sample3;
#X obj 217 4 > 600;
#X connect 0 0 17 0;
#X connect 1 0 0 0;
#X connect 2 0 3 0;
#X connect 6 0 18 0;
#X connect 7 0 8 0;
#X connect 7 0 8 1;
#X connect 9 0 19 0;
#X connect 10 0 11 0;
#X connect 10 0 11 1;
#X connect 11 0 12 0;
#X connect 11 0 14 0;
#X connect 13 0 6 0;
#X connect 14 0 15 0;
#X connect 15 0 13 0;
#X connect 16 0 9 0;
#X connect 17 0 2 0;
#X connect 18 0 7 0;
#X connect 19 0 10 0;
#X coords 0 1 100 -1 120 160 1 0 0;
#X restore 222 -468 graph;
#X floatatom 222 -486 5 0 0 0 - - -;
#N canvas 574 151 450 300 (subpatch) 0;
#X obj 13 -97 openpanel;
#X obj 11 5 bng 15 250 50 0 empty empty empty 17 7 0 10 -4032 -1 -1
;
#X obj 13 -38 soundfiler;
#X floatatom 11 24 10 0 0 0 - - -;
#N canvas 0 22 450 300 (subpatch) 0;
#X array sample4 352800 float 2;
#X coords 0 1 352800 -1 100 100 1;
#X restore 9 56 graph;
#X text 31 3 <<carga audio;
#X obj 209 80 bng 15 250 50 0 empty empty empty 17 7 0 10 -262144 -1
-1;
#X obj 209 132 hip~ 5;
#X obj 205 164 dac~;
#X floatatom 83 24 5 0 800 0 - - -;
#X floatatom 261 4 5 0 0 0 - - -;
#X obj 244 31 spigot;
#X floatatom 210 56 5 0 0 0 - - -;
#X msg 269 79 bang;
#X obj 92 58 bng 15 250 50 0 empty empty empty 17 7 0 10 -262144 -1
-1;
#X obj 269 55 t b;
#X obj 83 -38 inlet;
#X msg 13 -67 read -resize \$1 sample4;
#X obj 209 108 tabplay~ sample4;
#X obj 218 4 > 800;
#X connect 0 0 17 0;
#X connect 1 0 0 0;
#X connect 2 0 3 0;
#X connect 6 0 18 0;
#X connect 7 0 8 0;
#X connect 7 0 8 1;
#X connect 9 0 19 0;
#X connect 10 0 11 0;
#X connect 10 0 11 1;
#X connect 11 0 12 0;
#X connect 11 0 14 0;
#X connect 13 0 6 0;
#X connect 14 0 15 0;
#X connect 15 0 13 0;
#X connect 16 0 9 0;
#X connect 17 0 2 0;
#X connect 18 0 7 0;
#X connect 19 0 10 0;
#X coords 0 1 100 -1 120 160 1 0 0;
#X restore 345 -468 graph;
#X floatatom 345 -487 5 0 0 0 - - -;
#N canvas 677 112 450 300 (subpatch) 0;
#X obj 13 -97 openpanel;
#X obj 11 5 bng 15 250 50 0 empty empty empty 17 7 0 10 -4032 -1 -1
;
#X obj 13 -38 soundfiler;
#X floatatom 11 24 10 0 0 0 - - -;
#N canvas 0 22 450 300 (subpatch) 0;
#X array sample5 352800 float 2;
#X coords 0 1 352800 -1 100 100 1;
#X restore 9 56 graph;
#X text 31 3 <<carga audio;
#X obj 209 80 bng 15 250 50 0 empty empty empty 17 7 0 10 -262144 -1
-1;
#X obj 209 132 hip~ 5;
#X obj 205 164 dac~;
#X floatatom 83 24 5 0 1000 0 - - -;
#X floatatom 261 4 5 0 0 0 - - -;
#X obj 244 31 spigot;
#X floatatom 210 56 5 0 0 0 - - -;
#X msg 269 79 bang;
#X obj 91 59 bng 15 250 50 0 empty empty empty 17 7 0 10 -262144 -1
-1;
#X obj 269 55 t b;
#X obj 83 -38 inlet;
#X msg 13 -67 read -resize \$1 sample5;
#X obj 209 108 tabplay~ sample5;
#X obj 217 4 > 1000;
#X connect 0 0 17 0;
#X connect 1 0 0 0;
#X connect 2 0 3 0;
#X connect 6 0 18 0;
#X connect 7 0 8 0;
#X connect 7 0 8 1;
#X connect 9 0 19 0;
#X connect 10 0 11 0;
#X connect 10 0 11 1;
#X connect 11 0 12 0;
#X connect 11 0 14 0;
#X connect 13 0 6 0;
#X connect 14 0 15 0;
#X connect 15 0 13 0;
#X connect 16 0 9 0;
#X connect 17 0 2 0;
#X connect 18 0 7 0;
#X connect 19 0 10 0;
#X coords 0 1 100 -1 120 160 1 0 0;
#X restore 469 -468 graph;
#X floatatom 469 -486 5 0 0 0 - - -;
#N canvas 146 163 525 433 serin 0;
#X obj 180 61 cnv 15 15 15 empty \$0-number-canvas 1 4 8 0 14 -233017
-1 0;
#X obj 200 225 s \$0-number-canvas;
#X obj 60 61 hradio 15 1 1 8 empty empty empty 0 -6 0 8 -225271 -1
-1 1;
#X obj 60 13 inlet;
#X msg 200 202 label \$1;
#X obj 200 180 makefilename %d;
#X obj 59 108 int;
#X msg 59 206 open \$1;
#X obj 59 377 outlet;
#X msg 201 306 set \$1 \$2;
#X obj 59 266 trigger bang anything;
#X obj 201 286 list;
#X obj 383 383 outlet;
#X obj 384 22 netreceive 34567;
#X obj 477 43 tgl 15 0 empty empty empty 0 -6 0 10 -262144 -1 -1 0
1;
#X obj 384 41 bng 15 250 50 0 empty empty empty 0 -6 0 10 -262144 -1
-1;
#X obj 187 24 delay 15000;
#X text 345 379 close;
#X text 209 4 for open/close automation in Makefile;
#X obj 184 95 bang;
#X obj 184 137 send ARDUINO_TEST_RESET;
#X msg 184 116 set 0;
#X connect 2 0 6 0;
#X connect 2 0 19 0;
#X connect 3 0 2 0;
#X connect 4 0 1 0;
#X connect 5 0 4 0;
#X connect 6 0 5 0;
#X connect 6 0 7 0;
#X connect 7 0 10 0;
#X connect 9 0 8 0;
#X connect 10 0 8 0;
#X connect 10 1 11 0;
#X connect 11 0 9 0;
#X connect 13 0 15 0;
#X connect 13 1 14 0;
#X connect 15 0 16 0;
#X connect 15 0 12 0;
#X connect 16 0 2 0;
#X connect 19 0 21 0;
#X connect 21 0 20 0;
#X coords 0 -1 1 1 136 17 1 60 60;
#X restore -22 -629 pd serin;
#X text -26 -646 serial port #;
#X msg 37 -605 close;
#X floatatom 74 -520 5 0 0 3 a0 - -;
#X floatatom 108 -520 5 0 0 3 a1 - -;
#X floatatom 143 -520 5 0 0 3 a2 - -;
#X floatatom 178 -519 5 0 0 3 a3 - -;
#X floatatom 212 -518 5 0 0 3 a4 - -;
#X floatatom 247 -518 5 0 0 3 a5 - -;
#N canvas 763 71 475 478 sending 0;
#X obj 69 228 cnv 15 100 22 empty empty empty 20 12 0 14 -253938 -66577
0;
#X obj 78 434 outlet;
#X msg 78 231 digital 9 1;
#X obj 127 148 tgl 15 0 empty ARDUINO_TEST_RESET 7 4 -6 1 12 -233017
-1 -1 0 1;
#X obj 144 148 tgl 15 0 empty ARDUINO_TEST_RESET 8 4 -6 1 12 -233017
-1 -1 0 1;
#X obj 161 148 tgl 15 0 empty ARDUINO_TEST_RESET 9 4 -6 1 12 -233017
-1 -1 0 1;
#X obj 178 148 tgl 15 0 empty ARDUINO_TEST_RESET 10 0 -6 1 12 -233017
-1 -1 0 1;
#X obj 195 148 tgl 15 0 empty ARDUINO_TEST_RESET 11 0 -6 1 12 -233017
-1 -1 0 1;
#X obj 212 148 tgl 15 0 empty ARDUINO_TEST_RESET 12 0 -6 1 12 -233017
-1 -1 0 1;
#X obj 229 148 tgl 15 0 empty ARDUINO_TEST_RESET 13 0 -6 1 12 -233017
-1 -1 0 1;
#X obj 42 148 tgl 15 0 empty ARDUINO_TEST_RESET 2 4 -6 1 12 -233017
-1 -1 0 1;
#X obj 59 148 tgl 15 0 empty ARDUINO_TEST_RESET 3 4 -6 1 12 -233017
-1 -1 0 1;
#X obj 76 148 tgl 15 0 empty ARDUINO_TEST_RESET 4 4 -6 1 12 -233017
-1 -1 0 1;
#X obj 93 148 tgl 15 0 empty ARDUINO_TEST_RESET 5 4 -6 1 12 -233017
-1 -1 0 1;
#X obj 110 148 tgl 15 0 empty ARDUINO_TEST_RESET 6 4 -6 1 12 -233017
-1 -1 0 1;
#X obj 418 123 tgl 25 0 empty ARDUINO_TEST_RESET ALL 2 12 0 12 -262144
-1 -1 0 1;
#X obj 388 72 tgl 15 0 empty empty empty 0 -6 0 8 -262144 -1 -1 0 16383
;
#X obj 388 92 metro 100;
#X obj 301 9 inlet;
#X obj 301 43 trigger 0 float;
#X obj 301 64 select 0;
#X msg 301 84 0;
#X msg 405 389 port 1 0;
#X msg 263 389 port 0 0;
#X msg 189 389 port 0 255;
#X msg 331 389 port 1 255;
#X text 95 291 or send 8-bit ports in one message:;
#X msg 159 338 port 1 \$1;
#X msg 91 338 port 0 \$1;
#X msg 230 338 port 2 \$1;
#X obj 362 297 tgl 25 0 empty ARDUINO_TEST_RESET ALL 2 12 0 12 -262144
-1 -1 0 1;
#X obj 362 246 tgl 15 0 empty empty empty 0 -6 0 8 -262144 -1 -1 0
16383;
#X obj 362 266 metro 100;
#X floatatom 362 329 5 0 0 0 - - -;
#X obj 246 148 tgl 15 0 empty ARDUINO_TEST_RESET 14 0 -6 1 12 -233017
-1 -1 0 1;
#X obj 263 148 tgl 15 0 empty ARDUINO_TEST_RESET 15 0 -6 1 12 -233017
-1 -1 0 1;
#X obj 280 148 tgl 15 0 empty ARDUINO_TEST_RESET 16 0 -6 1 12 -233017
-1 -1 0 1;
#X obj 297 148 tgl 15 0 empty ARDUINO_TEST_RESET 17 0 -6 1 12 -233017
-1 -1 0 1;
#X obj 314 148 tgl 15 0 empty ARDUINO_TEST_RESET 18 0 -6 1 12 -233017
-1 -1 0 1;
#X obj 331 148 tgl 15 0 empty ARDUINO_TEST_RESET 19 0 -6 1 12 -233017
-1 -1 0 1;
#X obj 348 148 tgl 15 0 empty ARDUINO_TEST_RESET 20 0 -6 1 12 -233017
-1 -1 0 1;
#X obj 365 148 tgl 15 0 empty ARDUINO_TEST_RESET 21 0 -6 1 12 -233017
-1 -1 0 1;
#N canvas 314 233 1035 340 generate 0;
#X obj 12 24 inlet;
#X obj 52 24 inlet;
#X obj 91 24 inlet;
#X obj 131 24 inlet;
#X obj 171 24 inlet;
#X obj 211 24 inlet;
#X obj 250 24 inlet;
#X obj 290 24 inlet;
#X obj 331 23 inlet;
#X obj 371 23 inlet;
#X obj 410 23 inlet;
#X obj 450 23 inlet;
#X obj 490 23 inlet;
#X msg 12 66 digital 0 \$1;
#X msg 52 88 digital 1 \$1;
#X msg 91 110 digital 2 \$1;
#X msg 131 130 digital 3 \$1;
#X msg 171 62 digital 4 \$1;
#X msg 211 84 digital 5 \$1;
#X msg 250 106 digital 6 \$1;
#X msg 290 126 digital 7 \$1;
#X msg 331 58 digital 8 \$1;
#X msg 371 80 digital 9 \$1;
#X msg 410 102 digital 10 \$1;
#X msg 450 122 digital 11 \$1;
#X msg 490 50 digital 12 \$1;
#X obj 529 23 inlet;
#X msg 529 70 digital 13 \$1;
#X obj 513 302 outlet;
#X obj 513 263 trigger bang anything;
#X obj 513 214 list prepend set;
#X obj 513 238 list trim;
#X obj 570 23 inlet;
#X obj 610 23 inlet;
#X obj 650 23 inlet;
#X obj 689 23 inlet;
#X msg 570 102 digital 14 \$1;
#X msg 610 122 digital 15 \$1;
#X msg 650 50 digital 16 \$1;
#X msg 689 70 digital 17 \$1;
#X obj 730 23 inlet;
#X obj 770 23 inlet;
#X obj 810 23 inlet;
#X obj 849 23 inlet;
#X msg 730 102 digital 18 \$1;
#X msg 770 122 digital 19 \$1;
#X msg 810 50 digital 20 \$1;
#X msg 849 70 digital 21 \$1;
#X obj 890 23 inlet;
#X obj 930 23 inlet;
#X msg 890 102 digital 22 \$1;
#X msg 930 122 digital 23 \$1;
#X connect 0 0 13 0;
#X connect 1 0 14 0;
#X connect 2 0 15 0;
#X connect 3 0 16 0;
#X connect 4 0 17 0;
#X connect 5 0 18 0;
#X connect 6 0 19 0;
#X connect 7 0 20 0;
#X connect 8 0 21 0;
#X connect 9 0 22 0;
#X connect 10 0 23 0;
#X connect 11 0 24 0;
#X connect 12 0 25 0;
#X connect 13 0 30 0;
#X connect 14 0 30 0;
#X connect 15 0 30 0;
#X connect 16 0 30 0;
#X connect 17 0 30 0;
#X connect 18 0 30 0;
#X connect 19 0 30 0;
#X connect 20 0 30 0;
#X connect 21 0 30 0;
#X connect 22 0 30 0;
#X connect 23 0 30 0;
#X connect 24 0 30 0;
#X connect 25 0 30 0;
#X connect 26 0 27 0;
#X connect 27 0 30 0;
#X connect 29 0 28 0;
#X connect 29 1 28 0;
#X connect 30 0 31 0;
#X connect 31 0 29 0;
#X connect 32 0 36 0;
#X connect 33 0 37 0;
#X connect 34 0 38 0;
#X connect 35 0 39 0;
#X connect 36 0 30 0;
#X connect 37 0 30 0;
#X connect 38 0 30 0;
#X connect 39 0 30 0;
#X connect 40 0 44 0;
#X connect 41 0 45 0;
#X connect 42 0 46 0;
#X connect 43 0 47 0;
#X connect 44 0 30 0;
#X connect 45 0 30 0;
#X connect 46 0 30 0;
#X connect 47 0 30 0;
#X connect 48 0 50 0;
#X connect 49 0 51 0;
#X connect 50 0 30 0;
#X connect 51 0 30 0;
#X restore 78 201 pd generate digital out messages ------------------
;
#X obj 382 148 tgl 15 0 empty ARDUINO_TEST_RESET 22 0 -6 1 12 -233017
-1 -1 0 1;
#X obj 399 148 tgl 15 0 empty ARDUINO_TEST_RESET 23 0 -6 1 12 -233017
-1 -1 0 1;
#X obj 8 148 tgl 15 0 empty ARDUINO_TEST_RESET 0 4 -6 1 12 -233017
-1 -1 0 1;
#X obj 25 148 tgl 15 0 empty ARDUINO_TEST_RESET 1 4 -6 1 12 -233017
-1 -1 0 1;
#X connect 2 0 1 0;
#X connect 3 0 42 7;
#X connect 4 0 42 8;
#X connect 5 0 42 9;
#X connect 6 0 42 10;
#X connect 7 0 42 11;
#X connect 8 0 42 12;
#X connect 9 0 42 13;
#X connect 10 0 42 2;
#X connect 11 0 42 3;
#X connect 12 0 42 4;
#X connect 13 0 42 5;
#X connect 14 0 42 6;
#X connect 15 0 9 0;
#X connect 15 0 8 0;
#X connect 15 0 7 0;
#X connect 15 0 6 0;
#X connect 15 0 5 0;
#X connect 15 0 4 0;
#X connect 15 0 3 0;
#X connect 15 0 14 0;
#X connect 15 0 13 0;
#X connect 15 0 12 0;
#X connect 15 0 11 0;
#X connect 15 0 10 0;
#X connect 15 0 39 0;
#X connect 15 0 40 0;
#X connect 15 0 41 0;
#X connect 15 0 38 0;
#X connect 15 0 37 0;
#X connect 15 0 36 0;
#X connect 15 0 35 0;
#X connect 15 0 34 0;
#X connect 15 0 44 0;
#X connect 15 0 43 0;
#X connect 15 0 46 0;
#X connect 15 0 45 0;
#X connect 16 0 17 0;
#X connect 17 0 15 0;
#X connect 18 0 19 0;
#X connect 19 0 20 0;
#X connect 19 1 16 0;
#X connect 20 0 21 0;
#X connect 21 0 15 0;
#X connect 22 0 1 0;
#X connect 23 0 1 0;
#X connect 24 0 1 0;
#X connect 25 0 1 0;
#X connect 27 0 1 0;
#X connect 28 0 1 0;
#X connect 29 0 1 0;
#X connect 30 0 33 0;
#X connect 30 0 29 0;
#X connect 30 0 27 0;
#X connect 30 0 28 0;
#X connect 31 0 32 0;
#X connect 32 0 30 0;
#X connect 34 0 42 14;
#X connect 35 0 42 15;
#X connect 36 0 42 16;
#X connect 37 0 42 17;
#X connect 38 0 42 18;
#X connect 39 0 42 19;
#X connect 40 0 42 20;
#X connect 41 0 42 21;
#X connect 42 0 2 0;
#X connect 43 0 42 22;
#X connect 44 0 42 23;
#X connect 45 0 42 0;
#X connect 46 0 42 1;
#X restore 357 -612 pd sending digital outs;
#X obj 357 -631 tgl 15 0 empty ARDUINO_TEST_RESET empty 0 -6 0 8 -225271
-1 -1 0 16383;
#X floatatom 282 -519 5 0 0 3 a6 - -;
#X floatatom 317 -519 5 0 0 3 a7 - -;
#X obj 144 -558 route 0 1 2 3 4 5 6 7;
#N canvas 981 48 499 396 display 0;
#X obj 6 7 inlet;
#X obj 6 28 mapping/resample 100;
#X obj 6 50 outlet;
#X obj 54 50 inlet;
#X obj 54 71 mapping/resample 100;
#X obj 54 93 outlet;
#X obj 103 93 inlet;
#X obj 103 114 mapping/resample 100;
#X obj 103 136 outlet;
#X obj 151 136 inlet;
#X obj 151 157 mapping/resample 100;
#X obj 151 179 outlet;
#X obj 200 179 inlet;
#X obj 200 200 mapping/resample 100;
#X obj 200 222 outlet;
#X obj 247 222 inlet;
#X obj 247 243 mapping/resample 100;
#X obj 247 265 outlet;
#X obj 295 265 inlet;
#X obj 295 286 mapping/resample 100;
#X obj 295 308 outlet;
#X obj 345 308 inlet;
#X obj 345 329 mapping/resample 100;
#X obj 345 351 outlet;
#X obj 60 290 receive ARDUINO_TEST_RESET;
#X connect 0 0 1 0;
#X connect 1 0 2 0;
#X connect 3 0 4 0;
#X connect 4 0 5 0;
#X connect 6 0 7 0;
#X connect 7 0 8 0;
#X connect 9 0 10 0;
#X connect 10 0 11 0;
#X connect 12 0 13 0;
#X connect 13 0 14 0;
#X connect 15 0 16 0;
#X connect 16 0 17 0;
#X connect 18 0 19 0;
#X connect 19 0 20 0;
#X connect 21 0 22 0;
#X connect 22 0 23 0;
#X connect 24 0 22 0;
#X connect 24 0 19 0;
#X connect 24 0 16 0;
#X connect 24 0 13 0;
#X connect 24 0 10 0;
#X connect 24 0 7 0;
#X connect 24 0 4 0;
#X connect 24 0 1 0;
#X restore 74 -541 pd display values without pegging the CPU;
#N canvas 3 48 451 224 ver 0;
#X obj 23 7 inlet;
#X obj 250 100 cnv 15 145 17 empty \$0-version_cnv empty 4 10 0 12
-4032 -1 0;
#X obj 23 157 send \$0-version_cnv;
#X msg 23 132 label \$1;
#X obj 48 103 symbol;
#X obj 38 77 loadbang;
#X msg 96 78 bang;
#X obj 309 163 outlet;
#X obj 23 52 zexy/makesymbol Firmata-%s.%s;
#X obj 23 29 route version bang;
#X connect 0 0 9 0;
#X connect 3 0 2 0;
#X connect 4 0 3 0;
#X connect 5 0 4 0;
#X connect 6 0 4 0;
#X connect 8 0 3 0;
#X connect 9 0 8 0;
#X connect 9 1 7 0;
#X connect 9 1 6 0;
#X connect 9 2 7 0;
#X coords 0 -1 1 1 145 17 1 250 100;
#X restore 358 -557 pd ver;
#X obj 144 -595 arduino 1;
#N canvas 649 518 411 212 firmware 0;
#X obj 123 2 inlet;
#X obj 250 99 cnv 15 145 17 empty \$0-firmware_cnv empty 4 10 0 12
-4034 -66577 0;
#X msg 123 156 label \$1;
#X obj 148 127 symbol;
#X obj 138 101 loadbang;
#X msg 196 102 bang;
#X obj 123 181 send \$0-firmware_cnv;
#X obj 123 24 route firmware;
#X obj 18 181 print Firmware;
#X obj 123 49 list;
#X obj 123 80 zexy/makesymbol %s-%s.%s;
#X obj 18 151 list trim;
#X obj 204 45 route bang;
#X connect 0 0 7 0;
#X connect 2 0 6 0;
#X connect 3 0 2 0;
#X connect 4 0 3 0;
#X connect 5 0 3 0;
#X connect 7 0 9 0;
#X connect 7 1 12 0;
#X connect 9 0 10 0;
#X connect 10 0 2 0;
#X connect 10 0 11 0;
#X connect 11 0 8 0;
#X connect 12 0 5 0;
#X coords 0 -1 1 1 145 17 1 250 100;
#X restore 358 -533 pd firmware;
#N canvas 205 22 593 390 strings 0;
#X obj -178 287 outlet;
#X obj -142 101 moocow/any2string;
#X symbolatom -92 48 10 0 0 0 - - -;
#X obj -119 179 pddp/print;
#X obj -92 68 list trim;
#X msg -175 39 test;
#X msg -139 40 TEST;
#X obj -142 130 cyclone/prepend string;
#X obj -313 102 moocow/any2string;
#X symbolatom -263 49 10 0 0 0 - - -;
#X obj -314 202 pddp/print;
#X obj -263 69 list trim;
#X msg -346 40 test;
#X msg -310 41 TEST;
#X obj -313 153 cyclone/prepend sysex;
#X obj -313 131 cyclone/prepend 40;
#X msg 66 117 samplingInterval \$1;
#X obj 69 93 hsl 128 15 0 127 0 0 empty empty empty -2 -8 0 10 -262144
-1 -1 0 1;
#X floatatom 27 117 5 0 0 0 - - -;
#X connect 1 0 7 0;
#X connect 2 0 4 0;
#X connect 4 0 1 0;
#X connect 5 0 1 0;
#X connect 6 0 1 0;
#X connect 7 0 3 0;
#X connect 7 0 0 0;
#X connect 8 0 15 0;
#X connect 9 0 11 0;
#X connect 11 0 8 0;
#X connect 12 0 8 0;
#X connect 13 0 8 0;
#X connect 14 0 0 0;
#X connect 14 0 10 0;
#X connect 15 0 14 0;
#X connect 16 0 0 0;
#X connect 17 0 16 0;
#X connect 17 0 18 0;
#X restore 143 -613 pd strings and special messages;
#N canvas 626 98 404 287 device 0;
#X obj 35 60 inlet;
#X obj 35 118 route open port ports;
#X obj 35 169 tgl 15 0 empty empty open -3 20 0 10 -262144 -1 -1 0
1;
#X floatatom 76 170 5 0 0 3 port - -;
#X obj 117 170 print comport_ports;
#X obj 252 170 outlet;
#X obj 235 74 receive ARDUINO_TEST_RESET;
#X obj 235 97 bang;
#X connect 0 0 1 0;
#X connect 1 0 2 0;
#X connect 1 1 3 0;
#X connect 1 2 4 0;
#X connect 1 3 5 0;
#X connect 6 0 7 0;
#X connect 7 0 5 0;
#X restore 358 -576 pd device info;
#X text 450 -576 <- open to see info;
#N canvas 0 22 450 300 old 0;
#X msg 95 138 digitalIns 0 0;
#X msg 88 77 analogIns 0 0;
#N canvas 162 133 610 460 serin 0;
#X obj 59 337 outlet;
#X obj 59 266 trigger bang anything;
#X obj 201 286 list;
#X obj 60 61 tgl 15 0 junk_to_hide_inlet ARDUINO_TEST_RESET 0 5 9 1
12 -262130 -1 -1 0 1;
#X obj 75 61 tgl 15 0 junk_to_hide_inlet ARDUINO_TEST_RESET 1 5 9 1
12 -262130 -1 -1 0 1;
#X obj 90 61 tgl 15 0 junk_to_hide_inlet ARDUINO_TEST_RESET 2 5 9 1
12 -262130 -1 -1 0 1;
#X obj 105 61 tgl 15 0 junk_to_hide_inlet ARDUINO_TEST_RESET 3 5 9
1 12 -262130 -1 -1 0 1;
#X obj 120 61 tgl 15 0 junk_to_hide_inlet ARDUINO_TEST_RESET 4 5 9
1 12 -262130 -1 -1 0 1;
#X obj 135 61 tgl 15 0 junk_to_hide_inlet ARDUINO_TEST_RESET 5 5 9
1 12 -262130 -1 -1 0 1;
#X obj 150 61 tgl 15 0 junk_to_hide_inlet ARDUINO_TEST_RESET 6 5 9
1 12 -262130 -1 -1 0 1;
#X obj 165 61 tgl 15 0 junk_to_hide_inlet ARDUINO_TEST_RESET 7 5 9
1 12 -262130 -1 -1 0 1;
#X msg 59 210 analogIns \$1 \$2;
#X msg 35 106 0 \$1;
#X msg 70 106 1 \$1;
#X msg 105 106 2 \$1;
#X msg 140 106 3 \$1;
#X msg 175 106 4 \$1;
#X msg 210 106 5 \$1;
#X msg 245 106 6 \$1;
#X msg 280 106 7 \$1;
#X msg 202 307 set \$1 \$2 \$3;
#X connect 1 0 0 0;
#X connect 1 1 2 0;
#X connect 2 0 20 0;
#X connect 3 0 12 0;
#X connect 4 0 13 0;
#X connect 5 0 14 0;
#X connect 6 0 15 0;
#X connect 7 0 16 0;
#X connect 8 0 17 0;
#X connect 9 0 18 0;
#X connect 10 0 19 0;
#X connect 11 0 1 0;
#X connect 12 0 11 0;
#X connect 13 0 11 0;
#X connect 14 0 11 0;
#X connect 15 0 11 0;
#X connect 16 0 11 0;
#X connect 17 0 11 0;
#X connect 18 0 11 0;
#X connect 19 0 11 0;
#X connect 20 0 0 0;
#X coords 0 -1 1 1 120 16 1 60 60;
#X restore 88 55 pd serin;
#X text 87 38 which analogIns to enable:;
#X text 94 101 which digital ports to enable:;
#N canvas 162 133 610 460 seri 0;
#X obj 59 337 outlet;
#X obj 59 266 trigger bang anything;
#X obj 201 286 list;
#X obj 60 61 tgl 15 0 junk_to_hide_inlet ARDUINO_TEST_RESET 0 5 9 1
12 -260736 -1 -1 0 1;
#X obj 75 61 tgl 15 0 junk_to_hide_inlet ARDUINO_TEST_RESET 1 5 9 1
12 -260736 -1 -1 0 1;
#X obj 90 61 tgl 15 0 junk_to_hide_inlet ARDUINO_TEST_RESET 2 5 9 1
12 -260736 -1 -1 0 1;
#X msg 35 106 0 \$1;
#X msg 70 106 1 \$1;
#X msg 105 106 2 \$1;
#X msg 202 307 set \$1 \$2 \$3;
#X msg 59 210 digitalIns \$1 \$2;
#X connect 1 0 0 0;
#X connect 1 1 2 0;
#X connect 2 0 9 0;
#X connect 3 0 6 0;
#X connect 4 0 7 0;
#X connect 5 0 8 0;
#X connect 6 0 10 0;
#X connect 7 0 10 0;
#X connect 8 0 10 0;
#X connect 9 0 0 0;
#X connect 10 0 1 0;
#X coords 0 -1 1 1 45 16 1 60 60;
#X restore 95 118 pd seri;
#X obj 42 179 outlet;
#X connect 0 0 6 0;
#X connect 1 0 6 0;
#X connect 2 0 1 0;
#X connect 5 0 0 0;
#X restore 143 -631 pd old analog/digital controls;
#X text 204 -596 <-- argument sets port #;
#X text 375 -632 <-- pulse all outputs;
#X text -24 -523 analog inputs:;
#X obj 144 -577 route analog digital string sysex;
#X msg -23 -605 open 1;
#X text 14 -486 arduino;
#N canvas 475 79 450 300 (subpatch) 0;
#X obj 13 -97 openpanel;
#X obj 11 5 bng 15 250 50 0 empty empty empty 17 7 0 10 -4034 -1 -1
;
#X obj 13 -38 soundfiler;
#X floatatom 11 24 10 0 0 0 - - -;
#N canvas 0 22 450 300 (subpatch) 0;
#X array sample6 352800 float 2;
#X coords 0 1 352800 -1 100 100 1;
#X restore 9 56 graph;
#X text 31 3 <<carga audio;
#X obj 209 80 bng 15 250 50 0 empty empty empty 17 7 0 10 -262144 -1
-1;
#X obj 209 132 hip~ 5;
#X obj 205 164 dac~;
#X floatatom 83 24 5 0 201 0 - - -;
#X floatatom 261 4 5 0 0 0 - - -;
#X obj 217 4 > 200;
#X obj 244 31 spigot;
#X floatatom 210 56 5 0 0 0 - - -;
#X msg 269 79 bang;
#X obj 92 58 bng 15 250 50 0 empty empty empty 17 7 0 10 -262144 -1
-1;
#X obj 269 55 t b;
#X obj 83 -38 inlet;
#X msg 13 -67 read -resize \$1 sample6;
#X obj 209 108 tabplay~ sample6;
#X connect 0 0 18 0;
#X connect 1 0 0 0;
#X connect 2 0 3 0;
#X connect 6 0 19 0;
#X connect 7 0 8 0;
#X connect 7 0 8 1;
#X connect 9 0 11 0;
#X connect 10 0 12 0;
#X connect 10 0 12 1;
#X connect 11 0 10 0;
#X connect 12 0 13 0;
#X connect 12 0 15 0;
#X connect 14 0 6 0;
#X connect 15 0 16 0;
#X connect 16 0 14 0;
#X connect 17 0 9 0;
#X connect 18 0 2 0;
#X connect 19 0 7 0;
#X coords 0 1 100 -1 120 160 1 0 0;
#X restore -24 -248 graph;
#X floatatom -24 -265 5 0 0 0 - - -;
#N canvas 677 112 450 300 (subpatch) 0;
#X obj 13 -97 openpanel;
#X obj 11 5 bng 15 250 50 0 empty empty empty 17 7 0 10 -4034 -1 -1
;
#X obj 13 -38 soundfiler;
#X floatatom 11 24 10 0 0 0 - - -;
#N canvas 0 22 450 300 (subpatch) 0;
#X array sample7 352800 float 2;
#X coords 0 1 352800 -1 100 100 1;
#X restore 9 56 graph;
#X text 31 3 <<carga audio;
#X obj 209 80 bng 15 250 50 0 empty empty empty 17 7 0 10 -262144 -1
-1;
#X obj 209 132 hip~ 5;
#X obj 205 164 dac~;
#X floatatom 83 24 5 0 450 0 - - -;
#X floatatom 261 4 5 0 0 0 - - -;
#X obj 244 31 spigot;
#X floatatom 210 56 5 0 0 0 - - -;
#X msg 269 79 bang;
#X obj 91 59 bng 15 250 50 0 empty empty empty 17 7 0 10 -262144 -1
-1;
#X obj 269 55 t b;
#X obj 83 -38 inlet;
#X obj 217 4 > 450;
#X msg 13 -67 read -resize \$1 sample7;
#X obj 209 108 tabplay~ sample7;
#X connect 0 0 18 0;
#X connect 1 0 0 0;
#X connect 2 0 3 0;
#X connect 6 0 19 0;
#X connect 7 0 8 0;
#X connect 7 0 8 1;
#X connect 9 0 17 0;
#X connect 10 0 11 0;
#X connect 10 0 11 1;
#X connect 11 0 12 0;
#X connect 11 0 14 0;
#X connect 13 0 6 0;
#X connect 14 0 15 0;
#X connect 15 0 13 0;
#X connect 16 0 9 0;
#X connect 17 0 10 0;
#X connect 18 0 2 0;
#X connect 19 0 7 0;
#X coords 0 1 100 -1 120 160 1 0 0;
#X restore 99 -248 graph;
#X floatatom 99 -265 5 0 0 0 - - -;
#N canvas 677 112 450 300 (subpatch) 0;
#X obj 13 -97 openpanel;
#X obj 11 5 bng 15 250 50 0 empty empty empty 17 7 0 10 -4034 -1 -1
;
#X obj 13 -38 soundfiler;
#X floatatom 11 24 10 0 0 0 - - -;
#N canvas 0 22 450 300 (subpatch) 0;
#X array sample8 352800 float 2;
#X coords 0 1 352800 -1 100 100 1;
#X restore 9 56 graph;
#X text 31 3 <<carga audio;
#X obj 209 80 bng 15 250 50 0 empty empty empty 17 7 0 10 -262144 -1
-1;
#X obj 209 132 hip~ 5;
#X obj 205 164 dac~;
#X floatatom 83 24 5 0 600 0 - - -;
#X floatatom 261 4 5 0 0 0 - - -;
#X obj 244 31 spigot;
#X floatatom 210 56 5 0 0 0 - - -;
#X msg 269 79 bang;
#X obj 90 59 bng 15 250 50 0 empty empty empty 17 7 0 10 -262144 -1
-1;
#X obj 269 55 t b;
#X obj 83 -38 inlet;
#X obj 217 4 > 600;
#X msg 13 -67 read -resize \$1 sample8;
#X obj 209 108 tabplay~ sample8;
#X connect 0 0 18 0;
#X connect 1 0 0 0;
#X connect 2 0 3 0;
#X connect 6 0 19 0;
#X connect 7 0 8 0;
#X connect 7 0 8 1;
#X connect 9 0 17 0;
#X connect 10 0 11 0;
#X connect 10 0 11 1;
#X connect 11 0 12 0;
#X connect 11 0 14 0;
#X connect 13 0 6 0;
#X connect 14 0 15 0;
#X connect 15 0 13 0;
#X connect 16 0 9 0;
#X connect 17 0 10 0;
#X connect 18 0 2 0;
#X connect 19 0 7 0;
#X coords 0 1 100 -1 120 160 1 0 0;
#X restore 222 -248 graph;
#X floatatom 222 -265 5 0 0 0 - - -;
#N canvas 574 151 450 300 (subpatch) 0;
#X obj 13 -97 openpanel;
#X obj 11 5 bng 15 250 50 0 empty empty empty 17 7 0 10 -4034 -1 -1
;
#X obj 13 -38 soundfiler;
#X floatatom 11 24 10 0 0 0 - - -;
#N canvas 0 22 450 300 (subpatch) 0;
#X array sample9 352800 float 2;
#X coords 0 1 352800 -1 100 100 1;
#X restore 9 56 graph;
#X text 31 3 <<carga audio;
#X obj 209 80 bng 15 250 50 0 empty empty empty 17 7 0 10 -262144 -1
-1;
#X obj 209 132 hip~ 5;
#X obj 205 164 dac~;
#X floatatom 83 24 5 0 800 0 - - -;
#X floatatom 261 4 5 0 0 0 - - -;
#X obj 244 31 spigot;
#X floatatom 210 56 5 0 0 0 - - -;
#X msg 269 79 bang;
#X obj 92 58 bng 15 250 50 0 empty empty empty 17 7 0 10 -262144 -1
-1;
#X obj 269 55 t b;
#X obj 83 -38 inlet;
#X obj 218 4 > 800;
#X msg 13 -67 read -resize \$1 sample9;
#X obj 209 108 tabplay~ sample9;
#X connect 0 0 18 0;
#X connect 1 0 0 0;
#X connect 2 0 3 0;
#X connect 6 0 19 0;
#X connect 7 0 8 0;
#X connect 7 0 8 1;
#X connect 9 0 17 0;
#X connect 10 0 11 0;
#X connect 10 0 11 1;
#X connect 11 0 12 0;
#X connect 11 0 14 0;
#X connect 13 0 6 0;
#X connect 14 0 15 0;
#X connect 15 0 13 0;
#X connect 16 0 9 0;
#X connect 17 0 10 0;
#X connect 18 0 2 0;
#X connect 19 0 7 0;
#X coords 0 1 100 -1 120 160 1 0 0;
#X restore 345 -248 graph;
#X floatatom 345 -266 5 0 0 0 - - -;
#N canvas 677 112 450 300 (subpatch) 0;
#X obj 13 -97 openpanel;
#X obj 11 5 bng 15 250 50 0 empty empty empty 17 7 0 10 -4034 -1 -1
;
#X obj 13 -38 soundfiler;
#X floatatom 11 24 10 0 0 0 - - -;
#N canvas 0 22 450 300 (subpatch) 0;
#X array sample10 352800 float 2;
#X coords 0 1 352800 -1 100 100 1;
#X restore 9 56 graph;
#X text 31 3 <<carga audio;
#X obj 209 80 bng 15 250 50 0 empty empty empty 17 7 0 10 -262144 -1
-1;
#X obj 209 132 hip~ 5;
#X obj 205 164 dac~;
#X floatatom 83 24 5 0 1000 0 - - -;
#X floatatom 261 4 5 0 0 0 - - -;
#X obj 244 31 spigot;
#X floatatom 210 56 5 0 0 0 - - -;
#X msg 269 79 bang;
#X obj 91 59 bng 15 250 50 0 empty empty empty 17 7 0 10 -262144 -1
-1;
#X obj 269 55 t b;
#X obj 83 -38 inlet;
#X obj 217 4 > 1000;
#X msg 13 -67 read -resize \$1 sample10;
#X obj 208 108 tabplay~ sample10;
#X connect 0 0 18 0;
#X connect 1 0 0 0;
#X connect 2 0 3 0;
#X connect 6 0 19 0;
#X connect 7 0 8 0;
#X connect 7 0 8 1;
#X connect 9 0 17 0;
#X connect 10 0 11 0;
#X connect 10 0 11 1;
#X connect 11 0 12 0;
#X connect 11 0 14 0;
#X connect 13 0 6 0;
#X connect 14 0 15 0;
#X connect 15 0 13 0;
#X connect 16 0 9 0;
#X connect 17 0 10 0;
#X connect 18 0 2 0;
#X connect 19 0 7 0;
#X coords 0 1 100 -1 120 160 1 0 0;
#X restore 469 -248 graph;
#X floatatom 469 -265 5 0 0 0 - - -;
#X obj -24 -283 * 300;
#X text 14 -265 arduino;
#X text 24 -481;
#X text 24 -261;
#X text 236 -83 [POTENCIOMETRO 2] ___________________________________________________________
;
#X text 235 -305 [POTENCIOMETRO 1] ___________________________________________________________
;
#X obj -24 -505 * 127;
#X connect 1 0 0 0;
#X connect 3 0 2 0;
#X connect 5 0 4 0;
#X connect 7 0 6 0;
#X connect 9 0 8 0;
#X connect 10 0 36 0;
#X connect 10 1 12 0;
#X connect 12 0 26 0;
#X connect 13 0 54 0;
#X connect 14 0 48 0;
#X connect 19 0 26 0;
#X connect 20 0 19 0;
#X connect 23 0 24 0;
#X connect 23 1 24 1;
#X connect 23 2 24 2;
#X connect 23 3 24 3;
#X connect 23 4 24 4;
#X connect 23 5 24 5;
#X connect 23 6 24 6;
#X connect 23 7 24 7;
#X connect 24 0 13 0;
#X connect 24 1 14 0;
#X connect 24 2 15 0;
#X connect 24 3 16 0;
#X connect 24 4 17 0;
#X connect 24 5 18 0;
#X connect 24 6 21 0;
#X connect 24 7 22 0;
#X connect 25 0 27 0;
#X connect 26 0 35 0;
#X connect 26 1 29 0;
#X connect 28 0 26 0;
#X connect 29 0 25 0;
#X connect 31 0 26 0;
#X connect 35 0 23 0;
#X connect 36 0 26 0;
#X connect 39 0 38 0;
#X connect 41 0 40 0;
#X connect 43 0 42 0;
#X connect 45 0 44 0;
#X connect 47 0 46 0;
#X connect 48 0 39 0;
#X connect 48 0 41 0;
#X connect 48 0 43 0;
#X connect 48 0 45 0;
#X connect 48 0 47 0;
#X connect 54 0 1 0;
#X connect 54 0 3 0;
#X connect 54 0 5 0;
#X connect 54 0 7 0;
#X connect 54 0 9 0;
