#N canvas 491 38 518 632 10;
#X declare -lib cyclone -lib unauthorized;
#X obj -227 371 grid grid1 200 0 1 200 0 1 1 0.01 0.01 10 10 -77 541
;
#X floatatom -34 582 5 0 0 0 - - -;
#X floatatom -227 581 5 0 0 0 - - -;
#X text -186 582 X;
#X text -51 581 Y;
#X obj -154 68 import cyclone unauthorized;
#X obj -404 166 dumpOSC 11112;
#X obj -404 313 unpack f f;
#X floatatom -404 343 5 0 0 0 - - -;
#X floatatom -365 343 5 0 0 0 - - -;
#X obj -325 313 unpack f f;
#X floatatom -325 343 5 0 0 0 - - -;
#X floatatom -286 343 5 0 0 0 - - -;
#X obj -317 223 print rejected;
#X obj -404 197 OSCroute /mouse;
#X obj -404 272 OSCroute /posicion /posNorm;
#X text -394 357 x;
#X text -355 357 y;
#X text -325 358 xNorm;
#X text -285 358 yNorm;
#X text -320 163 --> recibe los mensajes osc por el;
#X text -296 174 puerto especificado en el argumento;
#X text -400 247 --> devuelve los mensajes que comienzan con /mouse
;
#X text -225 222 --> devuelve los mensajes que no comienzan con /mouse
;
#X text -407 80 recibe mensaje de tipo osc del tipo:;
#X text -191 97 /mouse/posicion x y;
#X text -192 114 /mouse/posNorm x (normalizado) y (normalizado);
#X obj -325 462 pack f f;
#X msg -305 431 bang;
#X msg -325 487 values \$1 \$2;
#X obj -314 407 expr 1 - $f1;
#X connect 0 0 2 0;
#X connect 0 1 1 0;
#X connect 6 0 14 0;
#X connect 7 0 8 0;
#X connect 7 1 9 0;
#X connect 10 0 11 0;
#X connect 10 1 12 0;
#X connect 11 0 27 0;
#X connect 12 0 30 0;
#X connect 14 0 15 0;
#X connect 14 1 13 0;
#X connect 15 0 7 0;
#X connect 15 1 10 0;
#X connect 27 0 29 0;
#X connect 28 0 27 0;
#X connect 29 0 0 0;
#X connect 30 0 27 1;
