#N canvas 39 40 1213 742 10;
#N canvas 58 252 688 345 (subpatch) 0;
#X obj 13 -97 openpanel;
#X obj 11 5 bng 15 250 50 0 empty empty empty 17 7 0 10 -262144 -1
-1;
#X obj 13 -38 soundfiler;
#X msg 13 -67 read -resize \$1 sample1;
#X floatatom 11 24 10 0 0 0 - - -;
#N canvas 0 22 450 300 (subpatch) 0;
#X array sample1 22736 float 2;
#X coords 0 1 22736 -1 100 100 1;
#X restore 10 55 graph;
#X text 31 3 <<carga audio;
#X obj 79 55 bng 30 250 50 0 empty empty empty 17 7 0 10 -258113 -1
-1;
#X obj 209 108 tabplay~ sample1;
#X obj 209 132 hip~ 5;
#X obj 205 164 dac~;
#X floatatom 83 24 5 0 201 0 - - -;
#X obj 83 -38 inlet;
#X msg 156 153 stop;
#X obj 93 138 bng 15 250 50 0 empty empty empty 17 7 0 10 -262144 -1
-1;
#X obj 132 -34 sig~;
#X obj 231 -71 threshold~ 100 0 200 0;
#X obj 233 -46 bng 15 250 50 0 empty empty empty 17 7 0 10 -262144
-1 -1;
#X msg 217 -20 bang;
#X obj 420 -36 bng 15 250 50 0 empty empty empty 17 7 0 10 -262144
-1 -1;
#X msg 414 -14 bang;
#X obj 418 -61 threshold~ 201 0 300 0;
#X connect 0 0 3 0;
#X connect 1 0 0 0;
#X connect 2 0 4 0;
#X connect 3 0 2 0;
#X connect 7 0 8 0;
#X connect 8 0 9 0;
#X connect 9 0 10 0;
#X connect 9 0 10 1;
#X connect 11 0 15 0;
#X connect 12 0 11 0;
#X connect 13 0 8 0;
#X connect 14 0 13 0;
#X connect 15 0 16 0;
#X connect 15 0 21 0;
#X connect 16 0 17 0;
#X connect 17 0 18 0;
#X connect 18 0 7 0;
#X connect 19 0 20 0;
#X connect 20 0 14 0;
#X connect 21 0 19 0;
#X coords 0 1 100 -1 120 160 1 0 0;
#X restore -24 -468 graph;
#X floatatom -24 -486 5 0 0 0 - - -;
#N canvas 748 164 617 324 (subpatch) 0;
#X obj 12 -97 openpanel;
#X obj 10 5 bng 15 250 50 0 empty empty empty 17 7 0 10 -262144 -1
-1;
#X obj 12 -38 soundfiler;
#X floatatom 10 24 10 0 0 0 - - -;
#N canvas 0 22 450 300 (subpatch) 0;
#X array sample2 7216 float 2;
#X coords 0 1 7216 -1 100 100 1;
#X restore 9 55 graph;
#X text 30 3 <<carga audio;
#X obj 78 56 bng 30 250 50 0 empty empty empty 17 7 0 10 -258113 -1
-1;
#X obj 208 132 hip~ 5;
#X obj 204 164 dac~;
#X floatatom 82 24 5 0 201 0 - - -;
#X obj 82 -38 inlet;
#X msg 155 153 stop;
#X obj 92 138 bng 15 250 50 0 empty empty empty 17 7 0 10 -262144 -1
-1;
#X obj 131 -34 sig~;
#X obj 232 -46 bng 15 250 50 0 empty empty empty 17 7 0 10 -262144
-1 -1;
#X msg 216 -20 bang;
#X obj 419 -36 bng 15 250 50 0 empty empty empty 17 7 0 10 -262144
-1 -1;
#X msg 413 -14 bang;
#X obj 208 108 tabplay~ sample2;
#X msg 12 -67 read -resize \$1 sample2;
#X obj 230 -71 threshold~ 200 0 300 0;
#X obj 417 -61 threshold~ 301 0 400 0;
#X connect 0 0 19 0;
#X connect 1 0 0 0;
#X connect 2 0 3 0;
#X connect 6 0 18 0;
#X connect 7 0 8 0;
#X connect 7 0 8 1;
#X connect 9 0 13 0;
#X connect 10 0 9 0;
#X connect 11 0 18 0;
#X connect 12 0 11 0;
#X connect 13 0 20 0;
#X connect 13 0 21 0;
#X connect 14 0 15 0;
#X connect 15 0 6 0;
#X connect 16 0 17 0;
#X connect 17 0 12 0;
#X connect 18 0 7 0;
#X connect 19 0 2 0;
#X connect 20 0 14 0;
#X connect 21 0 16 0;
#X coords 0 1 100 -1 120 160 1 0 0;
#X restore 103 -468 graph;
#X floatatom 103 -489 5 0 0 0 - - -;
#N canvas 84 101 571 297 (subpatch) 0;
#X obj 8 -97 openpanel;
#X obj 6 5 bng 15 250 50 0 empty empty empty 17 7 0 10 -262144 -1 -1
;
#X obj 8 -38 soundfiler;
#X floatatom 6 24 10 0 0 0 - - -;
#N canvas 0 22 450 300 (subpatch) 0;
#X array sample3 10368 float 2;
#X coords 0 1 10368 -1 100 100 1;
#X restore 5 55 graph;
#X text 26 3 <<carga audio;
#X obj 75 55 bng 30 250 50 0 empty empty empty 17 7 0 10 -258113 -1
-1;
#X obj 204 132 hip~ 5;
#X obj 200 164 dac~;
#X floatatom 78 24 5 0 201 0 - - -;
#X obj 78 -38 inlet;
#X msg 151 153 stop;
#X obj 88 138 bng 15 250 50 0 empty empty empty 17 7 0 10 -262144 -1
-1;
#X obj 127 -34 sig~;
#X obj 228 -46 bng 15 250 50 0 empty empty empty 17 7 0 10 -262144
-1 -1;
#X msg 212 -20 bang;
#X obj 415 -36 bng 15 250 50 0 empty empty empty 17 7 0 10 -262144
-1 -1;
#X msg 409 -14 bang;
#X obj 226 -71 threshold~ 300 0 400 0;
#X obj 413 -61 threshold~ 401 0 500 0;
#X obj 204 108 tabplay~ sample3;
#X msg 8 -67 read -resize \$1 sample3;
#X connect 0 0 21 0;
#X connect 1 0 0 0;
#X connect 2 0 3 0;
#X connect 6 0 20 0;
#X connect 7 0 8 0;
#X connect 7 0 8 1;
#X connect 9 0 13 0;
#X connect 10 0 9 0;
#X connect 11 0 20 0;
#X connect 12 0 11 0;
#X connect 13 0 18 0;
#X connect 13 0 19 0;
#X connect 14 0 15 0;
#X connect 15 0 6 0;
#X connect 16 0 17 0;
#X connect 17 0 12 0;
#X connect 18 0 14 0;
#X connect 19 0 16 0;
#X connect 20 0 7 0;
#X connect 21 0 2 0;
#X coords 0 1 100 -1 120 160 1 0 0;
#X restore 233 -468 graph;
#X floatatom 232 -486 5 0 0 0 - - -;
#N canvas 626 145 590 322 (subpatch) 0;
#X obj 11 -94 openpanel;
#X obj 9 8 bng 15 250 50 0 empty empty empty 17 7 0 10 -262144 -1 -1
;
#X obj 11 -35 soundfiler;
#X floatatom 9 27 10 0 0 0 - - -;
#N canvas 0 22 450 300 (subpatch) 0;
#X array sample4 8256 float 2;
#X coords 0 1 8256 -1 100 100 1;
#X restore 8 58 graph;
#X text 29 6 <<carga audio;
#X obj 78 58 bng 30 250 50 0 empty empty empty 17 7 0 10 -258113 -1
-1;
#X obj 207 135 hip~ 5;
#X obj 203 167 dac~;
#X floatatom 81 27 5 0 201 0 - - -;
#X obj 81 -35 inlet;
#X msg 154 156 stop;
#X obj 91 141 bng 15 250 50 0 empty empty empty 17 7 0 10 -262144 -1
-1;
#X obj 130 -31 sig~;
#X obj 231 -43 bng 15 250 50 0 empty empty empty 17 7 0 10 -262144
-1 -1;
#X msg 215 -17 bang;
#X obj 418 -33 bng 15 250 50 0 empty empty empty 17 7 0 10 -262144
-1 -1;
#X msg 412 -11 bang;
#X msg 11 -64 read -resize \$1 sample4;
#X obj 207 111 tabplay~ sample4;
#X obj 229 -68 threshold~ 400 0 500 0;
#X obj 416 -58 threshold~ 501 0 600 0;
#X connect 0 0 18 0;
#X connect 1 0 0 0;
#X connect 2 0 3 0;
#X connect 6 0 19 0;
#X connect 7 0 8 0;
#X connect 7 0 8 1;
#X connect 9 0 13 0;
#X connect 10 0 9 0;
#X connect 11 0 19 0;
#X connect 12 0 11 0;
#X connect 13 0 20 0;
#X connect 13 0 21 0;
#X connect 14 0 15 0;
#X connect 15 0 6 0;
#X connect 16 0 17 0;
#X connect 17 0 12 0;
#X connect 18 0 2 0;
#X connect 19 0 7 0;
#X connect 20 0 14 0;
#X connect 21 0 16 0;
#X coords 0 1 100 -1 120 160 1 0 0;
#X restore 365 -468 graph;
#X floatatom 365 -486 5 0 0 0 - - -;
#N canvas 124 46 566 343 (subpatch) 0;
#X obj 9 -96 openpanel;
#X obj 7 6 bng 15 250 50 0 empty empty empty 17 7 0 10 -262144 -1 -1
;
#X obj 9 -37 soundfiler;
#X floatatom 7 25 10 0 0 0 - - -;
#N canvas 0 22 450 300 (subpatch) 0;
#X array sample5 70656 float 2;
#X coords 0 1 70656 -1 100 100 1;
#X restore 6 56 graph;
#X text 27 4 <<carga audio;
#X obj 76 56 bng 30 250 50 0 empty empty empty 17 7 0 10 -258113 -1
-1;
#X obj 205 133 hip~ 5;
#X obj 201 165 dac~;
#X floatatom 79 25 5 0 201 0 - - -;
#X obj 79 -37 inlet;
#X msg 152 154 stop;
#X obj 89 139 bng 15 250 50 0 empty empty empty 17 7 0 10 -262144 -1
-1;
#X obj 128 -33 sig~;
#X obj 229 -45 bng 15 250 50 0 empty empty empty 17 7 0 10 -262144
-1 -1;
#X msg 213 -19 bang;
#X obj 416 -35 bng 15 250 50 0 empty empty empty 17 7 0 10 -262144
-1 -1;
#X msg 410 -13 bang;
#X msg 9 -66 read -resize \$1 sample5;
#X obj 205 109 tabplay~ sample5;
#X obj 227 -70 threshold~ 500 0 600 0;
#X obj 414 -60 threshold~ 601 0 700 0;
#X connect 0 0 18 0;
#X connect 1 0 0 0;
#X connect 2 0 3 0;
#X connect 6 0 19 0;
#X connect 7 0 8 0;
#X connect 7 0 8 1;
#X connect 9 0 13 0;
#X connect 10 0 9 0;
#X connect 11 0 19 0;
#X connect 12 0 11 0;
#X connect 13 0 20 0;
#X connect 13 0 21 0;
#X connect 14 0 15 0;
#X connect 15 0 6 0;
#X connect 16 0 17 0;
#X connect 17 0 12 0;
#X connect 18 0 2 0;
#X connect 19 0 7 0;
#X connect 20 0 14 0;
#X connect 21 0 16 0;
#X coords 0 1 100 -1 120 160 1 0 0;
#X restore 496 -468 graph;
#X floatatom 495 -486 5 0 0 0 - - -;
#N canvas 702 299 582 329 (subpatch) 0;
#X obj 9 -94 openpanel;
#X obj 7 8 bng 15 250 50 0 empty empty empty 17 7 0 10 -262144 -1 -1
;
#X obj 9 -35 soundfiler;
#X floatatom 7 27 10 0 0 0 - - -;
#N canvas 0 22 450 300 (subpatch) 0;
#X array sample6 4144 float 2;
#X coords 0 1 4144 -1 100 100 1;
#X restore 6 58 graph;
#X text 27 6 <<carga audio;
#X obj 76 58 bng 30 250 50 0 empty empty empty 17 7 0 10 -258113 -1
-1;
#X obj 205 135 hip~ 5;
#X obj 201 167 dac~;
#X floatatom 79 27 5 0 201 0 - - -;
#X obj 79 -35 inlet;
#X msg 152 156 stop;
#X obj 89 141 bng 15 250 50 0 empty empty empty 17 7 0 10 -262144 -1
-1;
#X obj 128 -31 sig~;
#X obj 229 -43 bng 15 250 50 0 empty empty empty 17 7 0 10 -262144
-1 -1;
#X msg 213 -17 bang;
#X obj 416 -33 bng 15 250 50 0 empty empty empty 17 7 0 10 -262144
-1 -1;
#X msg 410 -11 bang;
#X msg 9 -64 read -resize \$1 sample6;
#X obj 205 111 tabplay~ sample6;
#X obj 414 -58 threshold~ 701 0 800 0;
#X obj 227 -68 threshold~ 600 0 700 0;
#X connect 0 0 18 0;
#X connect 1 0 0 0;
#X connect 2 0 3 0;
#X connect 6 0 19 0;
#X connect 7 0 8 0;
#X connect 7 0 8 1;
#X connect 9 0 13 0;
#X connect 10 0 9 0;
#X connect 11 0 19 0;
#X connect 12 0 11 0;
#X connect 13 0 20 0;
#X connect 13 0 21 0;
#X connect 14 0 15 0;
#X connect 15 0 6 0;
#X connect 16 0 17 0;
#X connect 17 0 12 0;
#X connect 18 0 2 0;
#X connect 19 0 7 0;
#X connect 20 0 16 0;
#X connect 21 0 14 0;
#X coords 0 1 100 -1 120 160 1 0 0;
#X restore 625 -468 graph;
#X floatatom 625 -486 5 0 0 0 - - -;
#X obj -24 -505 * 701;
#N canvas 518 22 490 408 arduino 0;
#X obj 21 52 cnv 15 60 22 empty empty empty 20 12 0 14 -253938 -66577
0;
#N canvas 146 163 525 433 serin 0;
#X obj 180 61 cnv 15 15 15 empty \$0-number-canvas 6 4 8 0 14 -233017
-1 0;
#X obj 200 225 s \$0-number-canvas;
#X obj 60 61 hradio 15 1 1 8 empty empty empty 0 -6 0 8 -225271 -1
-1 6;
#X obj 60 13 inlet;
#X msg 200 202 label \$1;
#X obj 200 180 makefilename %d;
#X obj 59 108 int;
#X msg 59 206 open \$1;
#X obj 59 377 outlet;
#X msg 201 306 set \$1 \$2;
#X obj 59 266 trigger bang anything;
#X obj 201 286 list;
#X obj 383 383 outlet;
#X obj 384 22 netreceive 34567;
#X obj 477 43 tgl 15 0 empty empty empty 0 -6 0 10 -262144 -1 -1 0
1;
#X obj 384 41 bng 15 250 50 0 empty empty empty 0 -6 0 10 -262144 -1
-1;
#X obj 187 24 delay 15000;
#X text 345 379 close;
#X text 209 4 for open/close automation in Makefile;
#X obj 184 95 bang;
#X obj 184 137 send ARDUINO_TEST_RESET;
#X msg 184 116 set 0;
#X connect 2 0 6 0;
#X connect 2 0 19 0;
#X connect 3 0 2 0;
#X connect 4 0 1 0;
#X connect 5 0 4 0;
#X connect 6 0 5 0;
#X connect 6 0 7 0;
#X connect 7 0 10 0;
#X connect 9 0 8 0;
#X connect 10 0 8 0;
#X connect 10 1 11 0;
#X connect 11 0 9 0;
#X connect 13 0 15 0;
#X connect 13 1 14 0;
#X connect 15 0 16 0;
#X connect 15 0 12 0;
#X connect 16 0 2 0;
#X connect 19 0 21 0;
#X connect 21 0 20 0;
#X coords 0 -1 1 1 136 17 1 60 60;
#X restore 27 31 pd serin;
#X msg 87 54 close;
#X floatatom 21 334 5 0 0 3 a0 - -;
#X floatatom 67 334 5 0 0 3 a1 - -;
#X floatatom 113 334 5 0 0 3 a2 - -;
#X floatatom 159 334 5 0 0 3 a3 - -;
#X floatatom 205 334 5 0 0 3 a4 - -;
#X floatatom 251 334 5 0 0 3 a5 - -;
#X msg 120 94 info;
#X msg 120 114 version;
#X floatatom 297 334 5 0 0 3 a6 - -;
#X floatatom 343 334 5 0 0 3 a7 - -;
#X obj 120 277 route 0 1 2 3 4 5 6 7;
#N canvas 981 48 499 396 display 0;
#X obj 6 7 inlet;
#X obj 6 28 mapping/resample 100;
#X obj 6 50 outlet;
#X obj 54 50 inlet;
#X obj 54 71 mapping/resample 100;
#X obj 54 93 outlet;
#X obj 103 93 inlet;
#X obj 103 114 mapping/resample 100;
#X obj 103 136 outlet;
#X obj 151 136 inlet;
#X obj 151 157 mapping/resample 100;
#X obj 151 179 outlet;
#X obj 200 179 inlet;
#X obj 200 200 mapping/resample 100;
#X obj 200 222 outlet;
#X obj 247 222 inlet;
#X obj 247 243 mapping/resample 100;
#X obj 247 265 outlet;
#X obj 295 265 inlet;
#X obj 295 286 mapping/resample 100;
#X obj 295 308 outlet;
#X obj 345 308 inlet;
#X obj 345 329 mapping/resample 100;
#X obj 345 351 outlet;
#X obj 60 290 receive ARDUINO_TEST_RESET;
#X connect 0 0 1 0;
#X connect 1 0 2 0;
#X connect 3 0 4 0;
#X connect 4 0 5 0;
#X connect 6 0 7 0;
#X connect 7 0 8 0;
#X connect 9 0 10 0;
#X connect 10 0 11 0;
#X connect 12 0 13 0;
#X connect 13 0 14 0;
#X connect 15 0 16 0;
#X connect 16 0 17 0;
#X connect 18 0 19 0;
#X connect 19 0 20 0;
#X connect 21 0 22 0;
#X connect 22 0 23 0;
#X connect 24 0 22 0;
#X connect 24 0 19 0;
#X connect 24 0 16 0;
#X connect 24 0 13 0;
#X connect 24 0 10 0;
#X connect 24 0 7 0;
#X connect 24 0 4 0;
#X connect 24 0 1 0;
#X restore 44 308 pd display values without pegging the CPU;
#N canvas 3 48 451 224 ver 0;
#X obj 23 7 inlet;
#X obj 250 100 cnv 15 145 17 empty \$0-version_cnv empty 4 10 0 12
-203904 -1 0;
#X obj 23 157 send \$0-version_cnv;
#X msg 23 132 label \$1;
#X obj 48 103 symbol;
#X obj 38 77 loadbang;
#X msg 96 78 bang;
#X obj 309 163 outlet;
#X obj 23 52 zexy/makesymbol Firmata-%s.%s;
#X obj 23 29 route version bang;
#X connect 0 0 9 0;
#X connect 3 0 2 0;
#X connect 4 0 3 0;
#X connect 5 0 4 0;
#X connect 6 0 4 0;
#X connect 8 0 3 0;
#X connect 9 0 8 0;
#X connect 9 1 7 0;
#X connect 9 1 6 0;
#X connect 9 2 7 0;
#X coords 0 -1 1 1 145 17 1 250 100;
#X restore 176 51 pd ver;
#X obj 120 225 arduino 1;
#N canvas 649 518 411 212 firmware 0;
#X obj 123 2 inlet;
#X obj 250 100 cnv 15 145 17 empty \$0-firmware_cnv empty 4 10 0 12
-232576 -66577 0;
#X msg 123 156 label \$1;
#X obj 148 127 symbol;
#X obj 138 101 loadbang;
#X msg 196 102 bang;
#X obj 123 181 send \$0-firmware_cnv;
#X obj 123 24 route firmware;
#X obj 18 181 print Firmware;
#X obj 123 49 list;
#X obj 123 80 zexy/makesymbol %s-%s.%s;
#X obj 18 151 list trim;
#X obj 204 45 route bang;
#X connect 0 0 7 0;
#X connect 2 0 6 0;
#X connect 3 0 2 0;
#X connect 4 0 3 0;
#X connect 5 0 3 0;
#X connect 7 0 9 0;
#X connect 7 1 12 0;
#X connect 9 0 10 0;
#X connect 10 0 2 0;
#X connect 10 0 11 0;
#X connect 11 0 8 0;
#X connect 12 0 5 0;
#X coords 0 -1 1 1 145 17 1 250 100;
#X restore 176 71 pd firmware;
#X msg 120 154 devices;
#X msg 120 134 firmware;
#N canvas 205 22 593 390 strings 0;
#X obj -178 287 outlet;
#X obj -142 101 moocow/any2string;
#X symbolatom -92 48 10 0 0 0 - - -;
#X obj -119 179 pddp/print;
#X obj -92 68 list trim;
#X msg -175 39 test;
#X msg -139 40 TEST;
#X obj -142 130 cyclone/prepend string;
#X obj -313 102 moocow/any2string;
#X symbolatom -263 49 10 0 0 0 - - -;
#X obj -314 202 pddp/print;
#X obj -263 69 list trim;
#X msg -346 40 test;
#X msg -310 41 TEST;
#X obj -313 153 cyclone/prepend sysex;
#X obj -313 131 cyclone/prepend 40;
#X msg 66 117 samplingInterval \$1;
#X obj 69 93 hsl 128 15 0 127 0 0 empty empty empty -2 -8 0 10 -262144
-1 -1 0 1;
#X floatatom 27 117 5 0 0 0 - - -;
#X connect 1 0 7 0;
#X connect 2 0 4 0;
#X connect 4 0 1 0;
#X connect 5 0 1 0;
#X connect 6 0 1 0;
#X connect 7 0 3 0;
#X connect 7 0 0 0;
#X connect 8 0 15 0;
#X connect 9 0 11 0;
#X connect 11 0 8 0;
#X connect 12 0 8 0;
#X connect 13 0 8 0;
#X connect 14 0 0 0;
#X connect 14 0 10 0;
#X connect 15 0 14 0;
#X connect 16 0 0 0;
#X connect 17 0 16 0;
#X connect 17 0 18 0;
#X restore 182 207 pd strings and special messages;
#N canvas 626 98 404 287 device 0;
#X obj 35 60 inlet;
#X obj 35 118 route open port ports;
#X obj 35 169 tgl 15 0 empty empty open -3 20 0 10 -262144 -1 -1 0
1;
#X floatatom 76 170 5 0 0 3 port - -;
#X obj 117 170 print comport_ports;
#X obj 252 170 outlet;
#X obj 235 74 receive ARDUINO_TEST_RESET;
#X obj 235 97 bang;
#X connect 0 0 1 0;
#X connect 1 0 2 0;
#X connect 1 1 3 0;
#X connect 1 2 4 0;
#X connect 1 3 5 0;
#X connect 6 0 7 0;
#X connect 7 0 5 0;
#X restore 176 29 pd device info;
#X text 268 29 <- open to see info;
#N canvas 0 22 450 300 old 0;
#X msg 95 138 digitalIns 0 0;
#X msg 88 77 analogIns 0 1;
#N canvas 162 133 610 460 serin 0;
#X obj 59 337 outlet;
#X obj 59 266 trigger bang anything;
#X obj 201 286 list;
#X obj 60 61 tgl 15 0 junk_to_hide_inlet ARDUINO_TEST_RESET 0 5 9 1
12 -262130 -1 -1 0 1;
#X obj 75 61 tgl 15 0 junk_to_hide_inlet ARDUINO_TEST_RESET 1 5 9 1
12 -262130 -1 -1 0 1;
#X obj 90 61 tgl 15 0 junk_to_hide_inlet ARDUINO_TEST_RESET 2 5 9 1
12 -262130 -1 -1 0 1;
#X obj 105 61 tgl 15 0 junk_to_hide_inlet ARDUINO_TEST_RESET 3 5 9
1 12 -262130 -1 -1 0 1;
#X obj 120 61 tgl 15 0 junk_to_hide_inlet ARDUINO_TEST_RESET 4 5 9
1 12 -262130 -1 -1 0 1;
#X obj 135 61 tgl 15 0 junk_to_hide_inlet ARDUINO_TEST_RESET 5 5 9
1 12 -262130 -1 -1 0 1;
#X obj 150 61 tgl 15 0 junk_to_hide_inlet ARDUINO_TEST_RESET 6 5 9
1 12 -262130 -1 -1 0 1;
#X obj 165 61 tgl 15 0 junk_to_hide_inlet ARDUINO_TEST_RESET 7 5 9
1 12 -262130 -1 -1 0 1;
#X msg 59 210 analogIns \$1 \$2;
#X msg 35 106 0 \$1;
#X msg 70 106 1 \$1;
#X msg 105 106 2 \$1;
#X msg 140 106 3 \$1;
#X msg 175 106 4 \$1;
#X msg 210 106 5 \$1;
#X msg 245 106 6 \$1;
#X msg 280 106 7 \$1;
#X msg 202 307 set \$1 \$2 \$3;
#X connect 1 0 0 0;
#X connect 1 1 2 0;
#X connect 2 0 20 0;
#X connect 3 0 12 0;
#X connect 4 0 13 0;
#X connect 5 0 14 0;
#X connect 6 0 15 0;
#X connect 7 0 16 0;
#X connect 8 0 17 0;
#X connect 9 0 18 0;
#X connect 10 0 19 0;
#X connect 11 0 1 0;
#X connect 12 0 11 0;
#X connect 13 0 11 0;
#X connect 14 0 11 0;
#X connect 15 0 11 0;
#X connect 16 0 11 0;
#X connect 17 0 11 0;
#X connect 18 0 11 0;
#X connect 19 0 11 0;
#X connect 20 0 0 0;
#X coords 0 -1 1 1 120 16 1 60 60;
#X restore 88 55 pd serin;
#X text 87 38 which analogIns to enable:;
#X text 94 101 which digital ports to enable:;
#N canvas 162 133 610 460 seri 0;
#X obj 59 337 outlet;
#X obj 59 266 trigger bang anything;
#X obj 201 286 list;
#X obj 60 61 tgl 15 0 junk_to_hide_inlet ARDUINO_TEST_RESET 0 5 9 1
12 -260736 -1 -1 0 1;
#X obj 75 61 tgl 15 0 junk_to_hide_inlet ARDUINO_TEST_RESET 1 5 9 1
12 -260736 -1 -1 0 1;
#X obj 90 61 tgl 15 0 junk_to_hide_inlet ARDUINO_TEST_RESET 2 5 9 1
12 -260736 -1 -1 0 1;
#X msg 35 106 0 \$1;
#X msg 70 106 1 \$1;
#X msg 105 106 2 \$1;
#X msg 202 307 set \$1 \$2 \$3;
#X msg 59 210 digitalIns \$1 \$2;
#X connect 1 0 0 0;
#X connect 1 1 2 0;
#X connect 2 0 9 0;
#X connect 3 0 6 0;
#X connect 4 0 7 0;
#X connect 5 0 8 0;
#X connect 6 0 10 0;
#X connect 7 0 10 0;
#X connect 8 0 10 0;
#X connect 9 0 0 0;
#X connect 10 0 1 0;
#X coords 0 -1 1 1 45 16 1 60 60;
#X restore 95 118 pd seri;
#X obj 42 179 outlet;
#X connect 0 0 6 0;
#X connect 1 0 6 0;
#X connect 2 0 1 0;
#X connect 5 0 0 0;
#X restore 182 184 pd old analog/digital controls;
#X text 184 112 <-- get protocol version;
#X text 184 132 <-- get firmware name and version;
#X text 184 93 <-- get connection info;
#X text 180 224 <-- argument sets port #;
#X text 184 152 <-- list available serial devices;
#X text 202 365 digital inputs show up here -->;
#X text 8 277 analog inputs:;
#X obj 120 257 route analog digital string sysex;
#X msg 27 54 open 6;
#X floatatom 20 381 5 0 0 0 - - -;
#X obj 18 424 s val1;
#X floatatom 69 374 5 0 0 0 - - -;
#X obj 69 425 s val2;
#X floatatom 125 381 5 0 0 0 - - -;
#X obj 123 424 s val3;
#X obj -10 398 * 1;
#X connect 1 0 32 0;
#X connect 1 1 2 0;
#X connect 2 0 16 0;
#X connect 3 0 33 0;
#X connect 3 0 35 0;
#X connect 3 0 37 0;
#X connect 9 0 16 0;
#X connect 10 0 16 0;
#X connect 13 0 14 0;
#X connect 13 1 14 1;
#X connect 13 2 14 2;
#X connect 13 3 14 3;
#X connect 13 4 14 4;
#X connect 13 5 14 5;
#X connect 13 6 14 6;
#X connect 13 7 14 7;
#X connect 14 0 3 0;
#X connect 14 1 4 0;
#X connect 14 2 5 0;
#X connect 14 3 6 0;
#X connect 14 4 7 0;
#X connect 14 5 8 0;
#X connect 14 6 11 0;
#X connect 14 7 12 0;
#X connect 15 0 17 0;
#X connect 16 0 31 0;
#X connect 16 1 21 0;
#X connect 18 0 16 0;
#X connect 19 0 16 0;
#X connect 20 0 16 0;
#X connect 21 0 15 0;
#X connect 23 0 16 0;
#X connect 31 0 13 0;
#X connect 32 0 16 0;
#X connect 33 0 39 0;
#X connect 35 0 36 0;
#X connect 37 0 38 0;
#X connect 39 0 34 0;
#X restore 15 -506 pd arduino;
#X obj -70 -505 r val1;
#X obj -70 -305 r val2;
#N canvas 342 224 688 345 (subpatch) 0;
#X obj 13 -97 openpanel;
#X obj 11 5 bng 15 250 50 0 empty empty empty 17 7 0 10 -262144 -1
-1;
#X obj 13 -38 soundfiler;
#X floatatom 11 24 10 0 0 0 - - -;
#N canvas 0 22 450 300 (subpatch) 0;
#X array sample7 4144 float 2;
#X coords 0 1 4144 -1 100 100 1;
#X restore 10 55 graph;
#X text 31 3 <<carga audio;
#X obj 81 55 bng 30 250 50 0 empty empty empty 17 7 0 10 -258113 -1
-1;
#X obj 209 132 hip~ 5;
#X obj 205 164 dac~;
#X floatatom 83 24 5 0 201 0 - - -;
#X obj 83 -38 inlet;
#X msg 156 153 stop;
#X obj 93 138 bng 15 250 50 0 empty empty empty 17 7 0 10 -262144 -1
-1;
#X obj 132 -34 sig~;
#X obj 231 -71 threshold~ 100 0 200 0;
#X obj 233 -46 bng 15 250 50 0 empty empty empty 17 7 0 10 -262144
-1 -1;
#X msg 217 -20 bang;
#X obj 420 -36 bng 15 250 50 0 empty empty empty 17 7 0 10 -262144
-1 -1;
#X msg 414 -14 bang;
#X obj 418 -61 threshold~ 201 0 300 0;
#X obj 209 108 tabplay~ sample7;
#X msg 13 -67 read -resize \$1 sample7;
#X connect 0 0 21 0;
#X connect 1 0 0 0;
#X connect 2 0 3 0;
#X connect 6 0 20 0;
#X connect 7 0 8 0;
#X connect 7 0 8 1;
#X connect 9 0 13 0;
#X connect 10 0 9 0;
#X connect 11 0 20 0;
#X connect 12 0 11 0;
#X connect 13 0 14 0;
#X connect 13 0 19 0;
#X connect 14 0 15 0;
#X connect 15 0 16 0;
#X connect 16 0 6 0;
#X connect 17 0 18 0;
#X connect 18 0 12 0;
#X connect 19 0 17 0;
#X connect 20 0 7 0;
#X connect 21 0 2 0;
#X coords 0 1 100 -1 120 160 1 0 0;
#X restore -24 -267 graph;
#X floatatom -24 -285 5 0 0 0 - - -;
#N canvas 748 164 617 324 (subpatch) 0;
#X obj 12 -97 openpanel;
#X obj 10 5 bng 15 250 50 0 empty empty empty 17 7 0 10 -262144 -1
-1;
#X obj 12 -38 soundfiler;
#X floatatom 10 24 10 0 0 0 - - -;
#N canvas 0 22 450 300 (subpatch) 0;
#X array sample8 1302 float 2;
#X coords 0 1 1302 -1 100 100 1;
#X restore 9 55 graph;
#X text 30 3 <<carga audio;
#X obj 79 55 bng 30 250 50 0 empty empty empty 17 7 0 10 -258113 -1
-1;
#X obj 208 132 hip~ 5;
#X obj 204 164 dac~;
#X floatatom 82 24 5 0 201 0 - - -;
#X obj 82 -38 inlet;
#X msg 155 153 stop;
#X obj 92 138 bng 15 250 50 0 empty empty empty 17 7 0 10 -262144 -1
-1;
#X obj 131 -34 sig~;
#X obj 232 -46 bng 15 250 50 0 empty empty empty 17 7 0 10 -262144
-1 -1;
#X msg 216 -20 bang;
#X obj 419 -36 bng 15 250 50 0 empty empty empty 17 7 0 10 -262144
-1 -1;
#X msg 413 -14 bang;
#X obj 230 -71 threshold~ 200 0 300 0;
#X obj 417 -61 threshold~ 301 0 400 0;
#X obj 208 108 tabplay~ sample8;
#X msg 12 -67 read -resize \$1 sample8;
#X connect 0 0 21 0;
#X connect 1 0 0 0;
#X connect 2 0 3 0;
#X connect 6 0 20 0;
#X connect 7 0 8 0;
#X connect 7 0 8 1;
#X connect 9 0 13 0;
#X connect 10 0 9 0;
#X connect 11 0 20 0;
#X connect 12 0 11 0;
#X connect 13 0 18 0;
#X connect 13 0 19 0;
#X connect 14 0 15 0;
#X connect 15 0 6 0;
#X connect 16 0 17 0;
#X connect 17 0 12 0;
#X connect 18 0 14 0;
#X connect 19 0 16 0;
#X connect 20 0 7 0;
#X connect 21 0 2 0;
#X coords 0 1 100 -1 120 160 1 0 0;
#X restore 103 -267 graph;
#X floatatom 103 -288 5 0 0 0 - - -;
#N canvas 84 101 571 297 (subpatch) 0;
#X obj 8 -97 openpanel;
#X obj 6 5 bng 15 250 50 0 empty empty empty 17 7 0 10 -262144 -1 -1
;
#X obj 8 -38 soundfiler;
#X floatatom 6 24 10 0 0 0 - - -;
#N canvas 0 22 450 300 (subpatch) 0;
#X array sample9 36736 float 2;
#X coords 0 1 36736 -1 100 100 1 0 0;
#X restore 5 55 graph;
#X text 26 3 <<carga audio;
#X obj 74 55 bng 30 250 50 0 empty empty empty 17 7 0 10 -258113 -1
-1;
#X obj 204 132 hip~ 5;
#X obj 200 164 dac~;
#X floatatom 78 24 5 0 201 0 - - -;
#X obj 78 -38 inlet;
#X msg 151 153 stop;
#X obj 88 138 bng 15 250 50 0 empty empty empty 17 7 0 10 -262144 -1
-1;
#X obj 127 -34 sig~;
#X obj 228 -46 bng 15 250 50 0 empty empty empty 17 7 0 10 -262144
-1 -1;
#X msg 212 -20 bang;
#X obj 415 -36 bng 15 250 50 0 empty empty empty 17 7 0 10 -262144
-1 -1;
#X msg 409 -14 bang;
#X obj 226 -71 threshold~ 300 0 400 0;
#X obj 413 -61 threshold~ 401 0 500 0;
#X obj 204 108 tabplay~ sample9;
#X msg 8 -67 read -resize \$1 sample9;
#X connect 0 0 21 0;
#X connect 1 0 0 0;
#X connect 2 0 3 0;
#X connect 6 0 20 0;
#X connect 7 0 8 0;
#X connect 7 0 8 1;
#X connect 9 0 13 0;
#X connect 10 0 9 0;
#X connect 11 0 20 0;
#X connect 12 0 11 0;
#X connect 13 0 18 0;
#X connect 13 0 19 0;
#X connect 14 0 15 0;
#X connect 15 0 6 0;
#X connect 16 0 17 0;
#X connect 17 0 12 0;
#X connect 18 0 14 0;
#X connect 19 0 16 0;
#X connect 20 0 7 0;
#X connect 21 0 2 0;
#X coords 0 1 100 -1 120 160 1 0 0;
#X restore 233 -267 graph;
#X floatatom 232 -285 5 0 0 0 - - -;
#N canvas 626 145 590 322 (subpatch) 0;
#X obj 11 -94 openpanel;
#X obj 9 8 bng 15 250 50 0 empty empty empty 17 7 0 10 -262144 -1 -1
;
#X obj 11 -35 soundfiler;
#X floatatom 9 27 10 0 0 0 - - -;
#N canvas 0 22 450 300 (subpatch) 0;
#X array sample10 32512 float 2;
#X coords 0 1 32512 -1 100 100 1;
#X restore 8 58 graph;
#X text 29 6 <<carga audio;
#X obj 78 58 bng 30 250 50 0 empty empty empty 17 7 0 10 -258113 -1
-1;
#X obj 207 135 hip~ 5;
#X obj 203 167 dac~;
#X floatatom 81 27 5 0 201 0 - - -;
#X obj 81 -35 inlet;
#X msg 154 156 stop;
#X obj 91 141 bng 15 250 50 0 empty empty empty 17 7 0 10 -262144 -1
-1;
#X obj 130 -31 sig~;
#X obj 231 -43 bng 15 250 50 0 empty empty empty 17 7 0 10 -262144
-1 -1;
#X msg 215 -17 bang;
#X obj 418 -33 bng 15 250 50 0 empty empty empty 17 7 0 10 -262144
-1 -1;
#X msg 412 -11 bang;
#X obj 229 -68 threshold~ 400 0 500 0;
#X obj 416 -58 threshold~ 501 0 600 0;
#X obj 207 111 tabplay~ sample10;
#X msg 11 -64 read -resize \$1 sample10;
#X connect 0 0 21 0;
#X connect 1 0 0 0;
#X connect 2 0 3 0;
#X connect 6 0 20 0;
#X connect 7 0 8 0;
#X connect 7 0 8 1;
#X connect 9 0 13 0;
#X connect 10 0 9 0;
#X connect 11 0 20 0;
#X connect 12 0 11 0;
#X connect 13 0 18 0;
#X connect 13 0 19 0;
#X connect 14 0 15 0;
#X connect 15 0 6 0;
#X connect 16 0 17 0;
#X connect 17 0 12 0;
#X connect 18 0 14 0;
#X connect 19 0 16 0;
#X connect 20 0 7 0;
#X connect 21 0 2 0;
#X coords 0 1 100 -1 120 160 1 0 0;
#X restore 365 -267 graph;
#X floatatom 365 -285 5 0 0 0 - - -;
#N canvas 124 46 566 343 (subpatch) 0;
#X obj 9 -96 openpanel;
#X obj 7 6 bng 15 250 50 0 empty empty empty 17 7 0 10 -262144 -1 -1
;
#X obj 9 -37 soundfiler;
#X floatatom 7 25 10 0 0 0 - - -;
#N canvas 0 22 450 300 (subpatch) 0;
#X array sample11 22736 float 2;
#X coords 0 1 22736 -1 100 100 1 0 0;
#X restore 6 56 graph;
#X text 27 4 <<carga audio;
#X obj 75 55 bng 30 250 50 0 empty empty empty 17 7 0 10 -258113 -1
-1;
#X obj 205 133 hip~ 5;
#X obj 201 165 dac~;
#X floatatom 79 25 5 0 201 0 - - -;
#X obj 79 -37 inlet;
#X msg 152 154 stop;
#X obj 89 139 bng 15 250 50 0 empty empty empty 17 7 0 10 -262144 -1
-1;
#X obj 128 -33 sig~;
#X obj 229 -45 bng 15 250 50 0 empty empty empty 17 7 0 10 -262144
-1 -1;
#X msg 213 -19 bang;
#X obj 416 -35 bng 15 250 50 0 empty empty empty 17 7 0 10 -262144
-1 -1;
#X msg 410 -13 bang;
#X obj 227 -70 threshold~ 500 0 600 0;
#X obj 414 -60 threshold~ 601 0 700 0;
#X obj 205 109 tabplay~ sample11;
#X msg 9 -66 read -resize \$1 sample11;
#X connect 0 0 21 0;
#X connect 1 0 0 0;
#X connect 2 0 3 0;
#X connect 6 0 20 0;
#X connect 7 0 8 0;
#X connect 7 0 8 1;
#X connect 9 0 13 0;
#X connect 10 0 9 0;
#X connect 11 0 20 0;
#X connect 12 0 11 0;
#X connect 13 0 18 0;
#X connect 13 0 19 0;
#X connect 14 0 15 0;
#X connect 15 0 6 0;
#X connect 16 0 17 0;
#X connect 17 0 12 0;
#X connect 18 0 14 0;
#X connect 19 0 16 0;
#X connect 20 0 7 0;
#X connect 21 0 2 0;
#X coords 0 1 100 -1 120 160 1 0 0;
#X restore 496 -267 graph;
#X floatatom 495 -285 5 0 0 0 - - -;
#N canvas 702 299 582 329 (subpatch) 0;
#X obj 9 -94 openpanel;
#X obj 7 8 bng 15 250 50 0 empty empty empty 17 7 0 10 -262144 -1 -1
;
#X obj 9 -35 soundfiler;
#X floatatom 7 27 10 0 0 0 - - -;
#N canvas 0 22 450 300 (subpatch) 0;
#X array sample12 2592 float 2;
#X coords 0 1 2592 -1 100 100 1;
#X restore 6 58 graph;
#X text 27 6 <<carga audio;
#X obj 76 57 bng 30 250 50 0 empty empty empty 17 7 0 10 -258113 -1
-1;
#X obj 205 135 hip~ 5;
#X obj 201 167 dac~;
#X floatatom 79 27 5 0 201 0 - - -;
#X obj 79 -35 inlet;
#X msg 152 156 stop;
#X obj 89 141 bng 15 250 50 0 empty empty empty 17 7 0 10 -262144 -1
-1;
#X obj 128 -31 sig~;
#X obj 229 -43 bng 15 250 50 0 empty empty empty 17 7 0 10 -262144
-1 -1;
#X msg 213 -17 bang;
#X obj 416 -33 bng 15 250 50 0 empty empty empty 17 7 0 10 -262144
-1 -1;
#X msg 410 -11 bang;
#X obj 414 -58 threshold~ 701 0 800 0;
#X obj 227 -68 threshold~ 600 0 700 0;
#X obj 205 111 tabplay~ sample12;
#X msg 9 -64 read -resize \$1 sample12;
#X connect 0 0 21 0;
#X connect 1 0 0 0;
#X connect 2 0 3 0;
#X connect 6 0 20 0;
#X connect 7 0 8 0;
#X connect 7 0 8 1;
#X connect 9 0 13 0;
#X connect 10 0 9 0;
#X connect 11 0 20 0;
#X connect 12 0 11 0;
#X connect 13 0 18 0;
#X connect 13 0 19 0;
#X connect 14 0 15 0;
#X connect 15 0 6 0;
#X connect 16 0 17 0;
#X connect 17 0 12 0;
#X connect 18 0 16 0;
#X connect 19 0 14 0;
#X connect 20 0 7 0;
#X connect 21 0 2 0;
#X coords 0 1 100 -1 120 160 1 0 0;
#X restore 625 -267 graph;
#X floatatom 625 -285 5 0 0 0 - - -;
#X obj -24 -304 * 701;
#N canvas 477 153 688 345 (subpatch) 0;
#X obj 13 -97 openpanel;
#X obj 11 5 bng 15 250 50 0 empty empty empty 17 7 0 10 -262144 -1
-1;
#X obj 13 -38 soundfiler;
#X floatatom 11 24 10 0 0 0 - - -;
#N canvas 0 22 450 300 (subpatch) 0;
#X array sample13 10368 float 2;
#X coords 0 1 10368 -1 100 100 1;
#X restore 10 55 graph;
#X text 31 3 <<carga audio;
#X obj 81 55 bng 30 250 50 0 empty empty empty 17 7 0 10 -258113 -1
-66577;
#X obj 209 132 hip~ 5;
#X obj 205 164 dac~;
#X floatatom 83 24 5 0 201 0 - - -;
#X obj 83 -38 inlet;
#X msg 156 153 stop;
#X obj 93 138 bng 15 250 50 0 empty empty empty 17 7 0 10 -262144 -1
-1;
#X obj 132 -34 sig~;
#X obj 231 -71 threshold~ 100 0 200 0;
#X obj 233 -46 bng 15 250 50 0 empty empty empty 17 7 0 10 -262144
-1 -1;
#X msg 217 -20 bang;
#X obj 420 -36 bng 15 250 50 0 empty empty empty 17 7 0 10 -262144
-1 -1;
#X msg 414 -14 bang;
#X obj 418 -61 threshold~ 201 0 300 0;
#X obj 209 108 tabplay~ sample13;
#X msg 13 -67 read -resize \$1 sample13;
#X connect 0 0 21 0;
#X connect 1 0 0 0;
#X connect 2 0 3 0;
#X connect 6 0 20 0;
#X connect 7 0 8 0;
#X connect 7 0 8 1;
#X connect 9 0 13 0;
#X connect 10 0 9 0;
#X connect 11 0 20 0;
#X connect 12 0 11 0;
#X connect 13 0 14 0;
#X connect 13 0 19 0;
#X connect 14 0 15 0;
#X connect 15 0 16 0;
#X connect 16 0 6 0;
#X connect 17 0 18 0;
#X connect 18 0 12 0;
#X connect 19 0 17 0;
#X connect 20 0 7 0;
#X connect 21 0 2 0;
#X coords 0 1 100 -1 120 160 1 0 0;
#X restore -24 -63 graph;
#N canvas 748 164 617 324 (subpatch) 0;
#X obj 12 -97 openpanel;
#X obj 10 5 bng 15 250 50 0 empty empty empty 17 7 0 10 -262144 -1
-1;
#X obj 12 -38 soundfiler;
#X floatatom 10 24 10 0 0 0 - - -;
#N canvas 0 22 450 300 (subpatch) 0;
#X array sample14 8256 float 2;
#X coords 0 1 8256 -1 100 100 1;
#X restore 9 55 graph;
#X text 30 3 <<carga audio;
#X obj 79 55 bng 30 250 50 0 empty empty empty 17 7 0 10 -258113 -1
-1;
#X obj 208 132 hip~ 5;
#X obj 204 164 dac~;
#X floatatom 82 24 5 0 201 0 - - -;
#X obj 82 -38 inlet;
#X msg 155 153 stop;
#X obj 92 138 bng 15 250 50 0 empty empty empty 17 7 0 10 -262144 -1
-1;
#X obj 131 -34 sig~;
#X obj 232 -46 bng 15 250 50 0 empty empty empty 17 7 0 10 -262144
-1 -1;
#X msg 216 -20 bang;
#X obj 419 -36 bng 15 250 50 0 empty empty empty 17 7 0 10 -262144
-1 -1;
#X msg 413 -14 bang;
#X obj 230 -71 threshold~ 200 0 300 0;
#X obj 417 -61 threshold~ 301 0 400 0;
#X obj 208 108 tabplay~ sample14;
#X msg 12 -67 read -resize \$1 sample14;
#X connect 0 0 21 0;
#X connect 1 0 0 0;
#X connect 2 0 3 0;
#X connect 6 0 20 0;
#X connect 7 0 8 0;
#X connect 7 0 8 1;
#X connect 9 0 13 0;
#X connect 10 0 9 0;
#X connect 11 0 20 0;
#X connect 12 0 11 0;
#X connect 13 0 18 0;
#X connect 13 0 19 0;
#X connect 14 0 15 0;
#X connect 15 0 6 0;
#X connect 16 0 17 0;
#X connect 17 0 12 0;
#X connect 18 0 14 0;
#X connect 19 0 16 0;
#X connect 20 0 7 0;
#X connect 21 0 2 0;
#X coords 0 1 100 -1 120 160 1 0 0;
#X restore 103 -63 graph;
#X floatatom 103 -84 5 0 0 0 - - -;
#N canvas 84 101 571 297 (subpatch) 0;
#X obj 8 -97 openpanel;
#X obj 6 5 bng 15 250 50 0 empty empty empty 17 7 0 10 -262144 -1 -1
;
#X obj 8 -38 soundfiler;
#X floatatom 6 24 10 0 0 0 - - -;
#N canvas 0 22 450 300 (subpatch) 0;
#X array sample15 70656 float 2;
#X coords 0 1 70656 -1 100 100 1 0 0;
#X restore 5 55 graph;
#X text 26 3 <<carga audio;
#X obj 75 55 bng 30 250 50 0 empty empty empty 17 7 0 10 -258113 -1
-1;
#X obj 204 132 hip~ 5;
#X obj 200 164 dac~;
#X floatatom 78 24 5 0 201 0 - - -;
#X obj 78 -38 inlet;
#X msg 151 153 stop;
#X obj 88 138 bng 15 250 50 0 empty empty empty 17 7 0 10 -262144 -1
-1;
#X obj 127 -34 sig~;
#X obj 228 -46 bng 15 250 50 0 empty empty empty 17 7 0 10 -262144
-1 -1;
#X msg 212 -20 bang;
#X obj 415 -36 bng 15 250 50 0 empty empty empty 17 7 0 10 -262144
-1 -1;
#X msg 409 -14 bang;
#X obj 226 -71 threshold~ 300 0 400 0;
#X obj 413 -61 threshold~ 401 0 500 0;
#X obj 204 108 tabplay~ sample15;
#X msg 8 -67 read -resize \$1 sample15;
#X connect 0 0 21 0;
#X connect 1 0 0 0;
#X connect 2 0 3 0;
#X connect 6 0 20 0;
#X connect 7 0 8 0;
#X connect 7 0 8 1;
#X connect 9 0 13 0;
#X connect 10 0 9 0;
#X connect 11 0 20 0;
#X connect 12 0 11 0;
#X connect 13 0 18 0;
#X connect 13 0 19 0;
#X connect 14 0 15 0;
#X connect 15 0 6 0;
#X connect 16 0 17 0;
#X connect 17 0 12 0;
#X connect 18 0 14 0;
#X connect 19 0 16 0;
#X connect 20 0 7 0;
#X connect 21 0 2 0;
#X coords 0 1 100 -1 120 160 1 0 0;
#X restore 233 -63 graph;
#X floatatom 232 -81 5 0 0 0 - - -;
#N canvas 626 145 590 322 (subpatch) 0;
#X obj 11 -94 openpanel;
#X obj 9 8 bng 15 250 50 0 empty empty empty 17 7 0 10 -262144 -1 -1
;
#X obj 11 -35 soundfiler;
#X floatatom 9 27 10 0 0 0 - - -;
#N canvas 0 22 450 300 (subpatch) 0;
#X array sample16 1302 float 2;
#X coords 0 1 1302 -1 100 100 1 0 0;
#X restore 8 58 graph;
#X text 29 6 <<carga audio;
#X obj 77 58 bng 30 250 50 0 empty empty empty 17 7 0 10 -258113 -1
-1;
#X obj 207 135 hip~ 5;
#X obj 203 167 dac~;
#X floatatom 81 27 5 0 201 0 - - -;
#X obj 81 -35 inlet;
#X msg 154 156 stop;
#X obj 91 141 bng 15 250 50 0 empty empty empty 17 7 0 10 -262144 -1
-1;
#X obj 130 -31 sig~;
#X obj 231 -43 bng 15 250 50 0 empty empty empty 17 7 0 10 -262144
-1 -1;
#X msg 215 -17 bang;
#X obj 418 -33 bng 15 250 50 0 empty empty empty 17 7 0 10 -262144
-1 -1;
#X msg 412 -11 bang;
#X obj 229 -68 threshold~ 400 0 500 0;
#X obj 416 -58 threshold~ 501 0 600 0;
#X obj 207 111 tabplay~ sample16;
#X msg 11 -64 read -resize \$1 sample16;
#X connect 0 0 21 0;
#X connect 1 0 0 0;
#X connect 2 0 3 0;
#X connect 6 0 20 0;
#X connect 7 0 8 0;
#X connect 7 0 8 1;
#X connect 9 0 13 0;
#X connect 10 0 9 0;
#X connect 11 0 20 0;
#X connect 12 0 11 0;
#X connect 13 0 18 0;
#X connect 13 0 19 0;
#X connect 14 0 15 0;
#X connect 15 0 6 0;
#X connect 16 0 17 0;
#X connect 17 0 12 0;
#X connect 18 0 14 0;
#X connect 19 0 16 0;
#X connect 20 0 7 0;
#X connect 21 0 2 0;
#X coords 0 1 100 -1 120 160 1 0 0;
#X restore 365 -63 graph;
#X floatatom 365 -81 5 0 0 0 - - -;
#N canvas 124 46 566 343 (subpatch) 0;
#X obj 9 -96 openpanel;
#X obj 7 6 bng 15 250 50 0 empty empty empty 17 7 0 10 -262144 -1 -1
;
#X obj 9 -37 soundfiler;
#X floatatom 7 25 10 0 0 0 - - -;
#N canvas 0 22 450 300 (subpatch) 0;
#X array sample17 36736 float 2;
#X coords 0 1 36736 -1 100 100 1 0 0;
#X restore 6 56 graph;
#X text 27 4 <<carga audio;
#X obj 76 56 bng 30 250 50 0 empty empty empty 17 7 0 10 -258113 -1
-1;
#X obj 205 133 hip~ 5;
#X obj 201 165 dac~;
#X floatatom 79 25 5 0 201 0 - - -;
#X obj 79 -37 inlet;
#X msg 152 154 stop;
#X obj 89 139 bng 15 250 50 0 empty empty empty 17 7 0 10 -262144 -1
-1;
#X obj 128 -33 sig~;
#X obj 229 -45 bng 15 250 50 0 empty empty empty 17 7 0 10 -262144
-1 -1;
#X msg 213 -19 bang;
#X obj 416 -35 bng 15 250 50 0 empty empty empty 17 7 0 10 -262144
-1 -1;
#X msg 410 -13 bang;
#X obj 227 -70 threshold~ 500 0 600 0;
#X obj 414 -60 threshold~ 601 0 700 0;
#X obj 205 109 tabplay~ sample17;
#X msg 9 -66 read -resize \$1 sample17;
#X connect 0 0 21 0;
#X connect 1 0 0 0;
#X connect 2 0 3 0;
#X connect 6 0 20 0;
#X connect 7 0 8 0;
#X connect 7 0 8 1;
#X connect 9 0 13 0;
#X connect 10 0 9 0;
#X connect 11 0 20 0;
#X connect 12 0 11 0;
#X connect 13 0 18 0;
#X connect 13 0 19 0;
#X connect 14 0 15 0;
#X connect 15 0 6 0;
#X connect 16 0 17 0;
#X connect 17 0 12 0;
#X connect 18 0 14 0;
#X connect 19 0 16 0;
#X connect 20 0 7 0;
#X connect 21 0 2 0;
#X coords 0 1 100 -1 120 160 1 0 0;
#X restore 496 -63 graph;
#X floatatom 495 -81 5 0 0 0 - - -;
#N canvas 702 299 582 329 (subpatch) 0;
#X obj 9 -94 openpanel;
#X obj 7 8 bng 15 250 50 0 empty empty empty 17 7 0 10 -262144 -1 -1
;
#X obj 9 -35 soundfiler;
#X floatatom 7 27 10 0 0 0 - - -;
#N canvas 0 22 450 300 (subpatch) 0;
#X array sample18 32512 float 2;
#X coords 0 1 32512 -1 100 100 1 0 0;
#X restore 6 58 graph;
#X text 27 6 <<carga audio;
#X obj 76 59 bng 30 250 50 0 empty empty empty 17 7 0 10 -258113 -1
-1;
#X obj 205 135 hip~ 5;
#X obj 201 167 dac~;
#X floatatom 79 27 5 0 201 0 - - -;
#X obj 79 -35 inlet;
#X msg 152 156 stop;
#X obj 89 141 bng 15 250 50 0 empty empty empty 17 7 0 10 -262144 -1
-1;
#X obj 128 -31 sig~;
#X obj 229 -43 bng 15 250 50 0 empty empty empty 17 7 0 10 -262144
-1 -1;
#X msg 213 -17 bang;
#X obj 416 -33 bng 15 250 50 0 empty empty empty 17 7 0 10 -262144
-1 -1;
#X msg 410 -11 bang;
#X obj 414 -58 threshold~ 701 0 800 0;
#X obj 227 -68 threshold~ 600 0 700 0;
#X obj 205 111 tabplay~ sample18;
#X msg 9 -64 read -resize \$1 sample18;
#X connect 0 0 21 0;
#X connect 1 0 0 0;
#X connect 2 0 3 0;
#X connect 6 0 20 0;
#X connect 7 0 8 0;
#X connect 7 0 8 1;
#X connect 9 0 13 0;
#X connect 10 0 9 0;
#X connect 11 0 20 0;
#X connect 12 0 11 0;
#X connect 13 0 18 0;
#X connect 13 0 19 0;
#X connect 14 0 15 0;
#X connect 15 0 6 0;
#X connect 16 0 17 0;
#X connect 17 0 12 0;
#X connect 18 0 16 0;
#X connect 19 0 14 0;
#X connect 20 0 7 0;
#X connect 21 0 2 0;
#X coords 0 1 100 -1 120 160 1 0 0;
#X restore 625 -63 graph;
#X floatatom 625 -81 5 0 0 0 - - -;
#X obj -25 -104 * 701;
#X obj -71 -104 r val3;
#X floatatom -24 -85 5 0 0 0 - - -;
#X connect 1 0 0 0;
#X connect 3 0 2 0;
#X connect 5 0 4 0;
#X connect 7 0 6 0;
#X connect 9 0 8 0;
#X connect 11 0 10 0;
#X connect 12 0 1 0;
#X connect 12 0 3 0;
#X connect 12 0 5 0;
#X connect 12 0 7 0;
#X connect 12 0 9 0;
#X connect 12 0 11 0;
#X connect 14 0 12 0;
#X connect 15 0 28 0;
#X connect 17 0 16 0;
#X connect 19 0 18 0;
#X connect 21 0 20 0;
#X connect 23 0 22 0;
#X connect 25 0 24 0;
#X connect 27 0 26 0;
#X connect 28 0 17 0;
#X connect 28 0 19 0;
#X connect 28 0 21 0;
#X connect 28 0 23 0;
#X connect 28 0 25 0;
#X connect 28 0 27 0;
#X connect 31 0 30 0;
#X connect 33 0 32 0;
#X connect 35 0 34 0;
#X connect 37 0 36 0;
#X connect 39 0 38 0;
#X connect 40 0 42 0;
#X connect 40 0 31 0;
#X connect 40 0 33 0;
#X connect 40 0 35 0;
#X connect 40 0 37 0;
#X connect 40 0 39 0;
#X connect 41 0 40 0;
#X connect 42 0 29 0;
